# Blender 3.4.1
# www.blender.org
mtllib 1.mtl
o Megaman_Zero_Helmet_-_Letter_Foam.003
v 0.000000 2.054695 -9.982405
v 0.000000 1.074228 -10.167915
v 0.000000 3.209545 -9.562443
v 0.000000 0.270172 -10.231964
v 0.000000 -4.756590 -10.156531
v 0.000000 -4.034363 -10.588083
v 0.000000 -3.580514 -10.339990
v -4.676323 -1.560724 -6.429885
v -4.211257 -2.302789 -5.737208
v -3.969788 -2.186846 -6.248165
v -0.750826 1.924694 -9.932289
v -1.470121 0.583183 -9.887997
v -1.490099 1.503829 -9.771130
v -0.699489 0.940044 -10.044661
v -2.149034 0.931683 -9.512590
v -2.759109 1.693041 -8.946951
v -0.826965 3.072649 -9.522372
v -1.594520 2.664949 -9.403767
v -2.334354 2.100964 -9.171995
v -0.734967 0.339158 -10.158611
v -2.312315 0.720838 -9.389363
v -4.154505 -2.047669 -7.059067
v -2.096600 -3.569744 -8.852470
v -2.841644 0.437528 -9.861005
v -2.969355 -2.997386 -8.204827
v -1.176987 -4.115216 -9.458386
v -3.651810 -2.427180 -6.792450
v -2.660996 -3.151379 -7.808306
v -1.887427 -3.662614 -8.272864
v -1.075494 -4.212963 -8.658269
v 0.000000 -4.932969 -9.040295
v -2.901936 -0.753272 -9.297762
v -2.031064 -1.754841 -9.765255
v -1.118771 -2.791194 -10.162064
v -3.536071 1.537822 -9.455639
v -3.645545 -2.488922 -7.611155
v -3.278730 -2.720044 -7.271508
v -2.628829 -0.592367 -9.155710
v -1.834230 -1.596853 -9.619674
v -0.915589 -2.616785 -10.008094
v -2.264898 -1.073503 -9.389416
v -2.472583 -1.230606 -9.535555
v -2.540538 -3.283888 -8.528952
v -2.279703 -3.402047 -8.045093
v -1.414112 -2.075088 -9.810314
v -1.612571 -2.236099 -9.957400
v -1.675418 -3.825683 -9.138621
v -1.514970 -3.912850 -8.463719
v -0.478644 -3.082776 -10.170553
v -0.604069 -3.363999 -10.365158
v -0.659504 -4.409461 -9.781054
v -0.601674 -4.541646 -8.844854
v -1.813704 0.745861 -9.708027
v -0.346300 0.280461 -10.221254
v -1.109646 0.446750 -10.041598
v 0.000000 -3.741233 -10.190276
v 0.000000 0.334434 -10.027046
v 0.000000 -3.682952 -10.633806
v 0.000000 -1.088544 -11.938519
v 0.000000 0.455934 -10.471567
v -2.699174 -0.626407 -8.949151
v -1.847934 -1.708120 -9.426053
v -0.959429 -2.719529 -9.816269
v -2.656718 0.622400 -9.468651
v -0.652264 0.396408 -9.967856
v -1.338910 0.636133 -9.717209
v -2.066061 1.004023 -9.347250
v -2.351902 0.763098 -9.209152
v -2.809635 -0.687950 -9.411997
v -2.696027 0.737567 -10.020402
v -1.980327 0.146540 -10.672564
v -2.028635 -1.552360 -9.873500
v -1.061115 -0.444679 -11.309137
v -1.105044 -2.550248 -10.276148
v -0.742397 0.521728 -10.404192
v -1.465785 0.769643 -10.138322
v -2.129504 1.111146 -9.743280
v -2.331648 0.424621 -10.375363
v -2.417687 -1.127541 -9.655779
v -2.261476 -1.186814 -9.193767
v -1.664058 0.795781 -9.546361
v -1.788817 0.931541 -9.960007
v -1.563399 -0.135076 -10.979259
v -1.602203 -2.013637 -10.077222
v -1.442518 -2.182415 -9.617571
v -0.998491 0.499086 -9.861891
v -1.122000 0.631768 -10.287393
v -0.582871 -0.736199 -11.604602
v -0.624878 -3.069616 -10.444079
v -0.534049 -3.183821 -9.980583
v -0.292617 0.341329 -10.021955
v -0.345061 0.463644 -10.464779
v 0.000000 2.022038 -9.856573
v 0.000000 1.056038 -10.039194
v 0.000000 3.155317 -9.444293
v 0.000000 0.264088 -10.102106
v 0.000000 -4.651162 -10.080474
v 0.000000 -4.009172 -10.460547
v 0.000000 -3.635257 -10.222077
v -4.570695 -1.503402 -6.380320
v -4.138706 -2.211695 -5.679432
v -3.889595 -2.086623 -6.227563
v -0.723107 1.895300 -9.808727
v -1.418584 0.575810 -9.768877
v -1.442212 1.481233 -9.652403
v -0.672064 0.920366 -9.919119
v -2.082171 0.919192 -9.401806
v -2.747671 1.635684 -8.830851
v -0.798254 3.022031 -9.406125
v -1.542386 2.623688 -9.292055
v -2.267151 2.070225 -9.065042
v -0.702021 0.328442 -10.033313
v -2.295939 0.702504 -9.261709
v -4.051324 -1.976578 -7.024430
v -2.009452 -3.483906 -8.808459
v -2.842059 0.448640 -9.731482
v -2.877953 -2.914057 -8.164804
v -1.092258 -4.030550 -9.407862
v -3.573304 -2.323778 -6.799134
v -2.593921 -3.040680 -7.820414
v -1.820981 -3.551230 -8.281730
v -1.005357 -4.103532 -8.655907
v 0.000000 -4.803862 -9.025089
v -2.855946 -0.737480 -9.177198
v -1.993754 -1.773709 -9.642162
v -1.086113 -2.806150 -10.037125
v -3.498326 1.507647 -9.334953
v -3.547947 -2.411397 -7.574217
v -3.206487 -2.612493 -7.282170
v -2.650624 -0.595011 -9.027577
v -1.819848 -1.634595 -9.496107
v -0.912861 -2.652757 -9.883200
v -2.245306 -1.112269 -9.266887
v -2.432731 -1.251125 -9.413527
v -2.451917 -3.198318 -8.487429
v -2.214065 -3.290434 -8.056685
v -1.405251 -2.111542 -9.685844
v -1.578184 -2.252846 -9.833155
v -1.589846 -3.740040 -9.091265
v -1.446999 -3.802107 -8.467713
v -0.480673 -3.119675 -10.045917
v -0.571774 -3.377426 -10.239951
v -0.575072 -4.325884 -9.728271
v -0.529397 -4.433966 -8.835849
v -1.752525 0.739891 -9.593477
v -0.322843 0.271979 -10.093670
v -1.065323 0.434432 -9.920010
v 0.000000 -3.625213 -10.248922
v 0.000000 0.254483 -10.129555
v 0.000000 -3.574151 -10.562656
v 0.000000 -1.087110 -11.808527
v 0.000000 0.331292 -10.434631
v -2.637267 -0.600287 -9.060440
v -1.810677 -1.634632 -9.526609
v -0.908261 -2.647664 -9.911753
v -2.556343 0.564263 -9.527346
v -0.698484 0.318512 -10.061109
v -1.411435 0.564634 -9.798006
v -2.071679 0.906286 -9.432783
v -2.284369 0.690690 -9.293392
v -2.688156 -0.646580 -9.391226
v -2.597662 0.673863 -9.964134
v -1.919062 0.116168 -10.562000
v -1.927619 -1.485734 -9.825994
v -1.007487 -0.473608 -11.194302
v -1.009462 -2.481786 -10.220677
v -0.758466 0.399764 -10.362163
v -1.494666 0.651697 -10.091905
v -2.119370 0.982612 -9.726652
v -2.268494 0.391715 -10.266603
v -2.313727 -1.060987 -9.615002
v -2.233992 -1.114937 -9.298544
v -1.743694 0.727888 -9.623488
v -1.821689 0.814942 -9.912848
v -1.506079 -0.164331 -10.866306
v -1.504503 -1.946145 -10.024311
v -1.398170 -2.109175 -9.715393
v -1.059955 0.423969 -9.948376
v -1.145747 0.511867 -10.243124
v -0.531066 -0.764679 -11.488821
v -0.530207 -3.000392 -10.387996
v -0.478251 -3.112229 -10.073648
v -0.321217 0.262335 -10.121161
v -0.351710 0.339957 -10.425319
v -4.716656 -1.574422 -6.335126
v -4.704607 -1.497141 -6.388921
v -4.712407 -1.494893 -6.393110
v -4.674066 -1.286389 -6.536369
v -4.139203 1.748653 -8.629178
v -4.022786 2.379084 -9.062179
v -4.330525 -2.197835 -5.745540
v -3.000651 2.228815 -8.620901
v -0.880648 3.805980 -9.115279
v 0.000000 4.110496 -9.058965
v -1.692974 3.348399 -9.035361
v -4.266086 -2.358195 -5.605114
v -2.455208 2.758927 -8.840885
v -4.586917 -1.508873 -6.342269
v -4.582554 -1.476050 -6.365359
v -4.585681 -1.475422 -6.366835
v -4.571149 -1.395523 -6.421784
v -4.084190 1.527485 -8.446407
v -3.950496 2.287061 -8.970224
v -4.145391 -2.205901 -5.679906
v -2.972244 2.123803 -8.533384
v -0.848339 3.702999 -9.028021
v 0.000000 3.996756 -8.974081
v -1.634349 3.258654 -8.949508
v -4.141728 -2.214787 -5.672095
v -2.380411 2.679466 -8.757499
vn -0.1100 0.3338 -0.9362
vn -0.5493 -0.6645 -0.5067
vn -0.9034 -0.1410 -0.4049
vn -0.3377 0.4238 -0.8405
vn -0.1434 0.1447 -0.9790
vn -0.2568 0.1060 -0.9606
vn -0.4502 0.1185 -0.8851
vn -0.3216 0.2794 -0.9047
vn -0.4669 0.2034 -0.8606
vn -0.3005 0.2441 -0.9220
vn -0.1998 0.1522 -0.9680
vn -0.5936 0.1159 -0.7963
vn -0.6390 -0.3434 -0.6883
vn -0.6943 -0.2982 -0.6550
vn -0.6647 -0.3186 -0.6758
vn -0.8471 -0.1862 -0.4978
vn -0.5032 -0.6150 0.6071
vn -0.5995 -0.7984 0.0556
vn -0.5237 -0.8513 0.0321
vn -0.5169 -0.8531 0.0705
vn -0.5528 -0.8312 -0.0593
vn -0.6426 -0.7661 0.0149
vn 0.3912 0.5247 -0.7560
vn -0.7626 -0.2521 -0.5957
vn -0.5479 -0.8339 0.0662
vn 0.6802 -0.3133 -0.6627
vn 0.1476 0.5323 -0.8336
vn 0.2047 0.5118 -0.8344
vn 0.2130 0.4921 -0.8441
vn -0.7523 -0.2502 -0.6095
vn -0.7428 -0.2750 -0.6105
vn 0.1910 0.5236 -0.8303
vn -0.6887 -0.3030 -0.6586
vn -0.5182 -0.8532 0.0597
vn 0.2120 0.4999 -0.8397
vn -0.6460 -0.3322 -0.6872
vn -0.5363 -0.8439 -0.0106
vn 0.2071 0.4786 -0.8533
vn -0.6254 -0.3739 -0.6849
vn -0.5389 -0.8351 -0.1104
vn -0.4219 0.1052 -0.9005
vn -0.0285 0.0794 -0.9964
vn -0.1278 0.1921 -0.9730
vn -0.2411 0.1945 -0.9508
vn -0.5373 -0.0208 -0.8432
vn -0.4877 -0.0286 -0.8726
vn -0.4265 -0.0354 -0.9038
vn -0.3606 -0.0330 -0.9321
vn -0.2731 -0.0171 -0.9618
vn -0.2065 0.0116 -0.9784
vn -0.6062 0.0046 -0.7953
vn 1.0000 -0.0000 -0.0000
vn -0.7359 -0.2340 -0.6354
vn -0.6746 -0.3035 -0.6729
vn -0.6250 -0.3361 -0.7046
vn -0.9811 0.1210 0.1512
vn -0.0196 0.6889 -0.7246
vn -0.0595 0.6830 -0.7279
vn -0.0997 0.6897 -0.7172
vn 0.2714 0.0055 0.9624
vn 0.4221 0.0165 0.9064
vn 0.4804 0.0186 0.8769
vn -0.3507 0.2562 0.9008
vn -0.7021 -0.6822 0.2041
vn -0.7391 -0.6726 0.0367
vn -0.7386 -0.6739 -0.0178
vn 0.1790 0.9542 0.2397
vn 0.4248 0.8919 0.1548
vn 0.5165 0.8458 0.1337
vn -0.6064 0.7686 0.2036
vn -0.5610 0.7807 0.2752
vn -0.7105 -0.2735 -0.6483
vn -0.7310 -0.6732 0.1116
vn 0.4837 0.0065 0.8752
vn 0.4952 0.8593 0.1279
vn -0.0711 0.6799 -0.7299
vn -0.6420 -0.3241 -0.6948
vn -0.7390 -0.6738 -0.0024
vn 0.3567 0.0176 0.9341
vn 0.3304 0.9236 0.1946
vn -0.0409 0.6866 -0.7258
vn -0.5962 -0.3551 -0.7201
vn -0.7195 -0.6919 -0.0595
vn 0.2366 -0.0231 0.9713
vn 0.0270 0.9643 0.2634
vn 0.0010 0.6887 -0.7251
vn 0.1100 -0.3339 0.9362
vn 0.5440 0.6692 0.5062
vn 0.8981 0.1669 0.4069
vn 0.3390 -0.4235 0.8401
vn 0.1449 -0.1440 0.9789
vn 0.2558 -0.1058 0.9609
vn 0.4503 -0.1182 0.8850
vn 0.3222 -0.2792 0.9046
vn 0.4674 -0.2034 0.8604
vn 0.2978 -0.2427 0.9232
vn 0.2033 -0.1509 0.9674
vn 0.5618 -0.1293 0.8171
vn 0.6423 0.3541 0.6797
vn 0.7036 0.2965 0.6458
vn 0.6666 0.3249 0.6709
vn 0.8351 0.2004 0.5123
vn 0.4417 0.5703 -0.6926
vn 0.5857 0.8073 -0.0721
vn 0.5155 0.8553 -0.0523
vn 0.5027 0.8591 -0.0960
vn 0.5495 0.8341 0.0475
vn 0.6299 0.7764 -0.0206
vn -0.4022 -0.5329 0.7445
vn 0.7585 0.2590 0.5980
vn 0.5322 0.8419 -0.0895
vn -0.6966 0.3089 0.6475
vn -0.2174 -0.5475 0.8081
vn -0.2482 -0.5367 0.8065
vn -0.2584 -0.5218 0.8129
vn 0.7721 0.2616 0.5792
vn 0.7437 0.2757 0.6090
vn -0.2327 -0.5454 0.8052
vn 0.6906 0.3082 0.6543
vn 0.5069 0.8580 -0.0828
vn -0.2560 -0.5274 0.8102
vn 0.6483 0.3402 0.6811
vn 0.5311 0.8473 -0.0055
vn -0.2598 -0.5198 0.8138
vn 0.6445 0.3729 0.6675
vn 0.5637 0.8203 0.0966
vn 0.4216 -0.1049 0.9007
vn 0.0241 -0.0792 0.9966
vn 0.1260 -0.1941 0.9729
vn 0.2395 -0.1956 0.9510
vn 0.5166 0.0154 0.8561
vn 0.4856 0.0221 0.8739
vn 0.4257 0.0301 0.9044
vn 0.3604 0.0289 0.9324
vn 0.2735 0.0140 0.9618
vn 0.2150 -0.0143 0.9765
vn 0.5471 0.0015 0.8371
vn 0.7256 0.2479 0.6419
vn 0.6764 0.3101 0.6680
vn 0.6276 0.3418 0.6995
vn 0.9843 -0.1216 -0.1283
vn 0.0161 -0.6936 0.7201
vn 0.0534 -0.6878 0.7240
vn 0.0762 -0.6830 0.7264
vn -0.2735 -0.0140 -0.9618
vn -0.4257 -0.0301 -0.9044
vn -0.5166 -0.0154 -0.8561
vn 0.3583 -0.2598 -0.8968
vn 0.7245 0.6752 -0.1382
vn 0.7560 0.6521 0.0569
vn 0.7477 0.6552 0.1082
vn -0.1771 -0.9581 -0.2250
vn -0.4211 -0.8953 -0.1452
vn -0.5346 -0.8367 -0.1192
vn 0.6091 -0.7537 -0.2467
vn 0.5892 -0.7561 -0.2851
vn 0.7110 0.2804 0.6449
vn 0.7535 0.6570 -0.0242
vn -0.4856 -0.0221 -0.8739
vn -0.4920 -0.8621 -0.1214
vn 0.0658 -0.6840 0.7265
vn 0.6447 0.3302 0.6895
vn 0.7508 0.6535 0.0957
vn -0.3604 -0.0289 -0.9324
vn -0.3262 -0.9273 -0.1834
vn 0.0352 -0.6915 0.7215
vn 0.6213 0.3488 0.7016
vn 0.7459 0.6571 0.1087
vn -0.2150 0.0143 -0.9765
vn -0.0302 -0.9693 -0.2442
vn 0.0073 -0.6950 0.7189
vn 0.2166 -0.1645 0.9623
vn 0.6233 -0.5254 0.5791
vn 0.6092 -0.3781 0.6971
vn 0.4385 -0.1677 0.8829
vn 0.5298 -0.2538 0.8092
vn 0.4106 -0.1609 0.8975
vn 0.3559 -0.1621 0.9204
vn 0.2896 -0.1747 0.9411
vn 0.2289 -0.2000 0.9527
vn 0.7659 -0.6412 0.0488
vn 0.7287 -0.6586 0.1876
vn 0.4898 -0.3389 0.8033
vn 0.1163 -0.4805 0.8692
vn 0.5697 -0.2553 0.7812
vn -0.3976 -0.5826 0.7088
vn 0.8101 0.2293 0.5396
vn 0.8324 0.2147 0.5110
vn 0.5420 0.7345 0.4082
vn -0.4886 0.3393 -0.8038
vn -0.1159 0.4805 -0.8693
vn -0.5897 0.2447 -0.7697
vn 0.3797 0.5782 -0.7222
vn -0.8082 -0.2245 -0.5445
vn -0.8290 -0.2099 -0.5183
vn -0.5558 -0.7261 -0.4048
vn -0.2499 0.5791 0.7760
vt 0.985406 0.010217
vt 0.986008 0.010356
vt 0.984640 0.010104
vt 0.995468 0.001757
vt 0.986480 0.010473
vt 0.980877 0.016273
vt 0.984365 0.004233
vt 0.980920 0.016823
vt 0.990534 0.007822
vt 0.993685 0.003577
vt 0.990715 0.007567
vt 0.997547 0.014408
vt 0.988671 0.003738
vt 0.984058 0.009588
vt 0.985495 0.015906
vt 0.990279 0.002813
vt 0.990793 0.002215
vt 0.984516 0.009119
vt 0.990367 0.002110
vt 0.985383 0.010824
vt 0.986049 0.011607
vt 0.994926 0.000690
vt 0.985503 0.011486
vt 0.985975 0.010928
vt 0.985690 0.012145
vt 0.994726 0.000057
vt 0.985057 0.012675
vt 0.982163 0.015652
vt 0.984641 0.010772
vt 0.984760 0.011443
vt 0.984930 0.012157
vt 0.986333 0.011033
vt 0.995170 0.001283
vt 0.985757 0.012395
vt 0.981542 0.016077
vt 0.990901 0.003488
vt 0.994507 0.000000
vt 0.983990 0.008829
vt 0.984844 0.015987
vt 0.982708 0.016155
vt 0.984072 0.006342
vt 0.981197 0.015601
vt 0.990371 0.003403
vt 0.983903 0.018776
vt 0.983984 0.007319
vt 0.983550 0.016097
vt 0.981862 0.016210
vt 0.984199 0.005367
vt 0.984364 0.008581
vt 0.984310 0.007305
vt 0.984450 0.006492
vt 0.984663 0.005689
vt 0.984982 0.004743
vt 0.990291 0.004356
vt 0.983780 0.017830
vt 0.990323 0.005449
vt 0.982875 0.017535
vt 0.990407 0.006543
vt 0.981974 0.017213
vt 0.981856 0.014987
vt 0.984687 0.019137
vt 0.983959 0.008140
vt 0.984254 0.016044
vt 0.984291 0.008045
vt 0.990491 0.004347
vt 0.993716 0.000343
vt 0.990505 0.005427
vt 0.993690 0.001422
vt 0.990595 0.006511
vt 0.993686 0.002512
vt 0.990491 0.004882
vt 0.993702 0.000878
vt 0.990302 0.004897
vt 0.983331 0.017686
vt 0.983134 0.016126
vt 0.984024 0.006835
vt 0.984374 0.006901
vt 0.990538 0.005932
vt 0.993686 0.001929
vt 0.990356 0.005956
vt 0.982457 0.017389
vt 0.982317 0.016181
vt 0.984127 0.005890
vt 0.984539 0.006117
vt 0.990650 0.007013
vt 0.993687 0.003018
vt 0.990466 0.007150
vt 0.981474 0.017028
vt 0.981395 0.016240
vt 0.984278 0.004829
vt 0.984811 0.005239
vt 0.985874 0.011881
vt 0.994824 0.000378
vt 0.986427 0.010734
vt 0.995321 0.001550
vt 0.986206 0.011318
vt 0.995041 0.000995
vt 0.991054 0.004163
vt 0.987799 0.012786
vt 0.000000 0.000000
vt 0.989630 0.011055
vt 0.983040 0.015860
vt 1.000000 0.009888
vt 0.990831 0.004129
vt 0.999359 0.007989
vt 0.989812 0.010958
vt 0.982962 0.015618
vt 0.990941 0.011716
vt 0.997075 0.009929
vt 0.990527 0.013294
vt 0.991301 0.007365
vt 0.991166 0.006302
vt 0.989613 0.013142
vt 0.991096 0.005221
vt 0.988695 0.012964
vt 0.996773 0.009087
vt 0.991071 0.012637
vt 0.985036 0.015495
vt 0.989979 0.011475
vt 0.983522 0.015699
vt 0.990438 0.011853
vt 0.984082 0.015649
vt 0.990937 0.012188
vt 0.984658 0.015672
vt 0.991122 0.012332
vt 0.984873 0.015740
vt 0.997258 0.009749
vt 0.991066 0.007311
vt 0.996937 0.008768
vt 0.992201 0.010075
vt 0.984958 0.015135
vt 0.997639 0.008548
vt 0.991489 0.010248
vt 0.998063 0.009737
vt 0.990931 0.006386
vt 0.998472 0.008270
vt 0.990667 0.010569
vt 0.998996 0.009785
vt 0.990853 0.005303
vt 0.983486 0.015442
vt 0.991267 0.011210
vt 0.984063 0.015389
vt 0.991742 0.010824
vt 0.992248 0.010566
vt 0.984615 0.015424
vt 0.997286 0.008660
vt 0.991846 0.010152
vt 0.997658 0.009738
vt 0.990993 0.006853
vt 0.991227 0.006839
vt 0.990074 0.013220
vt 0.990683 0.012022
vt 0.984367 0.015655
vt 0.984346 0.015401
vt 0.991998 0.010683
vt 0.998026 0.008419
vt 0.991104 0.010385
vt 0.998498 0.009751
vt 0.990884 0.005883
vt 0.991126 0.005800
vt 0.989186 0.013062
vt 0.990200 0.011670
vt 0.983797 0.015662
vt 0.983780 0.015401
vt 0.991499 0.010995
vt 0.998893 0.008135
vt 0.990261 0.010751
vt 0.999474 0.009831
vt 0.990839 0.004745
vt 0.991075 0.004719
vt 0.988270 0.012878
vt 0.989780 0.011257
vt 0.983256 0.015772
vt 0.983199 0.015522
vt 0.991073 0.011468
vt 0.985406 0.010217
vt 0.986008 0.010356
vt 0.984640 0.010104
vt 0.986480 0.010473
vt 0.995468 0.001757
vt 0.000000 0.000000
vt 0.980877 0.016273
vt 0.984365 0.004233
vt 0.000000 0.000000
vt 0.990534 0.007822
vt 0.980920 0.016823
vt 0.000000 0.000000
vt 0.990715 0.007567
vt 0.993685 0.003577
vt 0.997547 0.014408
vt 0.988671 0.003738
vt 0.984058 0.009588
vt 0.985495 0.015906
vt 0.990279 0.002813
vt 0.990793 0.002215
vt 0.984516 0.009119
vt 0.990367 0.002110
vt 0.985383 0.010824
vt 0.986049 0.011607
vt 0.994926 0.000690
vt 0.985503 0.011486
vt 0.985975 0.010928
vt 0.985690 0.012145
vt 0.994726 0.000057
vt 0.985057 0.012675
vt 0.982163 0.015652
vt 0.984641 0.010772
vt 0.984760 0.011443
vt 0.984930 0.012157
vt 0.986333 0.011033
vt 0.995170 0.001283
vt 0.985757 0.012395
vt 0.981542 0.016077
vt 0.990901 0.003488
vt 0.994507 0.000000
vt 0.983990 0.008829
vt 0.984844 0.015987
vt 0.982708 0.016155
vt 0.984072 0.006342
vt 0.981197 0.015601
vt 0.990371 0.003403
vt 0.983903 0.018776
vt 0.983984 0.007319
vt 0.983550 0.016097
vt 0.981862 0.016210
vt 0.984199 0.005367
vt 0.984364 0.008581
vt 0.984310 0.007305
vt 0.984450 0.006492
vt 0.984663 0.005689
vt 0.984982 0.004743
vt 0.990291 0.004356
vt 0.983780 0.017830
vt 0.990323 0.005449
vt 0.982875 0.017535
vt 0.990407 0.006543
vt 0.981974 0.017213
vt 0.981856 0.014987
vt 0.984687 0.019137
vt 0.983959 0.008140
vt 0.984254 0.016044
vt 0.984291 0.008045
vt 0.990491 0.004347
vt 0.993716 0.000343
vt 0.990505 0.005427
vt 0.993690 0.001422
vt 0.990595 0.006511
vt 0.993686 0.002512
vt 0.990491 0.004882
vt 0.993702 0.000878
vt 0.990302 0.004897
vt 0.983331 0.017686
vt 0.983134 0.016126
vt 0.984024 0.006835
vt 0.984374 0.006901
vt 0.990538 0.005932
vt 0.993686 0.001929
vt 0.990356 0.005956
vt 0.982457 0.017389
vt 0.982317 0.016181
vt 0.984127 0.005890
vt 0.984539 0.006117
vt 0.990650 0.007013
vt 0.993687 0.003018
vt 0.990466 0.007150
vt 0.981474 0.017028
vt 0.981395 0.016240
vt 0.984278 0.004829
vt 0.984811 0.005239
vt 0.985874 0.011881
vt 0.994824 0.000378
vt 0.986427 0.010734
vt 0.995321 0.001550
vt 0.986206 0.011318
vt 0.995041 0.000995
vt 0.000000 0.000000
vt 0.991054 0.004163
vt 0.987799 0.012786
vt 0.989630 0.011055
vt 0.983040 0.015860
vt 1.000000 0.009888
vt 0.990831 0.004129
vt 0.999359 0.007989
vt 0.989812 0.010958
vt 0.982962 0.015618
vt 0.990941 0.011716
vt 0.997075 0.009929
vt 0.990527 0.013294
vt 0.991301 0.007365
vt 0.991166 0.006302
vt 0.989613 0.013142
vt 0.991096 0.005221
vt 0.988695 0.012964
vt 0.996773 0.009087
vt 0.991071 0.012637
vt 0.985036 0.015495
vt 0.989979 0.011475
vt 0.983522 0.015699
vt 0.990438 0.011853
vt 0.984082 0.015649
vt 0.990937 0.012188
vt 0.984658 0.015672
vt 0.991122 0.012332
vt 0.984873 0.015740
vt 0.997258 0.009749
vt 0.991066 0.007311
vt 0.996937 0.008768
vt 0.992201 0.010075
vt 0.984958 0.015135
vt 0.997639 0.008548
vt 0.991489 0.010248
vt 0.998063 0.009737
vt 0.990931 0.006386
vt 0.998472 0.008270
vt 0.990667 0.010569
vt 0.998996 0.009785
vt 0.990853 0.005303
vt 0.983486 0.015442
vt 0.991267 0.011210
vt 0.984063 0.015389
vt 0.991742 0.010824
vt 0.992248 0.010566
vt 0.984615 0.015424
vt 0.997286 0.008660
vt 0.991846 0.010152
vt 0.997658 0.009738
vt 0.990993 0.006853
vt 0.991227 0.006839
vt 0.990074 0.013220
vt 0.990683 0.012022
vt 0.984367 0.015655
vt 0.984346 0.015401
vt 0.991998 0.010683
vt 0.998026 0.008419
vt 0.991104 0.010385
vt 0.998498 0.009751
vt 0.990884 0.005883
vt 0.991126 0.005800
vt 0.989186 0.013062
vt 0.990200 0.011670
vt 0.983797 0.015662
vt 0.983780 0.015401
vt 0.991499 0.010995
vt 0.998893 0.008135
vt 0.990261 0.010751
vt 0.999474 0.009831
vt 0.990839 0.004745
vt 0.991075 0.004719
vt 0.988270 0.012878
vt 0.989780 0.011257
vt 0.983256 0.015772
vt 0.983199 0.015522
vt 0.991073 0.011468
vt 0.997595 0.014474
vt 0.990352 0.002833
vt 0.988658 0.003794
vt 0.997531 0.014463
vt 0.985545 0.015926
vt 0.988652 0.003795
vt 0.985534 0.016109
vt 0.985359 0.018826
vt 0.982410 0.014547
vt 0.985323 0.019386
vt 0.990790 0.002333
vt 0.984634 0.012837
vt 0.982551 0.015438
vt 0.984111 0.010773
vt 0.983965 0.010052
vt 0.984273 0.011478
vt 0.990902 0.002226
vt 0.984462 0.012204
vt 0.990308 0.002821
vt 0.997566 0.014434
vt 0.997540 0.014432
vt 0.988665 0.003762
vt 0.988663 0.003762
vt 0.985516 0.015914
vt 0.985511 0.015988
vt 0.985331 0.018673
vt 0.985282 0.019370
vt 0.982375 0.014575
vt 0.990793 0.002222
vt 0.982522 0.015454
vt 0.984665 0.012825
vt 0.984140 0.010773
vt 0.983999 0.010054
vt 0.984300 0.011476
vt 0.990799 0.002216
vt 0.984489 0.012202
s 0
f 1/1/1 11/20/1 17/29/1 3/3/1
f 191/364/2 9/17/2 196/370/2
f 185/354/3 186/357/3 8/12/3
f 195/369/4 193/367/4 17/29/4 18/30/4
f 11/20/5 1/1/5 2/2/5 14/24/5
f 14/24/6 12/21/6 13/23/6 11/20/6
f 13/23/7 53/92/7 15/25/7
f 18/30/8 17/29/8 11/20/8 13/23/8
f 19/31/9 18/30/9 13/23/9 15/25/9
f 12/21/10 14/24/10 55/96/10
f 2/2/11 54/94/11 14/24/11
f 15/25/12 21/34/12 16/27/12 19/31/12
f 26/47/13 34/59/13 50/88/13 51/89/13
f 25/46/14 32/55/14 42/74/14 43/75/14
f 46/81/15 47/82/15 23/40/15 33/57/15
f 187/358/16 188/360/16 8/15/16
f 186/356/17 187/359/17 8/13/17
f 36/62/18 37/64/18 27/49/18 22/38/18
f 23/41/19 47/83/19 48/84/19 29/51/19
f 28/50/20 25/45/20 43/76/20 44/77/20
f 26/48/21 51/90/21 52/91/21 30/52/21
f 22/38/22 27/49/22 10/18/22 8/14/22
f 24/42/23 35/60/23 16/28/23 21/35/23
f 32/55/24 36/63/24 35/61/24
f 37/64/25 36/62/25 25/45/25 28/50/25
f 24/43/26 21/36/26 38/65/26 32/54/26
f 32/54/27 38/65/27 41/71/27 42/73/27
f 33/56/28 39/67/28 45/78/28 46/80/28
f 49/85/29 50/87/29 34/58/29 40/69/29
f 32/55/30 35/61/30 24/44/30
f 32/55/31 25/46/31 36/63/31
f 42/73/32 41/71/32 39/67/32 33/56/32
f 33/57/33 23/40/33 43/75/33 42/74/33
f 43/76/34 23/41/34 29/51/34 44/77/34
f 46/80/35 45/78/35 40/69/35 34/58/35
f 34/59/36 26/47/36 47/82/36 46/81/36
f 47/83/37 26/48/37 30/52/37 48/84/37
f 7/11/38 6/9/38 50/87/38 49/85/38
f 51/89/39 50/88/39 6/8/39 5/6/39
f 51/90/40 5/7/40 31/53/40 52/91/40
f 12/21/41 53/92/41 13/23/41
f 2/2/42 4/5/42 54/94/42
f 14/24/43 54/94/43 20/32/43
f 55/96/44 14/24/44 20/32/44
f 53/93/45 41/72/45 38/66/45 15/26/45
f 12/22/46 39/68/46 41/72/46 53/93/46
f 55/97/47 45/79/47 39/68/47 12/22/47
f 20/33/48 40/70/48 45/79/48 55/97/48
f 54/95/49 49/86/49 40/70/49 20/33/49
f 4/4/50 7/10/50 49/86/50 54/95/50
f 21/37/51 15/26/51 38/66/51
f 57/102/52 149/280/52 152/286/52 151/283/52 150/282/52 148/276/52 99/188/52 56/98/52 58/103/52 59/106/52 60/107/52
f 148/278/52 7/11/52 4/4/52 149/279/52
f 56/99/52 99/189/52 96/180/52 57/100/52
f 2/2/52 1/1/52 93/176/52 94/177/52 96/179/52 4/5/52
f 99/189/52 148/278/52 149/279/52 57/100/52 96/180/52
f 5/7/52 6/9/52 7/11/52 148/276/52 99/187/52 98/184/52 97/181/52 123/231/52 31/53/52
f 69/127/53 70/129/53 78/146/53 79/148/53
f 72/134/54 71/132/54 83/156/54 84/158/54
f 74/138/55 73/136/55 88/166/55 89/168/55
f 64/116/56 70/129/56 69/127/56 61/109/56
f 92/175/57 88/167/57 73/137/57 75/141/57
f 87/165/58 83/157/58 71/133/58 76/143/58
f 78/147/59 70/130/59 77/144/59 82/155/59
f 91/172/60 65/119/60 63/115/60 90/171/60
f 86/162/61 66/121/61 62/113/61 85/161/61
f 61/110/62 80/151/62 81/152/62 67/123/62
f 67/123/63 68/125/63 64/117/63 61/110/63
f 69/128/64 79/149/64 80/150/64 61/111/64
f 62/112/65 72/135/65 84/159/65 85/160/65
f 63/114/66 74/139/66 89/169/66 90/170/66
f 65/120/67 91/173/67 92/174/67 75/140/67
f 86/163/68 87/164/68 76/142/68 66/122/68
f 77/145/69 67/124/69 81/153/69 82/154/69
f 64/118/70 77/145/70 70/131/70
f 68/126/71 67/124/71 77/145/71 64/118/71
f 79/148/72 78/146/72 71/132/72 72/134/72
f 80/150/73 79/149/73 72/135/73 62/112/73
f 66/121/74 81/152/74 80/151/74 62/113/74
f 82/154/75 81/153/75 66/122/75 76/142/75
f 78/147/76 82/155/76 76/143/76 71/133/76
f 84/158/77 83/156/77 73/136/77 74/138/77
f 85/160/78 84/159/78 74/139/78 63/114/78
f 65/119/79 86/162/79 85/161/79 63/115/79
f 87/164/80 86/163/80 65/120/80 75/140/80
f 83/157/81 87/165/81 75/141/81 73/137/81
f 89/168/82 88/166/82 59/105/82 58/103/82
f 56/98/83 90/170/83 89/169/83 58/104/83
f 90/171/84 56/99/84 57/101/84 91/172/84
f 91/173/85 57/102/85 60/107/85 92/174/85
f 88/167/86 92/175/86 60/108/86 59/106/86
f 93/176/87 95/178/87 109/207/87 103/198/87
f 204/382/88 209/388/88 101/195/88
f 198/373/89 100/190/89 199/374/89
f 208/387/90 110/208/90 109/207/90 206/385/90
f 103/198/91 106/202/91 94/177/91 93/176/91
f 106/202/92 103/198/92 105/201/92 104/199/92
f 105/201/93 107/203/93 145/270/93
f 110/208/94 105/201/94 103/198/94 109/207/94
f 111/209/95 107/203/95 105/201/95 110/208/95
f 104/199/96 147/274/96 106/202/96
f 94/177/97 106/202/97 146/272/97
f 107/203/98 111/209/98 108/205/98 113/212/98
f 118/225/99 143/267/99 142/266/99 126/237/99
f 117/224/100 135/253/100 134/252/100 124/233/100
f 138/259/101 125/235/101 115/218/101 139/260/101
f 200/377/102 100/193/102 201/378/102
f 199/375/103 100/191/103 200/376/103
f 128/240/104 114/216/104 119/227/104 129/242/104
f 115/219/105 121/229/105 140/262/105 139/261/105
f 120/228/106 136/255/106 135/254/106 117/223/106
f 118/226/107 122/230/107 144/269/107 143/268/107
f 114/216/108 100/192/108 102/196/108 119/227/108
f 116/220/109 113/213/109 108/206/109 127/238/109
f 124/233/110 127/239/110 128/241/110
f 129/242/111 120/228/111 117/223/111 128/240/111
f 116/221/112 124/232/112 130/243/112 113/214/112
f 124/232/113 134/251/113 133/249/113 130/243/113
f 125/234/114 138/258/114 137/256/114 131/245/114
f 141/263/115 132/247/115 126/236/115 142/265/115
f 124/233/116 116/222/116 127/239/116
f 124/233/117 128/241/117 117/224/117
f 134/251/118 125/234/118 131/245/118 133/249/118
f 125/235/119 134/252/119 135/253/119 115/218/119
f 135/254/120 136/255/120 121/229/120 115/219/120
f 138/258/121 126/236/121 132/247/121 137/256/121
f 126/237/122 138/259/122 139/260/122 118/225/122
f 139/261/123 140/262/123 122/230/123 118/226/123
f 99/188/124 141/263/124 142/265/124 98/185/124
f 143/267/125 97/182/125 98/186/125 142/266/125
f 143/268/126 144/269/126 123/231/126 97/183/126
f 104/199/127 105/201/127 145/270/127
f 94/177/128 146/272/128 96/179/128
f 106/202/129 112/210/129 146/272/129
f 147/274/130 112/210/130 106/202/130
f 145/271/131 107/204/131 130/244/131 133/250/131
f 104/200/132 145/271/132 133/250/132 131/246/132
f 147/275/133 104/200/133 131/246/133 137/257/133
f 112/211/134 147/275/134 137/257/134 132/248/134
f 146/273/135 112/211/135 132/248/135 141/264/135
f 96/180/136 146/273/136 141/264/136 99/189/136
f 113/215/137 130/244/137 107/204/137
f 161/305/138 171/326/138 170/324/138 162/307/138
f 164/312/139 176/336/139 175/334/139 163/310/139
f 166/316/140 181/346/140 180/344/140 165/314/140
f 156/294/141 153/287/141 161/305/141 162/307/141
f 184/353/142 167/319/142 165/315/142 180/345/142
f 179/343/143 168/321/143 163/311/143 175/335/143
f 170/325/144 174/333/144 169/322/144 162/308/144
f 183/350/145 182/349/145 155/293/145 157/297/145
f 178/340/146 177/339/146 154/291/146 158/299/146
f 153/288/147 159/301/147 173/330/147 172/329/147
f 159/301/148 153/288/148 156/295/148 160/303/148
f 161/306/149 153/289/149 172/328/149 171/327/149
f 154/290/150 177/338/150 176/337/150 164/313/150
f 155/292/151 182/348/151 181/347/151 166/317/151
f 157/298/152 167/318/152 184/352/152 183/351/152
f 178/341/153 158/300/153 168/320/153 179/342/153
f 169/323/154 174/332/154 173/331/154 159/302/154
f 156/296/155 162/309/155 169/323/155
f 160/304/156 156/296/156 169/323/156 159/302/156
f 171/326/157 164/312/157 163/310/157 170/324/157
f 172/328/158 154/290/158 164/313/158 171/327/158
f 158/299/159 154/291/159 172/329/159 173/330/159
f 174/332/160 168/320/160 158/300/160 173/331/160
f 170/325/161 163/311/161 168/321/161 174/333/161
f 176/336/162 166/316/162 165/314/162 175/334/162
f 177/338/163 155/292/163 166/317/163 176/337/163
f 157/297/164 155/293/164 177/339/164 178/340/164
f 179/342/165 167/318/165 157/298/165 178/341/165
f 175/335/166 165/315/166 167/319/166 179/343/166
f 181/346/167 150/281/167 151/283/167 180/344/167
f 148/277/168 150/282/168 181/347/168 182/348/168
f 182/349/169 183/350/169 149/279/169 148/278/169
f 183/351/170 184/352/170 152/285/170 149/280/170
f 180/345/171 151/284/171 152/286/171 184/353/171
f 52/91/172 31/53/172 123/231/172 144/269/172
f 10/18/173 27/49/173 119/227/173 102/196/173
f 27/49/174 37/64/174 129/242/174 119/227/174
f 28/50/175 44/77/175 136/255/175 120/228/175
f 37/64/176 28/50/176 120/228/176 129/242/176
f 44/77/177 29/51/177 121/229/177 136/255/177
f 29/51/178 48/84/178 140/262/178 121/229/178
f 48/84/179 30/52/179 122/230/179 140/262/179
f 30/52/180 52/91/180 144/269/180 122/230/180
f 196/370/181 9/17/181 101/195/181 209/388/181
f 9/17/182 10/19/182 102/197/182 101/195/182
f 110/208/183 208/387/183 210/389/183 111/209/183
f 95/178/184 207/386/184 206/385/184 109/207/184
f 111/209/185 210/389/185 205/384/185 108/205/185
f 127/238/186 108/206/186 205/383/186 203/381/186
f 127/239/187 203/380/187 202/379/187 114/217/187 128/241/187
f 100/193/188 114/217/188 202/379/188 201/378/188
f 101/195/189 102/197/189 100/194/189 198/372/189 204/382/189
f 18/30/190 19/31/190 197/371/190 195/369/190
f 1/1/52 3/3/52 194/368/52 207/386/52 95/178/52 93/176/52
f 3/3/191 17/29/191 193/367/191 194/368/191
f 19/31/192 16/27/192 192/365/192 197/371/192
f 35/60/193 190/362/193 192/366/193 16/28/193
f 35/61/194 36/63/194 22/39/194 189/361/194 190/363/194
f 8/15/195 188/360/195 189/361/195 22/39/195
f 9/17/196 191/364/196 185/355/196 8/16/196 10/19/196
f 210/389/197 208/387/197 206/385/197 207/386/197 194/368/197 193/367/197 195/369/197 197/371/197 192/366/197 190/363/197 189/361/197 188/360/197 187/359/197 186/357/197 185/355/197 191/364/197 196/370/197 209/388/197 204/382/197 198/373/197 199/375/197 200/377/197 201/378/197 202/379/197 203/381/197 205/384/197
