# Blender 3.4.1
# www.blender.org
mtllib 2.mtl
o Megaman_Zero_Helmet_-_Letter_Foam.004
v -3.599022 -7.904027 -7.709626
v -3.542359 -8.234987 -7.226338
v -5.374549 -6.708047 -6.230056
v -4.018677 -6.752602 -7.527532
v -3.238557 -7.438222 -7.407947
v -5.304202 -7.010324 -5.889460
v -5.609320 -6.033332 -6.096973
v -5.618661 -6.658142 -6.078399
v -4.393425 -5.746083 -7.257428
v -3.540894 -6.364134 -7.260102
v -5.557827 -6.924695 -5.779245
v -5.413456 -6.811676 -5.301597
v -5.896973 -6.071095 -5.920489
v -5.837321 -5.442611 -5.919013
v -4.746876 -4.829871 -6.889526
v -3.820182 -5.393100 -7.040539
v -5.738009 -6.731881 -5.256958
v -5.544695 -6.597248 -4.806767
v -6.154082 -5.541637 -5.740022
v -5.091065 -3.967136 -6.430188
v -4.075192 -4.523208 -6.727949
v -5.906832 -6.535681 -4.796337
v -3.218298 -7.512075 -7.315941
v -3.409817 -8.112580 -7.171167
v -4.763156 -7.327304 -6.006909
v -3.597862 -8.201659 -7.072850
v -4.059396 -7.893260 -6.774407
v -5.056473 -7.051747 -5.514174
v -3.495523 -6.460373 -7.076877
v -5.363459 -6.710144 -4.881366
v -5.282758 -6.823133 -5.126222
v -3.769679 -5.481696 -6.876036
v -3.876152 -5.103530 -6.797807
v -4.031105 -4.562785 -6.628715
v -4.190338 -4.419170 -6.713422
v -4.510366 -3.744189 -6.373985
v -3.606982 -7.843683 -7.594756
v -3.564008 -8.110103 -7.197440
v -5.287888 -6.660300 -6.145735
v -3.989227 -6.766583 -7.401686
v -3.349837 -7.452900 -7.342363
v -5.235758 -6.900466 -5.877357
v -5.531174 -6.030674 -5.993116
v -5.526419 -6.610328 -6.000262
v -4.354080 -5.768240 -7.135522
v -3.639133 -6.408720 -7.187569
v -5.483093 -6.818980 -5.767446
v -5.376324 -6.693195 -5.340114
v -5.795058 -6.046991 -5.843468
v -5.760532 -5.449979 -5.814375
v -4.699886 -4.862947 -6.772916
v -3.910410 -5.445275 -6.962842
v -5.658963 -6.629640 -5.271045
v -5.512508 -6.480748 -4.854638
v -6.051878 -5.523317 -5.661800
v -5.039062 -4.009430 -6.318802
v -4.159254 -4.583739 -6.649402
v -5.829685 -6.433179 -4.817352
v -3.343293 -7.490987 -7.287103
v -3.521397 -8.047553 -7.156283
v -4.705232 -7.214660 -6.036165
v -3.579898 -8.079430 -7.113313
v -4.001471 -7.780616 -6.803664
v -4.999043 -6.939050 -5.544197
v -3.620903 -6.494134 -7.083194
v -5.310148 -6.597600 -4.918674
v -5.228174 -6.710247 -5.160534
v -3.895024 -5.515677 -6.881850
v -4.001471 -5.137600 -6.803663
v -4.156428 -4.596823 -6.634673
v -4.190383 -4.478290 -6.597642
v -5.601443 -6.494611 -4.619360
v -4.530157 -3.709917 -6.352605
v -5.468943 -6.527876 -4.551869
v -6.240114 -5.372693 -5.662298
v -5.115508 -3.909431 -6.392195
v -5.190231 -4.004229 -6.345509
v -5.973313 -5.102307 -5.778175
v -5.841576 -4.896736 -5.889172
v -5.936281 -6.497459 -4.725054
v -4.496281 -3.813974 -6.264040
v -5.566278 -6.388320 -4.687362
v -5.414345 -6.424755 -4.611248
v -6.116189 -5.397981 -5.603521
v -4.673163 -3.870746 -6.278627
v -5.046027 -3.992403 -6.307899
v -5.067459 -4.019899 -6.294281
v -5.875246 -5.169581 -5.696390
v -5.714328 -4.914542 -5.834908
v -5.851249 -6.405472 -4.766323
v -4.502182 -3.793856 -6.280953
vn -0.7050 -0.6106 -0.3607
vn -0.6882 -0.1232 -0.7150
vn 0.8017 -0.4020 -0.4424
vn 0.3571 0.2493 -0.9002
vn -0.4710 -0.7050 -0.5303
vn -0.5004 -0.8541 0.1417
vn -0.5254 -0.0174 -0.8507
vn -0.6828 -0.0533 -0.7286
vn 0.5468 -0.7551 0.3617
vn 0.9602 0.2728 -0.0604
vn 0.2155 0.3013 -0.9289
vn -0.9066 -0.3878 -0.1665
vn -0.1937 -0.9400 0.2810
vn -0.4279 -0.8654 0.2606
vn -0.5148 0.0509 -0.8558
vn 0.9503 0.2927 -0.1064
vn 0.0798 0.3785 -0.9222
vn -0.9076 -0.3851 -0.1671
vn -0.1625 -0.9240 0.3461
vn -0.3894 -0.8528 0.3478
vn -0.5151 0.1385 -0.8459
vn 0.9246 0.3279 -0.1942
vn -0.0472 0.4251 -0.9039
vn 0.6703 0.7421 -0.0018
vn -0.1109 0.5008 -0.8584
vn -0.6771 0.1826 -0.7129
vn 0.7189 0.5988 0.3530
vn 0.6956 0.1112 0.7098
vn -0.8705 0.3581 0.3377
vn -0.3639 -0.2618 0.8939
vn 0.4715 0.6997 0.5368
vn 0.4456 0.8665 -0.2250
vn 0.5062 -0.0065 0.8624
vn 0.6890 0.0556 0.7227
vn -0.6383 0.6765 -0.3672
vn -0.9645 -0.2590 -0.0507
vn -0.1991 -0.2982 0.9335
vn 0.9067 0.3837 0.1750
vn 0.1507 0.9375 -0.3136
vn 0.4199 0.8684 -0.2639
vn 0.4857 -0.0705 0.8713
vn -0.9643 -0.2611 -0.0446
vn -0.0514 -0.3719 0.9268
vn 0.9067 0.3838 0.1751
vn 0.1060 0.9239 -0.3676
vn 0.3819 0.8551 -0.3507
vn 0.4862 -0.1588 0.8593
vn -0.9640 -0.2621 -0.0450
vn -0.9641 -0.2614 -0.0472
vn 0.0985 -0.5077 0.8559
vn 0.6799 -0.1775 0.7115
vn 0.7782 -0.2185 0.5888
vn 0.0065 -0.1995 0.9799
vn 0.8716 -0.2460 0.4241
vn 0.8638 -0.2804 0.4187
vn 0.2335 0.1541 0.9601
vn 0.0973 -0.1851 0.9779
vn 0.3591 0.3002 0.8837
vn 0.0087 -0.2002 0.9797
vn 0.6686 -0.1549 0.7273
vn 0.7697 -0.2382 0.5923
vn 0.5891 0.0491 0.8066
vn 0.0336 -0.2894 0.9566
vn 0.3889 0.4344 0.8124
vn 0.6800 -0.0324 0.7325
vn 0.6773 -0.1170 0.7263
vn 0.9067 0.3838 0.1749
vn 0.0765 0.8845 -0.4603
vn 0.0472 -0.4431 0.8952
vn 0.9224 0.3574 0.1465
vn -0.6754 0.0352 -0.7366
vn -0.6734 0.1191 -0.7296
vn -0.9075 -0.3851 -0.1679
vn 0.8936 0.4239 0.1477
vn -0.1348 -0.8884 0.4388
vn -0.2499 0.5791 0.7760
vt 0.999868 0.000194
vt 0.985141 0.003090
vt 0.999980 0.000553
vt 0.984870 0.002878
vt 0.998431 0.001326
vt 0.996084 0.002518
vt 0.999152 0.000085
vt 0.985341 0.003897
vt 0.984904 0.003388
vt 0.981461 0.017313
vt 0.998543 0.001577
vt 0.995888 0.002350
vt 0.997998 0.001293
vt 0.996510 0.002420
vt 0.996171 0.002307
vt 0.991684 0.016679
vt 0.985519 0.004670
vt 0.998467 0.000034
vt 0.985053 0.004156
vt 0.982011 0.017770
vt 0.991771 0.016456
vt 0.996002 0.002160
vt 0.998379 0.002021
vt 0.995785 0.001883
vt 0.996563 0.002177
vt 0.991971 0.017017
vt 0.996908 0.002312
vt 0.997589 0.001284
vt 0.985678 0.005410
vt 0.997812 0.000056
vt 0.985173 0.004884
vt 0.982494 0.018253
vt 0.992162 0.016419
vt 0.995935 0.001711
vt 0.998219 0.002423
vt 0.995696 0.001451
vt 0.996933 0.002037
vt 0.992261 0.017319
vt 0.985834 0.006153
vt 0.997159 0.000134
vt 0.985271 0.005569
vt 0.982892 0.018770
vt 0.992527 0.016401
vt 0.995879 0.001291
vt 0.984866 0.003358
vt 0.981423 0.017342
vt 0.984831 0.002926
vt 0.998971 0.001471
vt 0.984807 0.002868
vt 0.999959 0.000623
vt 0.999599 0.000862
vt 0.998693 0.001869
vt 0.981930 0.017820
vt 0.998382 0.002380
vt 0.998472 0.002181
vt 0.982429 0.018291
vt 0.982622 0.018473
vt 0.982880 0.018777
vt 0.982937 0.018843
vt 0.985283 0.005658
vt 0.985436 0.006240
vt 0.999868 0.000194
vt 0.985141 0.003090
vt 0.999980 0.000553
vt 0.984870 0.002878
vt 0.998431 0.001326
vt 0.996084 0.002518
vt 0.999152 0.000085
vt 0.985341 0.003897
vt 0.984904 0.003388
vt 0.981461 0.017313
vt 0.998543 0.001577
vt 0.995888 0.002350
vt 0.997998 0.001293
vt 0.996510 0.002420
vt 0.996171 0.002307
vt 0.991684 0.016679
vt 0.985519 0.004670
vt 0.998467 0.000034
vt 0.985053 0.004156
vt 0.982011 0.017770
vt 0.991771 0.016456
vt 0.996002 0.002160
vt 0.998379 0.002021
vt 0.995785 0.001883
vt 0.996563 0.002177
vt 0.991971 0.017017
vt 0.996908 0.002312
vt 0.997589 0.001284
vt 0.997812 0.000056
vt 0.985678 0.005410
vt 0.985173 0.004884
vt 0.982494 0.018253
vt 0.992162 0.016419
vt 0.995935 0.001711
vt 0.998219 0.002423
vt 0.995696 0.001451
vt 0.996933 0.002037
vt 0.992261 0.017319
vt 0.997159 0.000134
vt 0.985834 0.006153
vt 0.982892 0.018770
vt 0.985271 0.005569
vt 0.992527 0.016401
vt 0.995879 0.001291
vt 0.984866 0.003358
vt 0.981423 0.017342
vt 0.984831 0.002926
vt 0.998971 0.001471
vt 0.984807 0.002868
vt 0.999959 0.000623
vt 0.999599 0.000862
vt 0.998693 0.001869
vt 0.981930 0.017820
vt 0.998382 0.002380
vt 0.998472 0.002181
vt 0.982429 0.018291
vt 0.982622 0.018473
vt 0.982880 0.018777
vt 0.982937 0.018843
vt 0.985283 0.005658
vt 0.998149 0.002577
vt 0.995666 0.001280
vt 0.985446 0.006271
vt 0.998254 0.002651
vt 0.992366 0.017408
vt 0.997055 0.001983
vt 0.997110 0.000143
vt 0.985846 0.006209
vt 0.997130 0.000238
vt 0.997144 0.002233
vt 0.997344 0.001299
vt 0.997302 0.001107
vt 0.995872 0.001223
vt 0.992586 0.016404
vt 0.985434 0.006232
vt 0.995668 0.001295
vt 0.998155 0.002564
vt 0.998259 0.002639
vt 0.997025 0.001996
vt 0.992340 0.017386
vt 0.985564 0.006212
vt 0.985837 0.006169
vt 0.997145 0.000136
vt 0.997151 0.000164
vt 0.997383 0.001297
vt 0.997107 0.002246
vt 0.997329 0.001053
vt 0.992570 0.016403
vt 0.995874 0.001241
vt 0.985436 0.006240
s 0
f 3/5/1 1/1/1 2/3/1 6/11/1
f 3/5/2 7/13/2 4/7/2 1/1/2
f 24/47/3 2/4/3 1/2/3 5/9/3 23/45/3
f 5/9/4 1/2/4 4/8/4 10/19/4
f 8/15/5 3/6/5 6/12/5 11/22/5
f 12/23/6 6/11/6 2/3/6 26/50/6 27/51/6 25/48/6 28/52/6
f 8/15/7 13/25/7 7/14/7 3/6/7
f 9/18/8 4/7/8 7/13/8 14/28/8
f 2/4/9 24/47/9 26/49/9
f 5/10/10 10/20/10 29/53/10 23/46/10
f 10/19/11 4/8/11 9/17/11 16/31/11
f 13/26/12 8/16/12 11/21/12 17/33/12
f 11/22/13 6/12/13 12/24/13 17/34/13
f 18/35/14 12/23/14 28/52/14 31/55/14 30/54/14
f 14/27/15 7/14/15 13/25/15 19/37/15
f 10/20/16 16/32/16 32/56/16 29/53/16
f 16/31/17 9/17/17 15/29/17 21/41/17
f 13/26/18 17/33/18 22/43/18 19/38/18
f 17/34/19 12/24/19 18/36/19 22/44/19
f 74/125/20 72/122/20 18/35/20 30/54/20
f 78/131/21 14/27/21 19/37/21 75/127/21
f 32/56/22 16/32/22 21/42/22 34/58/22 33/57/22
f 20/39/23 36/61/23 35/60/23 21/41/23 15/29/23
f 21/42/24 35/59/24 34/58/24
f 73/124/25 36/61/25 20/39/25 76/129/25
f 77/130/26 76/128/26 20/40/26
f 39/66/27 42/72/27 38/64/27 37/62/27
f 39/66/28 37/62/28 40/68/28 43/74/28
f 60/108/29 59/106/29 41/70/29 37/63/29 38/65/29
f 41/70/30 46/80/30 40/69/30 37/63/30
f 44/76/31 47/83/31 42/73/31 39/67/31
f 48/84/32 64/113/32 61/109/32 63/112/32 62/111/32 38/64/32 42/72/32
f 44/76/33 39/67/33 43/75/33 49/86/33
f 45/79/34 50/89/34 43/74/34 40/68/34
f 38/65/35 62/110/35 60/108/35
f 41/71/36 59/107/36 65/114/36 46/81/36
f 46/80/37 52/92/37 45/78/37 40/69/37
f 49/87/38 53/94/38 47/82/38 44/77/38
f 47/83/39 53/95/39 48/85/39 42/73/39
f 54/96/40 66/115/40 67/116/40 64/113/40 48/84/40
f 50/88/41 55/98/41 49/86/41 43/75/41
f 46/81/42 65/114/42 68/117/42 52/93/42
f 52/92/43 57/103/43 51/91/43 45/78/43
f 49/87/44 55/99/44 58/104/44 53/94/44
f 53/95/45 58/105/45 54/97/45 48/85/45
f 83/139/46 66/115/46 54/96/46 82/138/46
f 88/147/47 84/140/47 55/98/47 50/88/47
f 68/117/48 69/118/48 70/119/48 57/102/48 52/93/48
f 57/102/49 70/119/49 71/120/49
f 85/142/50 86/143/50 56/101/50
f 87/145/51 56/100/51 86/144/51
f 31/55/52 28/52/52 64/113/52 67/116/52
f 29/53/53 32/56/53 68/117/53 65/114/53
f 74/125/54 30/54/54 66/115/54 83/139/54
f 30/54/55 31/55/55 67/116/55 66/115/55
f 24/47/56 23/45/56 59/106/56 60/108/56
f 23/46/57 29/53/57 65/114/57 59/107/57
f 26/49/58 24/47/58 60/108/58 62/110/58
f 32/56/59 33/57/59 69/118/59 68/117/59
f 25/48/60 27/51/60 63/112/60 61/109/60
f 28/52/61 25/48/61 61/109/61 64/113/61
f 27/51/62 26/50/62 62/111/62 63/112/62
f 33/57/63 34/58/63 70/119/63 69/118/63
f 34/58/64 35/59/64 71/120/64 70/119/64
f 51/90/65 89/148/65 88/146/65 50/89/65 45/79/65
f 56/100/66 87/145/66 89/148/66 51/90/66
f 55/99/67 84/141/67 90/149/67 58/104/67
f 58/105/68 90/150/68 82/137/68 54/97/68
f 56/101/69 51/91/69 57/103/69 71/121/69 81/136/69 85/142/69
f 35/60/70 36/61/70 91/151/70 81/136/70 71/121/70
f 15/30/71 9/18/71 14/28/71 78/132/71 79/133/71
f 20/40/72 15/30/72 79/133/72 77/130/72
f 19/38/73 22/43/73 80/135/73 75/126/73
f 36/61/74 73/124/74 91/151/74
f 22/44/75 18/36/75 72/123/75 80/134/75
f 89/148/76 87/145/76 86/144/76 85/142/76 81/136/76 91/151/76 73/124/76 76/129/76 77/130/76 79/133/76 78/132/76 75/127/76 80/135/76 72/123/76 74/125/76 83/139/76 82/138/76 90/150/76 84/141/76 88/147/76
