# Blender 3.4.1
# www.blender.org
mtllib 3.mtl
o Megaman_Zero_Helmet_-_Letter_Foam.002
v 0.000000 7.480402 0.069121
v 0.000000 7.292397 -0.982784
v 0.000000 6.943270 -1.979656
v 0.000000 6.469733 -2.907835
v 0.000000 5.855145 -3.772851
v 0.000000 5.111719 -4.560658
v 0.000000 4.229955 -5.256994
v -4.949204 -1.653400 -2.053545
v -5.158975 -1.919321 -1.482803
v -5.994814 1.686834 0.108390
v -5.613587 0.635812 -1.219357
v -5.831599 1.224562 -0.595130
v -5.740788 -0.015518 -0.895414
v -5.827059 -0.635372 -0.528666
v -5.340948 -0.041881 -1.726231
v -5.014784 -0.799834 -2.204455
v -5.428890 -0.592294 -1.466830
v -5.975156 0.515284 -0.314722
v -6.150481 0.987128 0.314640
v -5.543138 -1.184457 -1.010090
v -6.061304 -0.137970 0.018012
v -6.232805 0.312767 0.591647
v -1.146158 7.343536 0.073672
v -4.092128 5.352616 -0.906192
v -1.145064 7.147664 -0.973801
v -2.235671 6.730938 -0.947991
v -3.237328 6.094869 -0.915689
v -4.014081 4.962979 -1.847250
v -1.127334 6.794065 -1.966815
v -2.196540 6.363642 -1.929956
v -3.173655 5.712494 -1.881124
v -3.885666 4.468954 -2.702634
v -1.095055 6.318601 -2.890511
v -2.129057 5.881644 -2.840806
v -3.068491 5.225870 -2.769626
v -3.686928 3.862019 -3.489006
v -1.045777 5.704388 -3.750841
v -2.027987 5.267333 -3.687575
v -2.915580 4.614722 -3.592234
v -3.418044 3.183489 -4.175338
v -0.979532 4.964248 -4.533079
v -1.894274 4.535041 -4.453436
v -2.719934 3.899141 -4.324766
v -3.106666 2.463970 -4.742579
v -0.901347 4.088729 -5.223102
v -1.739948 3.674486 -5.124374
v -2.512946 3.073272 -4.947482
v -6.244793 7.041054 -0.897902
v -4.135873 2.574551 -5.235544
v -5.592384 5.455947 -3.055684
v -5.964673 6.293703 -2.025720
v -5.123924 4.493733 -3.956669
v -5.133319 -0.726969 -2.228913
v -5.526052 0.074191 -1.796313
v -5.860004 0.821025 -1.273400
v -6.116099 1.451521 -0.654536
v -6.301482 1.938509 0.040659
v -4.634440 3.528916 -4.670237
v 0.000000 7.351045 0.082032
v 0.000000 7.166748 -0.949435
v 0.000000 6.823848 -1.928291
v 0.000000 6.358627 -2.840341
v 0.000000 5.754715 -3.690305
v 0.000000 5.023949 -4.464761
v 0.000000 4.157659 -5.148952
v -4.848045 -1.596939 -1.994563
v -5.060987 -1.863961 -1.417737
v -5.873900 1.734446 0.104814
v -5.496449 0.690760 -1.231978
v -5.712717 1.276570 -0.603016
v -5.620377 -0.007320 -0.847104
v -5.705927 -0.619976 -0.484058
v -5.224806 0.014779 -1.740396
v -4.902344 -0.738498 -2.226707
v -5.311538 -0.576291 -1.413235
v -5.851711 0.515012 -0.273966
v -6.024914 0.978694 0.347224
v -5.425342 -1.163513 -0.959243
v -5.936994 -0.128863 0.054945
v -6.106054 0.315735 0.620377
v -1.116523 7.217685 0.087213
v -4.092524 5.230932 -0.860445
v -1.114222 7.025897 -0.940313
v -2.178877 6.619061 -0.913964
v -3.163566 5.993780 -0.880472
v -4.012062 4.847798 -1.787006
v -1.095939 6.678713 -1.915745
v -2.139093 6.258538 -1.879429
v -3.100078 5.618117 -1.830336
v -3.882277 4.362513 -2.628077
v -1.063593 6.211653 -2.823635
v -2.071789 5.785152 -2.775157
v -2.995973 5.140297 -2.703911
v -3.681964 3.766360 -3.401116
v -1.014622 5.608139 -3.669199
v -1.971484 5.181652 -3.607787
v -2.844566 4.540335 -3.512714
v -3.410424 3.100094 -4.075903
v -0.948942 4.880595 -4.438388
v -1.838878 4.461881 -4.361355
v -2.650445 3.837543 -4.233788
v -3.096415 2.393695 -4.633693
v -0.871675 4.020289 -5.116633
v -1.686102 3.615992 -5.021520
v -2.444830 3.025985 -4.847361
v -6.193639 6.941529 -0.831735
v -4.093629 2.533782 -5.119555
v -5.545038 5.378912 -2.962283
v -5.914018 6.204873 -1.945449
v -5.079812 4.429563 -3.852571
v -5.019140 -0.666119 -2.241572
v -5.409377 0.130693 -1.806031
v -5.741873 0.874732 -1.281190
v -5.997105 1.503496 -0.660787
v -6.182061 1.989659 0.035943
v -4.591681 3.476559 -4.559195
v -4.716656 -1.574422 -2.599911
v -4.704607 -1.497141 -2.653706
v -4.712407 -1.494893 -2.657895
v -4.674066 -1.286389 -2.801155
v -4.139203 1.748653 -4.893962
v -4.022786 2.379084 -5.326963
v -4.330525 -2.197835 -2.010325
v -3.000651 2.228815 -4.885685
v -0.880648 3.805980 -5.380064
v 0.000000 4.110497 -5.323750
v -1.692974 3.348399 -5.300147
v -4.266086 -2.358195 -1.869899
v -2.455208 2.758927 -5.105670
v -4.586917 -1.508873 -2.607054
v -4.582554 -1.476050 -2.630144
v -4.585681 -1.475422 -2.631620
v -4.571149 -1.395523 -2.686569
v -4.084190 1.527485 -4.711192
v -3.950496 2.287061 -5.235009
v -4.145391 -2.205901 -1.944692
v -2.972244 2.123803 -4.798169
v -0.848339 3.702999 -5.292807
v 0.000000 3.996756 -5.238867
v -1.634349 3.258654 -5.214293
v -4.141728 -2.214788 -1.936880
v -2.380411 2.679465 -5.022284
v -5.225615 -2.041661 -1.288539
v -4.754974 -2.250486 -1.483549
v -5.587767 -1.556886 -0.716458
v -5.855069 -1.131358 -0.206024
v -6.075186 -0.704958 0.313256
v -4.349919 -2.442912 -1.667923
v -5.131196 -1.994526 -1.211728
v -4.631150 -2.213259 -1.414835
v -5.468998 -1.535004 -0.668552
v -5.733278 -1.114480 -0.164140
v -5.950644 -0.693612 0.348386
v -4.294671 -2.371274 -1.565607
v -4.122802 5.628067 0.082319
v -6.204926 1.160730 0.616396
v -1.413143 7.247777 0.076862
v -1.145972 7.343864 0.086784
v -6.335238 7.295175 -0.404777
v -6.372845 2.142795 0.438759
v -2.243171 6.941608 0.047297
v -3.260411 6.331843 0.049626
v -6.360463 3.981016 0.137710
v -6.052696 1.864543 0.515330
v 0.000000 7.481949 0.174402
v -6.260511 0.400926 0.735973
v -4.126719 5.499096 0.103148
v -6.076429 1.141333 0.631956
v -1.568463 7.055575 0.093512
v -1.116231 7.218255 0.110300
v -6.277561 7.174328 -0.379355
v -6.254086 2.196125 0.441424
v -2.188192 6.826712 0.071481
v -3.187785 6.227160 0.073829
v -6.264349 3.949948 0.152071
v -5.931318 1.911224 0.519340
v 0.000000 7.352712 0.195651
v -6.130834 0.394716 0.749478
v -6.249063 -0.190553 0.834326
v -6.120665 -0.130938 0.836885
v -6.113939 -0.278813 0.861846
v -6.245336 -0.272795 0.848207
vn -0.1088 0.4789 -0.8711
vn -0.1226 0.7188 -0.6844
vn -0.1254 0.8820 -0.4542
vn -0.1242 0.9353 -0.3314
vn -0.1211 0.9764 -0.1786
vn -0.9293 0.0212 -0.3686
vn -0.1185 0.9928 -0.0155
vn -0.6022 -0.7129 -0.3594
vn -0.5189 -0.6318 -0.5759
vn -0.9469 0.0950 -0.3071
vn -0.9006 -0.0484 -0.4319
vn -0.9226 -0.1689 -0.3468
vn -0.8787 -0.0813 -0.4704
vn -0.8874 -0.1754 -0.4263
vn -0.9617 -0.0039 -0.2742
vn -0.9785 0.0381 -0.2026
vn -0.8923 -0.1989 -0.4052
vn -0.8796 -0.1475 -0.4523
vn -0.9395 -0.0582 -0.3375
vn -0.9124 -0.1158 -0.3926
vn -0.5075 0.5612 -0.6538
vn -0.3499 0.6558 -0.6690
vn -0.3542 0.7440 -0.5666
vn -0.3566 0.8201 -0.4474
vn -0.3530 0.8756 -0.3298
vn -0.3444 0.9205 -0.1847
vn -0.4665 0.3478 -0.8133
vn -0.5167 0.6508 -0.5563
vn -0.5241 0.7279 -0.4421
vn -0.5242 0.7851 -0.3299
vn -0.5172 0.8326 -0.1982
vn -0.5772 0.3678 -0.7291
vn -0.6007 0.5687 -0.5619
vn -0.6280 0.7040 -0.3317
vn -0.6163 0.6483 -0.4471
vn -0.1244 0.8065 -0.5780
vn -0.1194 0.6117 -0.7821
vn -0.4961 0.4591 -0.7370
vn -0.3424 0.5508 -0.7611
vn -0.5863 0.4736 -0.6573
vn -0.5582 0.2648 -0.7863
vn -0.0946 0.1615 0.9823
vn -0.3377 0.9411 -0.0187
vn -0.0991 -0.7892 0.6061
vn 0.2499 -0.5791 -0.7760
vn -0.8611 -0.1798 -0.4755
vn -0.9353 -0.0787 -0.3451
vn -0.9642 -0.0439 -0.2614
vn -0.8998 -0.1228 -0.4187
vn -0.8139 -0.2192 -0.5380
vn -0.9859 -0.0206 -0.1662
vn 0.4147 0.6390 -0.6478
vn 0.5328 0.7514 -0.3893
vn 0.5705 0.7574 -0.3175
vn 0.4976 0.7245 -0.4770
vn 0.3963 0.5864 -0.7065
vn 0.4576 0.6895 -0.5615
vn -0.5522 -0.5955 0.5835
vn -0.5847 -0.6239 0.5186
vn -0.6102 -0.6694 0.4238
vn -0.6370 -0.7023 0.3179
vn 0.1092 -0.4793 0.8709
vn 0.1227 -0.7188 0.6843
vn 0.1255 -0.8821 0.4541
vn 0.1243 -0.9353 0.3314
vn 0.1212 -0.9765 0.1785
vn 0.9375 0.0013 0.3479
vn 0.1185 -0.9928 0.0160
vn 0.5970 0.7181 0.3578
vn 0.5125 0.6355 0.5774
vn 0.9541 -0.0729 0.2906
vn 0.9111 0.0750 0.4053
vn 0.9226 0.1689 0.3469
vn 0.8966 0.1063 0.4298
vn 0.8893 0.1715 0.4240
vn 0.9616 0.0039 0.2744
vn 0.9785 -0.0380 0.2026
vn 0.8948 0.1946 0.4018
vn 0.8936 0.1690 0.4158
vn 0.9395 0.0582 0.3376
vn 0.9123 0.1158 0.3927
vn 0.5079 -0.5610 0.6537
vn 0.3502 -0.6557 0.6688
vn 0.3546 -0.7438 0.5665
vn 0.3570 -0.8201 0.4473
vn 0.3533 -0.8755 0.3298
vn 0.3446 -0.9204 0.1847
vn 0.4677 -0.3474 0.8128
vn 0.5170 -0.6506 0.5563
vn 0.5244 -0.7277 0.4420
vn 0.5246 -0.7848 0.3299
vn 0.5174 -0.8325 0.1982
vn 0.5602 -0.3773 0.7374
vn 0.5838 -0.5799 0.5683
vn 0.6093 -0.7177 0.3370
vn 0.5988 -0.6607 0.4528
vn 0.1244 -0.8065 0.5779
vn 0.1195 -0.6117 0.7820
vn 0.4965 -0.4589 0.7368
vn 0.3428 -0.5508 0.7610
vn 0.5697 -0.4837 0.6644
vn 0.5407 -0.2727 0.7958
vn 0.3378 -0.9410 0.0189
vn 0.8615 0.1875 0.4719
vn 0.9369 0.0856 0.3391
vn 0.9652 0.0529 0.2560
vn 0.9015 0.1277 0.4135
vn 0.8159 0.2239 0.5330
vn 0.9868 0.0320 0.1590
vn -0.4335 -0.6421 0.6322
vn -0.5486 -0.7454 0.3788
vn -0.5849 -0.7502 0.3085
vn -0.5147 -0.7210 0.4639
vn -0.4143 -0.5899 0.6931
vn -0.4759 -0.6893 0.5463
vn 0.5340 0.5999 -0.5959
vn 0.5770 0.6266 -0.5239
vn 0.6069 0.6721 -0.4243
vn 0.6386 0.7023 -0.3146
vn 1.0000 -0.0000 -0.0000
vn 0.3184 -0.4273 0.8462
vn 0.8706 0.1688 0.4622
vn 0.4416 0.5703 -0.6926
vn 0.8981 0.1668 0.4069
vn 0.7632 -0.6447 0.0440
vn -0.3173 0.4274 -0.8466
vn -0.8746 -0.1600 -0.4577
vn -0.5033 -0.6150 0.6070
vn -0.9034 -0.1410 -0.4049
vn 0.9479 0.1314 0.2903
vn 0.5423 0.6692 0.5080
vn 0.9859 0.0459 0.1612
vn -0.9479 -0.1313 -0.2902
vn -0.5475 -0.6644 -0.5087
vn -0.9859 -0.0459 -0.1612
vn 0.9695 0.0875 0.2291
vn -0.9694 -0.0874 -0.2293
vn 0.6632 0.7127 -0.2284
vn 0.9795 0.0370 0.1980
vn 0.9665 -0.1371 0.2171
vn 0.6124 -0.7601 0.2174
vn -0.6223 -0.7528 0.2144
vn -0.6586 -0.7153 0.2337
vn -0.9789 -0.0264 -0.2028
vn -0.9596 0.1599 -0.2313
vn -0.6324 0.7448 -0.2127
vn 0.6094 0.7611 -0.2222
vt 0.993826 0.014979
vt 0.993925 0.014076
vt 0.994050 0.013229
vt 0.980977 0.010282
vt 0.981680 0.010188
vt 0.982394 0.010104
vt 0.983121 0.010056
vt 0.983876 0.010045
vt 0.997875 0.014857
vt 0.990772 0.002947
vt 0.998260 0.015174
vt 0.991238 0.002967
vt 0.988424 0.007149
vt 0.997125 0.017817
vt 0.997087 0.016432
vt 0.988308 0.005786
vt 0.997059 0.017129
vt 0.988323 0.006476
vt 0.997599 0.016432
vt 0.998056 0.016441
vt 0.997201 0.015768
vt 0.988386 0.005117
vt 0.988515 0.004413
vt 0.997358 0.015071
vt 0.997634 0.015764
vt 0.997584 0.017065
vt 0.997616 0.017694
vt 0.998118 0.015847
vt 0.998043 0.017038
vt 0.998062 0.017619
vt 0.994621 0.015065
vt 0.997109 0.014404
vt 0.985987 0.014963
vt 0.994715 0.014200
vt 0.995508 0.014295
vt 0.996302 0.014368
vt 0.997207 0.013589
vt 0.981896 0.013872
vt 0.985292 0.014855
vt 0.981094 0.011197
vt 0.994826 0.013365
vt 0.981292 0.012123
vt 0.995615 0.013464
vt 0.996407 0.013544
vt 0.981571 0.013015
vt 0.982538 0.013637
vt 0.984618 0.014836
vt 0.981791 0.011066
vt 0.981974 0.011938
vt 0.982233 0.012789
vt 0.983186 0.013405
vt 0.983948 0.014918
vt 0.982489 0.010944
vt 0.982659 0.011771
vt 0.982899 0.012581
vt 0.983834 0.013158
vt 0.983310 0.015096
vt 0.983188 0.010845
vt 0.983345 0.011621
vt 0.983569 0.012389
vt 0.984448 0.012908
vt 0.982721 0.015344
vt 0.983907 0.010773
vt 0.984041 0.011494
vt 0.984238 0.012227
vt 0.989816 0.019761
vt 0.986704 0.013014
vt 0.985471 0.019444
vt 0.982539 0.014445
vt 0.987973 0.019927
vt 0.984871 0.013285
vt 0.988891 0.019889
vt 0.985775 0.013092
vt 0.983997 0.013614
vt 0.987058 0.019844
vt 0.986126 0.016155
vt 0.988430 0.004460
vt 0.986737 0.016370
vt 0.988237 0.005169
vt 0.987356 0.016520
vt 0.988119 0.005892
vt 0.988100 0.006604
vt 0.987966 0.016566
vt 0.988179 0.007287
vt 0.988555 0.016499
vt 0.983227 0.014009
vt 0.986228 0.019675
vt 0.993826 0.014979
vt 0.993925 0.014076
vt 0.980977 0.010282
vt 0.994050 0.013229
vt 0.981680 0.010188
vt 0.982394 0.010104
vt 0.983121 0.010056
vt 0.983876 0.010045
vt 0.997875 0.014857
vt 0.990772 0.002947
vt 0.998260 0.015174
vt 0.991238 0.002967
vt 0.988424 0.007149
vt 0.997125 0.017817
vt 0.997087 0.016432
vt 0.988308 0.005786
vt 0.997059 0.017129
vt 0.988323 0.006476
vt 0.997599 0.016432
vt 0.998056 0.016441
vt 0.997201 0.015768
vt 0.988386 0.005117
vt 0.988515 0.004413
vt 0.997358 0.015071
vt 0.997634 0.015764
vt 0.997584 0.017065
vt 0.997616 0.017694
vt 0.998118 0.015847
vt 0.998043 0.017038
vt 0.998062 0.017619
vt 0.994621 0.015065
vt 0.997109 0.014404
vt 0.985987 0.014963
vt 0.994715 0.014200
vt 0.995508 0.014295
vt 0.996302 0.014368
vt 0.997207 0.013589
vt 0.981896 0.013872
vt 0.985292 0.014855
vt 0.981094 0.011197
vt 0.994826 0.013365
vt 0.981292 0.012123
vt 0.995615 0.013464
vt 0.996407 0.013544
vt 0.981571 0.013015
vt 0.982538 0.013637
vt 0.984618 0.014836
vt 0.981791 0.011066
vt 0.981974 0.011938
vt 0.982233 0.012789
vt 0.983186 0.013405
vt 0.983948 0.014918
vt 0.982489 0.010944
vt 0.982659 0.011771
vt 0.982899 0.012581
vt 0.983834 0.013158
vt 0.983310 0.015096
vt 0.983188 0.010845
vt 0.983345 0.011621
vt 0.983569 0.012389
vt 0.984448 0.012908
vt 0.982721 0.015344
vt 0.983907 0.010773
vt 0.984041 0.011494
vt 0.984238 0.012227
vt 0.989816 0.019761
vt 0.986704 0.013014
vt 0.985471 0.019444
vt 0.982539 0.014445
vt 0.987973 0.019927
vt 0.984871 0.013285
vt 0.988891 0.019889
vt 0.985775 0.013092
vt 0.983997 0.013614
vt 0.987058 0.019844
vt 0.986126 0.016155
vt 0.988430 0.004460
vt 0.986737 0.016370
vt 0.988237 0.005169
vt 0.987356 0.016520
vt 0.988119 0.005892
vt 0.988100 0.006604
vt 0.987966 0.016566
vt 0.988179 0.007287
vt 0.988555 0.016499
vt 0.983227 0.014009
vt 0.986228 0.019675
vt 0.990352 0.002833
vt 0.997595 0.014474
vt 0.988658 0.003794
vt 0.997531 0.014463
vt 0.985545 0.015926
vt 0.988652 0.003795
vt 0.985534 0.016109
vt 0.985359 0.018826
vt 0.985323 0.019386
vt 0.982410 0.014547
vt 0.990790 0.002333
vt 0.984634 0.012837
vt 0.982551 0.015438
vt 0.984111 0.010773
vt 0.983965 0.010052
vt 0.984273 0.011478
vt 0.990902 0.002226
vt 0.984462 0.012204
vt 0.990308 0.002821
vt 0.997566 0.014434
vt 0.988665 0.003762
vt 0.997540 0.014432
vt 0.985516 0.015914
vt 0.988663 0.003762
vt 0.985511 0.015988
vt 0.985331 0.018673
vt 0.985282 0.019370
vt 0.982375 0.014575
vt 0.990793 0.002222
vt 0.984665 0.012825
vt 0.982522 0.015454
vt 0.984140 0.010773
vt 0.983999 0.010054
vt 0.984300 0.011476
vt 0.990799 0.002216
vt 0.984489 0.012202
vt 0.991402 0.002957
vt 0.998405 0.015268
vt 0.991229 0.002576
vt 0.998422 0.015895
vt 0.998429 0.016453
vt 0.998439 0.017003
vt 0.991070 0.002243
vt 0.991412 0.002956
vt 0.998414 0.015273
vt 0.991228 0.002534
vt 0.998424 0.015896
vt 0.998433 0.016454
vt 0.998444 0.017002
vt 0.991099 0.002246
vt 0.997015 0.015238
vt 0.986679 0.015155
vt 0.997654 0.017970
vt 0.994814 0.015084
vt 0.994620 0.015076
vt 0.990192 0.019666
vt 0.987088 0.013023
vt 0.988862 0.016420
vt 0.988259 0.007641
vt 0.995420 0.015112
vt 0.996217 0.015165
vt 0.989334 0.017579
vt 0.988522 0.007494
vt 0.997204 0.018173
vt 0.993821 0.015069
vt 0.998078 0.017753
vt 0.997016 0.015230
vt 0.986673 0.015153
vt 0.997652 0.017957
vt 0.994956 0.015098
vt 0.994620 0.015084
vt 0.990164 0.019673
vt 0.987060 0.013022
vt 0.988866 0.016419
vt 0.988260 0.007646
vt 0.995419 0.015118
vt 0.996216 0.015170
vt 0.989324 0.017565
vt 0.988524 0.007499
vt 0.997205 0.018179
vt 0.993820 0.015078
vt 0.998076 0.017740
vt 0.998407 0.017579
vt 0.998373 0.017583
vt 0.998456 0.017538
vt 0.998453 0.017555
s 0
f 126/189/1 125/188/1 45/63/1 7/8/1
f 6/7/2 41/58/2 37/53/2 5/6/2
f 4/5/3 33/48/3 29/40/3 3/4/3
f 3/3/4 29/41/4 25/34/4 2/2/4
f 23/31/5 1/1/5 2/2/5 25/34/5
f 11/15/6 13/19/6 18/26/6 12/17/6
f 158/229/7 165/239/7 1/1/7 23/31/7
f 123/185/8 8/10/8 117/175/8
f 143/211/9 9/12/9 144/213/9
f 19/27/10 10/14/10 12/17/10 18/26/10
f 15/21/11 17/25/11 13/19/11 11/15/11
f 146/215/12 14/20/12 20/28/12 145/214/12
f 16/24/13 17/25/13 15/21/13
f 17/25/14 8/9/14 9/11/14 20/28/14
f 22/30/15 19/27/15 18/26/15 21/29/15
f 166/240/16 156/227/16 19/27/16 22/30/16
f 143/212/17 145/214/17 20/28/17 9/11/17
f 8/9/18 17/25/18 16/24/18
f 13/19/19 14/20/19 21/29/19 18/26/19
f 14/20/20 13/19/20 17/25/20 20/28/20
f 42/59/21 43/60/21 39/55/21 38/54/21
f 38/54/22 37/53/22 41/58/22 42/59/22
f 34/49/23 33/48/23 37/53/23 38/54/23
f 30/42/24 29/40/24 33/48/24 34/49/24
f 26/35/25 25/34/25 29/41/25 30/43/25
f 157/228/26 23/31/26 25/34/26 26/35/26 161/234/26
f 127/190/27 129/192/27 47/65/27 46/64/27
f 38/54/28 39/55/28 35/50/28 34/49/28
f 34/49/29 35/50/29 31/45/29 30/42/29
f 30/43/30 31/44/30 27/36/30 26/35/30
f 162/235/31 161/234/31 26/35/31 27/36/31
f 47/65/32 44/61/32 40/56/32 43/60/32
f 39/55/33 36/51/33 32/46/33 35/50/33
f 31/44/34 28/37/34 24/32/34 27/36/34
f 35/50/35 32/46/35 28/38/35 31/45/35
f 5/6/36 37/53/36 33/48/36 4/5/36
f 41/58/37 6/7/37 7/8/37 45/63/37
f 43/60/38 42/59/38 46/64/38 47/65/38
f 42/59/39 41/58/39 45/63/39 46/64/39
f 43/60/40 40/56/40 36/51/40 39/55/40
f 129/192/41 124/186/41 44/61/41 47/65/41
f 169/244/42 170/245/42 177/255/42 165/239/42 158/229/42 157/228/42 161/234/42 162/235/42 155/225/42 159/231/42 163/236/42 160/232/42 164/237/42 156/227/42 166/240/42 179/257/42 182/260/42 181/259/42 180/258/42 178/256/42 168/243/42 176/254/42 172/249/42 175/252/42 171/246/42 167/242/42 174/251/42 173/250/42
f 157/228/43 158/229/43 23/31/43
f 181/259/44 182/260/44 147/216/44 146/215/44 145/214/44 143/212/44 144/213/44 148/217/44 154/224/44 150/220/44 149/218/44 151/221/44 152/222/44 153/223/44
f 119/180/45 120/181/45 121/182/45 122/184/45 124/186/45 129/192/45 127/190/45 125/188/45 126/189/45 139/207/45 138/206/45 140/208/45 142/210/45 137/205/45 135/201/45 134/200/45 133/199/45 132/198/45 131/196/45 130/193/45 136/203/45 141/209/45 128/191/45 123/185/45 117/176/45 118/177/45
f 120/181/46 58/87/46 49/68/46 121/182/46
f 55/80/47 51/72/47 50/70/47 54/78/47
f 56/83/48 48/66/48 51/72/48 55/80/48
f 54/78/49 50/70/49 52/75/49 53/76/49
f 122/183/50 121/182/50 49/68/50
f 160/232/51 163/236/51 57/85/51
f 49/69/52 58/86/52 40/57/52 44/62/52
f 50/71/53 51/73/53 28/39/53 32/47/53
f 51/73/54 48/67/54 24/33/54 28/39/54
f 52/74/55 50/71/55 32/47/55 36/52/55
f 122/184/56 49/69/56 44/62/56 124/187/56
f 58/86/57 52/74/57 36/52/57 40/57/57
f 53/77/58 16/23/58 15/22/58 54/79/58
f 54/79/59 15/22/59 11/16/59 55/81/59
f 55/81/60 11/16/60 12/18/60 56/82/60
f 56/82/61 12/18/61 10/13/61 57/84/61
f 139/207/62 65/95/62 103/150/62 138/206/62
f 64/94/63 63/93/63 95/140/63 99/145/63
f 62/92/64 61/90/64 87/127/64 91/135/64
f 61/91/65 60/89/65 83/121/65 87/128/65
f 81/118/66 83/121/66 60/89/66 59/88/66
f 69/102/67 70/104/67 76/113/67 71/106/67
f 170/245/68 81/118/68 59/88/68 177/255/68
f 136/203/69 130/193/69 66/97/69
f 149/218/70 150/220/70 67/99/70
f 77/114/71 76/113/71 70/104/71 68/101/71
f 73/108/72 69/102/72 71/106/72 75/112/72
f 152/222/73 151/221/73 78/115/73 72/107/73
f 74/111/74 73/108/74 75/112/74
f 75/112/75 78/115/75 67/98/75 66/96/75
f 80/117/76 79/116/76 76/113/76 77/114/76
f 178/256/77 80/117/77 77/114/77 168/243/77
f 149/219/78 67/98/78 78/115/78 151/221/78
f 66/96/79 74/111/79 75/112/79
f 71/106/80 76/113/80 79/116/80 72/107/80
f 72/107/81 78/115/81 75/112/81 71/106/81
f 100/146/82 96/141/82 97/142/82 101/147/82
f 96/141/83 100/146/83 99/145/83 95/140/83
f 92/136/84 96/141/84 95/140/84 91/135/84
f 88/129/85 92/136/85 91/135/85 87/127/85
f 84/122/86 88/130/86 87/128/86 83/121/86
f 173/250/87 84/122/87 83/121/87 81/118/87 169/244/87
f 140/208/88 104/151/88 105/152/88 142/210/88
f 96/141/89 92/136/89 93/137/89 97/142/89
f 92/136/90 88/129/90 89/132/90 93/137/90
f 88/130/91 84/122/91 85/123/91 89/131/91
f 174/251/92 85/123/92 84/122/92 173/250/92
f 105/152/93 101/147/93 98/143/93 102/148/93
f 97/142/94 93/137/94 90/133/94 94/138/94
f 89/131/95 85/123/95 82/119/95 86/124/95
f 93/137/96 89/132/96 86/125/96 90/133/96
f 63/93/97 62/92/97 91/135/97 95/140/97
f 99/145/98 103/150/98 65/95/98 64/94/98
f 101/147/99 105/152/99 104/151/99 100/146/99
f 100/146/100 104/151/100 103/150/100 99/145/100
f 101/147/101 97/142/101 94/138/101 98/143/101
f 142/210/102 105/152/102 102/148/102 137/204/102
f 170/245/103 169/244/103 81/118/103
f 133/199/104 134/200/104 107/155/104 116/174/104
f 113/167/105 112/165/105 108/157/105 109/159/105
f 114/170/106 113/167/106 109/159/106 106/153/106
f 112/165/107 111/163/107 110/162/107 108/157/107
f 135/201/108 107/155/108 134/200/108
f 172/248/109 115/172/109 175/252/109
f 107/156/110 102/149/110 98/144/110 116/173/110
f 108/158/111 90/134/111 86/126/111 109/160/111
f 109/160/112 86/126/112 82/120/112 106/154/112
f 110/161/113 94/139/113 90/134/113 108/158/113
f 135/202/114 137/205/114 102/149/114 107/156/114
f 116/173/115 98/144/115 94/139/115 110/161/115
f 111/164/116 112/166/116 73/109/116 74/110/116
f 112/166/117 113/168/117 69/103/117 73/109/117
f 113/168/118 114/169/118 70/105/118 69/103/118
f 114/169/119 115/171/119 68/100/119 70/105/119
f 139/207/120 126/189/120 7/8/120 6/7/120 5/6/120 4/5/120 62/92/120 63/93/120 64/94/120 65/95/120
f 104/151/121 140/208/121 138/206/121 103/150/121
f 111/163/122 132/197/122 133/199/122 116/174/122 110/162/122
f 74/110/123 131/195/123 132/198/123 111/164/123
f 66/96/124 130/194/124 131/196/124 74/111/124
f 148/217/125 128/191/125 141/209/125 154/224/125
f 46/64/126 45/63/126 125/188/126 127/190/126
f 53/76/127 52/75/127 58/87/127 120/181/127 119/179/127
f 16/23/128 53/77/128 119/180/128 118/177/128
f 8/9/129 16/24/129 118/178/129 117/176/129
f 72/107/130 79/116/130 153/223/130 152/222/130
f 66/97/131 67/99/131 150/220/131 154/224/131 141/209/131 136/203/131
f 178/256/132 180/258/132 80/117/132
f 14/20/133 146/215/133 147/216/133 21/29/133
f 8/10/134 123/185/134 128/191/134 148/217/134 144/213/134 9/12/134
f 166/240/135 22/30/135 179/257/135
f 79/116/136 80/117/136 180/258/136 181/259/136 153/223/136
f 21/29/137 147/216/137 182/260/137 179/257/137 22/30/137
f 115/171/138 172/249/138 176/253/138 68/100/138
f 115/172/139 114/170/139 106/153/139 171/246/139 175/252/139
f 68/101/140 176/254/140 168/243/140 77/114/140
f 85/123/141 174/251/141 167/241/141 82/119/141
f 106/154/142 82/120/142 167/242/142 171/247/142
f 2/2/120 1/1/120 165/239/120 177/255/120 59/88/120 60/89/120 61/91/120 62/92/120 4/5/120 3/4/120
f 57/84/143 10/13/143 164/237/143 160/233/143
f 57/85/144 163/236/144 159/230/144 48/66/144 56/83/144
f 10/14/145 19/27/145 156/227/145 164/238/145
f 27/36/146 24/32/146 155/225/146 162/235/146
f 48/67/147 159/231/147 155/226/147 24/33/147
