# Blender 3.4.1
# www.blender.org
mtllib 4.mtl
o Megaman_Zero_Helmet_-_Letter_Foam.007
v -6.384364 0.881703 8.817206
v -5.335399 -2.243207 4.648683
v -4.568738 -2.862909 4.621006
v -6.282134 0.396129 9.188516
v -5.610512 -1.746692 5.050374
v -5.863240 -1.276056 5.505287
v -6.078284 -0.831476 5.996321
v -6.255158 -0.379265 6.542499
v -6.375105 -0.004951 7.135328
v -6.453358 0.416979 7.953900
v -5.850650 2.143442 9.780229
v -5.790422 1.600307 10.176413
v -5.834134 -0.578644 10.488001
v -5.946223 0.003731 10.224158
v -6.061245 0.667356 9.876077
v -6.155879 1.266831 9.502594
v -6.041831 -0.186598 9.773291
v -5.911882 -0.622253 10.146101
v -5.777958 -0.675434 10.548852
v -6.387739 -0.120512 8.373532
v -6.330778 -0.695121 7.624900
v -6.378410 -0.510992 7.441108
v -6.219390 -0.743805 6.696938
v -6.026873 -1.219922 6.222444
v -5.800604 -1.725800 5.732378
v -5.596634 -2.132144 5.348352
v -5.366762 -2.564376 4.959484
v -6.328201 -0.471257 6.986712
v -6.214293 -1.604167 12.360021
v -6.067602 -1.093871 12.131203
v -5.942004 -3.554523 11.810698
v -6.709212 -1.501640 11.516252
v -6.411858 -1.075825 11.604972
v -5.794772 -4.158923 11.228392
v -6.169280 -3.603003 11.257893
v -5.784817 -4.277699 10.735432
v -7.580795 -2.940762 9.344384
v -7.056673 -3.002812 10.195435
v -7.915571 -2.481101 8.866998
v -7.845406 -1.828868 8.388951
v -6.421058 -3.144292 10.325894
v -7.519883 -1.261446 7.907510
v -6.973525 0.243983 8.569937
v -6.604271 -0.648712 7.540765
v -8.191385 -1.659585 7.748059
v -7.249918 -3.411633 5.989762
v -7.414177 -3.699217 6.253328
v -6.670146 -3.979530 5.808091
v -5.373272 -3.300889 5.032111
v -7.881238 -1.517892 8.155538
v -6.864893 -4.209474 6.055815
v -8.343296 -1.976020 7.987078
v -6.434797 -5.798128 7.289370
v -6.894653 -5.701753 7.809365
v -7.986444 -3.445545 9.174864
v -6.415085 -4.050892 5.831910
v -8.012349 -1.813188 8.381776
v -5.932847 -5.877745 7.265651
v -6.587309 -5.954199 7.978133
v -7.742020 -2.904412 9.301403
v -8.133922 -3.315635 9.863734
v -6.115312 -6.024299 7.389997
v -7.717340 -3.983660 10.420738
v -8.012654 -3.762817 10.219784
v -7.882501 -2.792794 9.955791
v -7.773690 -3.245688 10.331319
v -6.164503 -3.721965 10.752069
v -7.505965 -3.458200 10.515821
v -6.050367 -4.909489 5.325266
v -5.676766 -6.358379 6.653029
v -6.402097 -5.054596 5.507682
v -6.259986 -4.404366 5.591603
v -6.078268 -6.313177 6.642266
v -5.821480 -6.078750 7.066613
v -6.261343 -6.054159 7.036378
v -6.646777 -4.594792 5.773583
v -7.226140 -2.401561 10.652387
v -7.780500 -2.090577 10.081018
v -7.734243 -0.424659 8.815203
v -5.955727 -0.882658 11.405311
v -6.443675 0.923600 9.869048
v -6.620922 -2.422076 10.872024
v -4.801484 -3.055020 4.979370
v -4.767937 -3.016799 4.902094
v -4.579898 -2.940313 4.697026
v -4.797132 -3.204139 4.997994
v -5.642432 -6.118432 7.401384
v -5.683753 -6.130734 7.797849
v -5.663414 -6.134346 8.039827
v -5.575847 -5.601983 8.861412
v -5.274779 -5.073792 9.738699
v -5.516091 -6.446408 6.619046
v -5.595721 -6.279912 6.869982
v -5.616382 -6.165917 7.069995
v -4.723078 -3.372026 4.881593
v -4.719481 -3.382044 4.875571
v -5.622145 -6.117379 7.139753
v -5.642568 -5.972395 7.293080
v -5.239717 -5.040001 9.786333
v -5.212372 -5.003590 9.824546
v -6.256621 0.873312 8.794593
v -5.236352 -2.190081 4.714008
v -6.204262 0.292068 9.191168
v -5.490816 -1.720664 5.093911
v -5.740878 -1.251893 5.541943
v -5.953497 -0.811657 6.026905
v -6.128375 -0.366633 6.568313
v -6.246113 -0.000344 7.150814
v -6.323360 0.417517 7.954308
v -5.737969 2.107279 9.726422
v -5.720527 -0.584420 10.425072
v -5.830240 -0.003059 10.165833
v -5.942659 0.657074 9.823813
v -6.034902 1.249851 9.458138
v -6.039827 -0.268276 9.672174
v -5.907900 -0.717845 10.058087
v -5.694162 -0.757582 10.492907
v -6.308810 -0.205470 8.432288
v -6.260018 -0.804099 7.620808
v -6.259168 -0.561299 7.428834
v -6.108165 -0.765003 6.760810
v -5.915806 -1.236828 6.287852
v -5.691231 -1.738404 5.801507
v -5.489361 -2.143459 5.420908
v -5.287397 -2.536663 5.058646
v -6.207621 -0.501561 7.024687
v -6.110625 -1.617429 12.282708
v -6.005148 -1.190899 12.071326
v -5.836244 -3.501499 11.756814
v -6.639993 -1.457974 11.415247
v -6.409209 -1.090389 11.475818
v -5.721167 -4.057819 11.192888
v -6.056210 -3.548369 11.224270
v -5.739838 -4.175154 10.669391
v -7.502579 -3.027773 9.287716
v -7.004398 -3.019582 10.077595
v -7.795926 -2.492922 8.817546
v -7.750761 -1.899409 8.334488
v -6.342355 -3.139846 10.222521
v -7.429461 -1.352720 7.927329
v -6.944798 0.149623 8.654618
v -6.554463 -0.766784 7.562629
v -8.085907 -1.729801 7.777112
v -7.163948 -3.414450 6.087237
v -7.307618 -3.660686 6.317050
v -6.622469 -3.926207 5.916644
v -5.325048 -3.310319 5.152466
v -7.825957 -1.616238 8.090945
v -6.777199 -4.162006 6.139221
v -8.215448 -1.998658 7.980555
v -6.353452 -5.703134 7.324853
v -6.797101 -5.617989 7.828527
v -7.857548 -3.431387 9.184110
v -6.359126 -4.027240 5.946841
v -7.945825 -1.885945 8.297036
v -5.909766 -5.749999 7.272600
v -6.531543 -5.838324 7.959080
v -7.670235 -3.001877 9.253996
v -8.005281 -3.329743 9.851377
v -6.082637 -5.911068 7.444872
v -7.652334 -3.923140 10.325809
v -7.900370 -3.731968 10.161985
v -7.817968 -2.900234 9.921264
v -7.714626 -3.296442 10.227224
v -6.072413 -3.690866 10.665743
v -7.473517 -3.492139 10.394597
v -5.974179 -4.927758 5.429004
v -5.649011 -6.246110 6.593655
v -6.298709 -5.042263 5.585521
v -6.183923 -4.431500 5.693476
v -6.001815 -6.212009 6.613628
v -5.796881 -5.971635 6.997177
v -6.185001 -5.955032 7.001083
v -6.542164 -4.587282 5.850393
v -7.156267 -2.329251 10.569991
v -7.669816 -2.038489 10.037020
v -7.911896 -1.609930 9.573773
v -7.891620 -1.040191 9.171325
v -7.632317 -0.472050 8.880509
v -5.990694 -0.993414 11.346913
v -6.532262 0.832520 9.896560
v -6.535061 -2.358112 10.798291
v -4.771543 -3.012483 5.098509
v -4.705232 -2.941446 4.987475
v -4.517193 -2.864959 4.782406
v -4.787392 -3.229881 5.125047
v -5.620862 -6.002140 7.455338
v -5.658935 -6.003172 7.801310
v -5.636916 -6.013016 8.001399
v -5.550200 -5.496835 8.789396
v -5.253420 -4.968834 9.665026
v -5.467744 -6.336175 6.569942
v -4.500308 -3.805230 4.763992
v -5.550200 -6.172180 6.813222
v -5.571783 -6.059927 7.009356
v -4.708828 -3.436635 4.993497
v -4.705232 -3.446653 4.987475
v -5.578888 -6.013963 7.073921
v -5.605466 -5.849824 7.315438
v -5.239645 -4.938056 9.705666
v -5.228174 -4.906535 9.739513
v -5.601443 -6.494611 6.404280
v -4.530157 -3.709917 4.671035
v -5.468943 -6.527876 6.471771
v -6.240114 -5.372693 5.361341
v -5.115508 -3.909431 4.631445
v -5.190231 -4.004229 4.678132
v -5.973313 -5.102307 5.245465
v -5.841576 -4.896736 5.134469
v -5.936281 -6.497459 6.298586
v -4.496281 -3.813974 4.759601
v -5.566278 -6.388320 6.336279
v -5.414345 -6.424755 6.412393
v -6.116189 -5.397981 5.420118
v -4.673163 -3.870746 4.745013
v -5.046027 -3.992403 4.715741
v -5.067459 -4.019899 4.729360
v -5.875246 -5.169581 5.327250
v -5.714328 -4.914542 5.188731
v -5.851249 -6.405472 6.257317
v -4.502182 -3.793855 4.742687
v -6.388307 1.323577 8.520810
v -6.369144 0.193272 7.052066
v -6.148146 1.832819 9.223195
v -6.450201 0.764267 7.782364
v -6.183972 1.788570 9.159719
v -5.225615 -2.041661 4.328645
v -4.754974 -2.250486 4.133634
v -5.587767 -1.556886 4.900726
v -5.855069 -1.131358 5.411160
v -6.075186 -0.704958 5.930440
v -6.251235 -0.257811 6.483938
v -5.850492 2.191606 9.739055
v -6.260105 1.299783 8.510779
v -6.240448 0.191486 7.070774
v -5.962512 1.873046 9.305919
v -6.320436 0.753447 7.789483
v -6.061287 1.751044 9.130904
v -5.131196 -1.994526 4.405455
v -4.631150 -2.213259 4.202349
v -5.468998 -1.535004 4.948632
v -5.733278 -1.114479 5.453044
v -5.950644 -0.693612 5.965569
v -6.124615 -0.251693 6.512600
v -5.737873 2.143792 9.695196
v -4.436829 -2.545574 4.169432
v -5.765942 1.471392 10.256394
v -5.206937 -4.993151 9.835408
v -5.760847 2.198792 9.900310
v -5.751629 0.906935 10.424330
v -5.377129 -4.428185 10.592177
v -5.320985 -4.597178 10.334739
v -5.224002 -4.930584 9.908639
v -5.768026 1.611184 10.206139
v -5.721271 0.158635 10.579416
v -5.691302 -0.514809 10.703277
v -5.940766 -1.654676 12.694128
v -5.479354 -4.245406 11.116861
v -5.785170 -0.849786 11.410313
v -5.916265 -1.116592 12.307704
v -4.433052 -2.514370 4.133040
v -5.677621 -0.685563 10.698592
v -5.867398 -1.012070 11.970920
v -5.576780 -4.146038 11.650431
v -5.576472 -4.147324 11.649181
v -5.823224 -2.691216 12.461019
v -5.714094 -3.552723 12.199410
v -5.728621 2.023491 9.787623
v -5.730325 1.528242 10.019588
v -4.514452 -2.848006 4.765501
v -5.206214 -4.870744 9.776283
v -5.727485 2.113696 9.740472
v -5.713419 0.835160 10.229757
v -5.378231 -4.306431 10.544169
v -5.321020 -4.477924 10.281528
v -5.208541 -4.862325 9.786325
v -5.685461 0.097657 10.394245
v -5.657363 -0.555749 10.520236
v -5.912249 -1.655980 12.525501
v -5.486688 -4.123130 11.105598
v -5.767498 -0.948156 11.349518
v -5.891902 -1.208443 12.204289
v -4.456978 -2.354796 4.203525
v -5.648642 -0.762188 10.560962
v -5.855301 -1.127721 11.950947
v -5.594802 -3.902622 11.648329
v -4.508895 -2.780950 4.702492
v -5.560933 -4.045632 11.511428
v -5.829595 -2.379808 12.359321
v -5.686510 -3.500397 12.012302
v -4.507576 -2.788807 4.698187
v -4.447033 -2.299722 4.119849
v -5.725394 2.153704 9.710143
v -4.414775 -2.412101 3.978781
v -5.757501 2.265553 9.850546
v -6.933928 0.702900 9.287536
v -6.280532 -0.451677 11.819176
v -7.123822 0.594773 9.017119
v -7.774622 -0.510935 8.861381
v -7.737559 -0.410629 8.831092
v -6.334432 0.223877 11.001688
v -6.473863 0.972520 9.934663
v -6.226717 -0.357868 11.829558
v -6.514049 0.950620 9.876404
v -8.034516 -1.668374 9.550024
v -7.368334 -1.809772 11.044852
v -7.999944 -1.703261 9.656493
v -7.997005 -1.120980 9.051723
v -7.059546 -1.525440 11.370777
v -7.814640 -1.892055 10.229054
v -6.778561 -1.264858 11.665416
v -7.922429 -1.535706 9.637435
v -6.939732 0.626888 9.355530
v -6.367079 -0.511512 11.706996
v -7.104649 0.523300 9.130836
v -7.892219 -1.036537 9.174955
v -7.652328 -0.385948 8.977480
v -6.495369 0.597393 10.284636
v -6.543616 0.850914 9.921216
v -6.302897 -0.406037 11.726098
v -6.557532 0.843337 9.901037
v -7.314061 -1.669881 11.007832
v -7.098852 -1.472314 11.235612
v -7.720813 -1.740552 10.259803
v -6.755647 -1.154816 11.596315
vn -0.9675 -0.0911 -0.2360
vn -0.9845 -0.0449 -0.1698
vn -0.9976 0.0343 0.0596
vn -0.9468 -0.1334 -0.2928
vn -0.8183 0.3718 0.4383
vn -0.8162 0.1846 0.5474
vn 0.9834 0.0742 0.1657
vn -0.9542 0.0311 0.2975
vn -0.9558 -0.0565 0.2886
vn -0.9682 -0.0826 0.2361
vn -0.8217 -0.0966 0.5616
vn -0.8730 0.0815 0.4809
vn -0.9028 0.2811 0.3254
vn -0.8974 -0.3634 0.2504
vn -0.9890 -0.0570 0.1362
vn -0.9802 -0.1857 0.0680
vn -0.9843 -0.0445 -0.1711
vn -0.9655 -0.1976 -0.1697
vn -0.9511 -0.2367 -0.1985
vn -0.9358 -0.2450 -0.2533
vn -0.9212 -0.2406 -0.3058
vn -0.4963 -0.5814 -0.6447
vn -0.1717 0.9477 0.2692
vn -0.7707 -0.2217 0.5974
vn -0.2949 0.9287 0.2248
vn -0.7157 -0.5563 0.4222
vn -0.7519 0.4313 0.4986
vn -0.9053 -0.2727 0.3258
vn -0.2160 -0.9665 0.1387
vn -0.2188 -0.9419 0.2550
vn -0.7362 -0.5316 0.4188
vn -0.9871 -0.0380 -0.1555
vn 0.9382 0.3433 -0.0434
vn 0.2858 0.7909 -0.5411
vn -0.5195 0.8524 0.0592
vn -0.5856 0.3954 -0.7076
vn -0.8652 0.0368 -0.5001
vn -0.4455 -0.1216 -0.8870
vn -0.0477 -0.1023 -0.9936
vn -0.5738 -0.3386 -0.7457
vn -0.7209 0.5988 0.3488
vn -0.6772 -0.5546 -0.4835
vn -0.9238 -0.3520 -0.1504
vn -0.4966 -0.8164 -0.2949
vn -0.6858 -0.6882 0.2368
vn -0.8524 0.4515 -0.2639
vn -0.1965 -0.9799 -0.0336
vn -0.2055 -0.8085 0.5515
vn -0.7835 0.2589 0.5649
vn -0.1860 -0.1296 0.9740
vn -0.5310 0.0619 0.8451
vn -0.0291 0.5890 0.8076
vn -0.6753 0.0350 -0.7367
vn -0.6700 0.1120 -0.7339
vn -0.9074 -0.3851 -0.1681
vn -0.1205 -0.8910 0.4378
vn -0.3594 -0.8264 0.4335
vn -0.5099 0.2188 -0.8319
vn -0.9073 -0.3853 -0.1684
vn -0.0957 -0.8456 0.5251
vn -0.5158 0.3055 -0.8004
vn -0.0852 -0.7270 0.6814
vn -0.9001 -0.3937 -0.1867
vn -0.5257 0.8439 0.1067
vn -0.5147 0.8572 0.0181
vn -0.5599 0.8285 -0.0136
vn 0.2946 0.7705 -0.5653
vn -0.6055 0.4942 -0.6238
vn -0.7893 0.2819 0.5455
vn -0.8025 0.2342 0.5488
vn -0.8174 0.2288 0.5287
vn 0.2678 0.9583 -0.0998
vn -0.0273 0.7105 0.7032
vn 0.0207 0.5896 0.8074
vn 0.0857 0.6044 0.7921
vn -0.1037 0.6891 0.7172
vn -0.3252 -0.7398 0.5891
vn -0.1219 -0.6778 -0.7250
vn -0.1258 -0.5461 -0.8282
vn -0.1022 -0.5793 -0.8087
vn -0.1111 -0.6486 -0.7530
vn -0.0569 -0.7941 0.6052
vn -0.8191 -0.5607 0.1214
vn -0.9374 -0.3372 0.0873
vn -0.0626 0.6217 0.7808
vn -0.7468 -0.4808 0.4594
vn -0.9301 -0.3085 0.1993
vn -0.8127 0.4217 0.4021
vn 0.5001 -0.3734 0.7813
vn -0.2820 -0.5692 0.7723
vn 0.2660 0.8275 -0.4945
vn 0.9164 0.3741 0.1427
vn -0.2861 -0.6282 0.7235
vn -0.1957 0.9617 0.1921
vn 0.9235 0.3681 0.1083
vn -0.9646 -0.1774 -0.1953
vn -0.9914 -0.0630 -0.1151
vn -0.5737 0.4500 -0.6843
vn -0.5676 0.3630 -0.7390
vn -0.5785 0.3878 -0.7176
vn -0.5784 0.4192 -0.6998
vn -0.5755 0.4767 -0.6645
vn -0.9973 -0.0712 -0.0168
vn -0.9219 -0.3638 -0.1336
vn 0.9675 0.0910 0.2359
vn 0.9845 0.0449 0.1697
vn 0.9977 -0.0341 -0.0593
vn 0.9468 0.1335 0.2929
vn 0.8179 -0.3746 -0.4367
vn 0.8268 -0.2687 -0.4942
vn 0.9483 -0.0822 -0.3066
vn 0.9291 -0.0373 -0.3678
vn 0.9140 -0.0384 -0.4038
vn 0.8351 -0.0785 -0.5445
vn 0.8742 -0.0854 -0.4779
vn 0.9028 -0.2809 -0.3256
vn 0.8955 -0.0374 -0.4436
vn 0.9951 -0.0154 -0.0974
vn 0.9988 0.0278 0.0396
vn 0.9833 0.0303 0.1797
vn 0.9658 0.1739 0.1925
vn 0.9515 0.2161 0.2188
vn 0.9355 0.2272 0.2707
vn 0.9236 0.2166 0.3163
vn 0.1771 -0.9449 -0.2755
vn 0.7718 0.2247 -0.5949
vn 0.1421 -0.9557 -0.2577
vn 0.7204 0.5484 -0.4246
vn 0.7327 -0.4130 -0.5409
vn 0.9036 0.2818 -0.3226
vn 0.2150 0.9658 -0.1451
vn 0.2246 0.9437 -0.2429
vn 0.9268 0.3102 -0.2115
vn 0.7419 0.4840 -0.4640
vn 0.9921 0.0360 0.1206
vn 0.8943 -0.2227 0.3882
vn -0.9146 -0.3821 -0.1325
vn -0.2603 -0.8210 0.5081
vn 0.5136 -0.8513 -0.1075
vn 0.5845 -0.3925 0.7102
vn 0.8629 -0.0335 0.5043
vn 0.4443 0.1212 0.8876
vn 0.0328 0.1187 0.9924
vn 0.5698 0.3466 0.7451
vn 0.7019 -0.6076 -0.3716
vn 0.6746 0.5552 0.4865
vn 0.9228 0.3554 0.1486
vn 0.4993 0.8081 0.3125
vn 0.6859 0.6894 -0.2330
vn 0.8699 -0.4211 0.2567
vn 0.1909 0.9812 0.0266
vn 0.1973 0.8088 -0.5540
vn 0.7774 -0.2447 -0.5795
vn 0.1949 0.1022 -0.9755
vn 0.5126 -0.0835 -0.8546
vn 0.0670 -0.6033 -0.7947
vn 0.6794 -0.0305 0.7331
vn 0.6735 -0.1092 0.7311
vn 0.0619 -0.4250 0.9031
vn 0.9067 0.3838 0.1749
vn 0.0660 0.8858 -0.4594
vn 0.3502 0.8287 -0.4366
vn 0.4818 -0.2395 0.8429
vn 0.9069 0.3836 0.1745
vn 0.0397 0.8370 -0.5458
vn 0.4824 -0.2994 0.8232
vn 0.0187 0.7887 -0.6145
vn 0.9071 0.3832 0.1739
vn 0.5149 -0.8489 -0.1193
vn 0.5544 -0.8306 -0.0521
vn 0.5346 -0.8422 -0.0706
vn -0.2307 -0.7866 0.5728
vn 0.6148 -0.4954 0.6136
vn 0.7772 -0.2879 -0.5596
vn 0.8019 -0.2623 -0.5368
vn 0.7886 -0.2680 -0.5535
vn -0.1670 -0.9793 0.1140
vn 0.0546 -0.6422 -0.7646
vn 0.1037 -0.6326 -0.7675
vn 0.0761 -0.6186 -0.7820
vn 0.3327 0.7955 -0.5064
vn 0.1515 0.6241 0.7665
vn 0.1562 0.6384 0.7537
vn 0.1146 0.6657 0.7374
vn 0.1527 0.6265 0.7643
vn 0.0316 0.7916 -0.6102
vn 0.8174 0.5536 -0.1593
vn 0.9327 0.3366 -0.1291
vn 0.0657 -0.5996 -0.7976
vn 0.7500 0.4786 -0.4566
vn 0.9300 0.3080 -0.2004
vn -0.3506 0.3692 -0.8607
vn 0.2842 0.5692 -0.7715
vn -0.2665 -0.8274 0.4944
vn -0.9157 -0.3764 -0.1410
vn 0.2863 0.6057 -0.7424
vn 0.2111 -0.9585 -0.1914
vn -0.9104 -0.3887 -0.1416
vn 0.9653 0.1516 0.2125
vn 0.9902 0.0427 0.1326
vn 0.5722 -0.4524 0.6840
vn 0.5743 -0.3753 0.7275
vn 0.5789 -0.3862 0.7181
vn 0.5763 -0.4211 0.7004
vn 0.5731 -0.4617 0.6770
vn 0.9979 0.0361 0.0546
vn 0.9228 0.3550 0.1495
vn 0.9772 -0.2099 0.0309
vn 0.9230 0.3673 0.1149
vn 0.5860 -0.7708 0.2499
vn 0.9422 -0.3058 -0.1371
vn 0.8938 0.4260 0.1402
vn 0.9281 -0.1921 -0.3188
vn 0.9340 -0.2581 0.2470
vn 0.9102 -0.3040 -0.2812
vn 0.9170 -0.1731 -0.3594
vn 0.9367 -0.2378 0.2570
vn 0.9500 0.3071 0.0564
vn 0.8915 -0.1826 0.4145
vn 0.9343 0.3541 0.0401
vn 0.9728 -0.2087 0.1003
vn 0.9118 -0.2636 0.3149
vn 0.9689 -0.1857 -0.1637
vn 0.7616 -0.6474 0.0282
vn 0.9865 -0.0501 -0.1556
vn 0.9717 -0.2143 -0.0996
vn 0.6762 -0.1724 0.7162
vn 0.5419 0.6710 0.5061
vn 0.1097 -0.4969 0.8609
vn 0.4783 -0.1607 0.8634
vn 0.3801 0.8557 -0.3512
vn 0.2499 -0.5791 -0.7760
vn -0.6777 0.1835 -0.7121
vn -0.5051 0.1406 -0.8515
vn 0.8846 -0.2169 0.4128
vn -0.1299 0.4984 -0.8572
vn -0.3921 -0.8519 0.3470
vn 0.9241 0.1655 0.3445
vn 0.8995 0.1763 0.3997
vn 0.9959 0.0243 0.0872
vn 0.9639 -0.1242 -0.2357
vn -0.9242 -0.1655 -0.3443
vn -0.8966 -0.1813 -0.4041
vn -0.9027 0.1924 0.3850
vn -0.9959 -0.0240 -0.0870
vn -0.9639 0.1241 0.2354
vn 0.0991 0.7892 -0.6061
vn 0.8416 0.2554 -0.4760
vn 0.7545 0.5376 -0.3764
vn 0.5148 0.6284 0.5832
vn 0.1950 -0.9472 -0.2543
vn 0.1970 -0.9604 -0.1968
vn 0.6474 -0.4624 -0.6059
vn 0.8514 -0.0673 -0.5202
vn 0.0040 0.7904 -0.6126
vn 0.1248 0.8430 -0.5232
vn -0.1215 0.7466 -0.6541
vn 0.4823 0.5796 0.6568
vn 0.8666 -0.4116 -0.2820
vn 0.8920 -0.1195 -0.4359
vn 0.9029 -0.1924 -0.3845
vn -0.8424 -0.2518 0.4764
vn -0.7490 -0.5452 0.3765
vn -0.5471 -0.6663 -0.5066
vn -0.1904 0.9501 0.2471
vn -0.1911 0.9624 0.1932
vn -0.6484 0.4613 0.6057
vn -0.8499 0.0653 0.5229
vn -0.0126 -0.7889 0.6144
vn -0.1262 -0.8417 0.5250
vn -0.8241 0.2703 0.4977
vn 0.0966 -0.7479 0.6567
vn -0.8915 0.1179 0.4375
vn 0.8296 -0.5411 -0.1379
vn -0.5204 -0.6246 -0.5823
vn 0.2951 0.5695 -0.7672
vn -0.9123 -0.3839 -0.1427
vn 0.8999 -0.2171 0.3781
vn 0.6403 -0.4885 0.5928
vn -0.3658 0.3689 -0.8545
vn -0.2455 -0.7978 0.5506
vn 0.9926 0.0444 0.1128
vn -0.2891 -0.5713 0.7681
vn -0.9084 -0.3579 0.2162
vn 0.9307 0.3477 0.1132
vn -0.8972 0.1918 -0.3978
vn -0.8992 0.2176 -0.3797
vn -0.6292 0.4954 -0.5990
vn 0.3404 -0.3863 0.8572
vn 0.3013 0.7917 -0.5314
vt 0.998834 0.019594
vt 0.994949 0.010153
vt 0.998645 0.015422
vt 0.991672 0.002940
vt 0.991645 0.002202
vt 0.995415 0.010212
vt 0.999288 0.019628
vt 0.998204 0.006264
vt 0.984856 0.001649
vt 0.998577 0.015920
vt 0.998538 0.016457
vt 0.998528 0.016995
vt 0.998537 0.017564
vt 0.998595 0.018119
vt 0.998717 0.018837
vt 0.994703 0.011372
vt 0.995126 0.011434
vt 0.996357 0.010841
vt 0.995951 0.010848
vt 0.995475 0.010831
vt 0.995023 0.010785
vt 0.995895 0.010370
vt 0.998685 0.006407
vt 0.996278 0.010499
vt 0.982584 0.009864
vt 0.999071 0.006522
vt 0.996473 0.010831
vt 0.982399 0.009524
vt 0.999222 0.018906
vt 0.985421 0.001954
vt 0.999187 0.018112
vt 0.986082 0.002156
vt 0.990228 0.001557
vt 0.990083 0.001395
vt 0.998988 0.018080
vt 0.998813 0.017525
vt 0.993969 0.003617
vt 0.998847 0.016982
vt 0.994425 0.003521
vt 0.998887 0.016413
vt 0.994903 0.003410
vt 0.998923 0.015956
vt 0.995287 0.003310
vt 0.998961 0.015516
vt 0.991981 0.002823
vt 0.989841 0.008242
vt 0.995657 0.003211
vt 0.989892 0.001137
vt 0.998793 0.017828
vt 0.993716 0.003665
vt 0.987142 0.008490
vt 0.987779 0.008833
vt 0.981294 0.009059
vt 0.988087 0.008865
vt 0.985923 0.008473
vt 0.983771 0.003931
vt 0.988009 0.009639
vt 0.987096 0.009338
vt 0.982299 0.001001
vt 0.997901 0.013109
vt 0.981514 0.009602
vt 0.988232 0.009441
vt 0.998182 0.013105
vt 0.995860 0.003423
vt 0.984300 0.003877
vt 0.985798 0.008929
vt 0.984024 0.003554
vt 0.996130 0.003112
vt 0.993324 0.004385
vt 0.984613 0.003628
vt 0.994742 0.009578
vt 0.997965 0.005410
vt 0.999195 0.010034
vt 0.999821 0.010293
vt 0.998105 0.004653
vt 0.981084 0.001736
vt 0.992068 0.001561
vt 0.997907 0.006001
vt 0.991934 0.001986
vt 0.998703 0.010188
vt 0.991512 0.001676
vt 0.998220 0.010329
vt 0.998516 0.004347
vt 0.985819 0.009839
vt 0.980963 0.001186
vt 0.991090 0.001175
vt 0.985968 0.001326
vt 0.991021 0.001590
vt 0.997737 0.010466
vt 0.985151 0.000461
vt 0.985045 0.002381
vt 0.986040 0.002401
vt 0.986146 0.000463
vt 0.990341 0.001344
vt 0.991480 0.000756
vt 0.993682 0.005553
vt 0.990902 0.009658
vt 0.995336 0.005053
vt 0.991127 0.009767
vt 0.995333 0.005337
vt 0.991049 0.009089
vt 0.990300 0.008096
vt 0.996597 0.000235
vt 0.985967 0.006797
vt 0.991428 0.001097
vt 0.991347 0.001458
vt 0.997966 0.001525
vt 0.993217 0.018000
vt 0.991270 0.009198
vt 0.993702 0.005828
vt 0.991711 0.000819
vt 0.995785 0.000148
vt 0.993505 0.016528
vt 0.992531 0.008916
vt 0.992746 0.009435
vt 0.995837 0.007159
vt 0.992679 0.001735
vt 0.994032 0.007229
vt 0.997954 0.001918
vt 0.991086 0.008862
vt 0.996497 0.001423
vt 0.991656 0.001167
vt 0.991575 0.001527
vt 0.995527 0.000366
vt 0.997740 0.003374
vt 0.992604 0.008543
vt 0.992933 0.009243
vt 0.995984 0.007394
vt 0.992414 0.001892
vt 0.997860 0.005483
vt 0.992820 0.002282
vt 0.993701 0.007650
vt 0.992719 0.008733
vt 0.993920 0.008271
vt 0.993199 0.002772
vt 0.993087 0.002523
vt 0.993805 0.008025
vt 0.992555 0.002439
vt 0.997593 0.005004
vt 0.992818 0.002676
vt 0.997563 0.004618
vt 0.993032 0.004107
vt 0.998557 0.003769
vt 0.984366 0.003296
vt 0.985580 0.009329
vt 0.992933 0.002922
vt 0.997675 0.004370
vt 0.997205 0.001308
vt 0.997278 0.002189
vt 0.995626 0.001054
vt 0.998056 0.002781
vt 0.992565 0.017577
vt 0.997284 0.001880
vt 0.997644 0.002048
vt 0.996822 0.001361
vt 0.992868 0.016417
vt 0.995838 0.000895
vt 0.995566 0.000654
vt 0.997878 0.003130
vt 0.995807 0.000498
vt 0.993209 0.016464
vt 0.997630 0.001706
vt 0.992888 0.017803
vt 0.999881 0.010938
vt 0.981639 0.001682
vt 0.999326 0.010967
vt 0.998045 0.011421
vt 0.985099 0.001203
vt 0.998386 0.012822
vt 0.981755 0.009363
vt 0.999924 0.006079
vt 0.984213 0.001694
vt 0.998426 0.005560
vt 0.986428 0.009602
vt 0.981603 0.001135
vt 0.992006 0.002279
vt 0.990000 0.007729
vt 0.991905 0.002266
vt 0.991717 0.002176
vt 0.990130 0.007692
vt 0.985582 0.006772
vt 0.992854 0.008378
vt 0.993071 0.008517
vt 0.996434 0.007934
vt 0.993209 0.008562
vt 0.995997 0.008486
vt 0.995617 0.009216
vt 0.998197 0.002772
vt 0.998094 0.002983
vt 0.998046 0.003156
vt 0.985547 0.006583
vt 0.985545 0.006574
vt 0.998027 0.003215
vt 0.997961 0.003434
vt 0.992727 0.008321
vt 0.995598 0.009250
vt 0.995581 0.009282
vt 0.998834 0.019594
vt 0.994949 0.010153
vt 0.998645 0.015422
vt 0.991672 0.002940
vt 0.995415 0.010212
vt 0.999288 0.019628
vt 0.998204 0.006264
vt 0.984856 0.001649
vt 0.998577 0.015920
vt 0.998538 0.016457
vt 0.998528 0.016995
vt 0.998537 0.017564
vt 0.998595 0.018119
vt 0.998717 0.018837
vt 0.994703 0.011372
vt 0.996357 0.010841
vt 0.995951 0.010848
vt 0.995475 0.010831
vt 0.995023 0.010785
vt 0.995895 0.010370
vt 0.998685 0.006407
vt 0.996278 0.010499
vt 0.982584 0.009864
vt 0.999071 0.006522
vt 0.996473 0.010831
vt 0.982399 0.009524
vt 0.999222 0.018906
vt 0.985421 0.001954
vt 0.999187 0.018112
vt 0.986082 0.002156
vt 0.990228 0.001557
vt 0.990083 0.001395
vt 0.998988 0.018080
vt 0.998813 0.017525
vt 0.993969 0.003617
vt 0.998847 0.016982
vt 0.994425 0.003521
vt 0.998887 0.016413
vt 0.994903 0.003410
vt 0.998923 0.015956
vt 0.995287 0.003310
vt 0.998961 0.015516
vt 0.989841 0.008242
vt 0.995657 0.003211
vt 0.991981 0.002823
vt 0.989892 0.001137
vt 0.998793 0.017828
vt 0.993716 0.003665
vt 0.987142 0.008490
vt 0.987779 0.008833
vt 0.981294 0.009059
vt 0.988087 0.008865
vt 0.985923 0.008473
vt 0.983771 0.003931
vt 0.988009 0.009639
vt 0.987096 0.009338
vt 0.982299 0.001001
vt 0.997901 0.013109
vt 0.981514 0.009602
vt 0.988232 0.009441
vt 0.998182 0.013105
vt 0.995860 0.003423
vt 0.984300 0.003877
vt 0.985798 0.008929
vt 0.984024 0.003554
vt 0.996130 0.003112
vt 0.993324 0.004385
vt 0.984613 0.003628
vt 0.994742 0.009578
vt 0.999195 0.010034
vt 0.997965 0.005410
vt 0.999821 0.010293
vt 0.998105 0.004653
vt 0.981084 0.001736
vt 0.998703 0.010188
vt 0.992068 0.001561
vt 0.997907 0.006001
vt 0.991934 0.001986
vt 0.998220 0.010329
vt 0.991512 0.001676
vt 0.998516 0.004347
vt 0.985819 0.009839
vt 0.980963 0.001186
vt 0.997737 0.010466
vt 0.991090 0.001175
vt 0.985968 0.001326
vt 0.991021 0.001590
vt 0.985151 0.000461
vt 0.985045 0.002381
vt 0.986040 0.002401
vt 0.986146 0.000463
vt 0.990341 0.001344
vt 0.991480 0.000756
vt 0.993682 0.005553
vt 0.990902 0.009658
vt 0.995336 0.005053
vt 0.991127 0.009767
vt 0.995333 0.005337
vt 0.991049 0.009089
vt 0.990300 0.008096
vt 0.996597 0.000235
vt 0.985967 0.006797
vt 0.991428 0.001097
vt 0.991347 0.001458
vt 0.997966 0.001525
vt 0.993217 0.018000
vt 0.991270 0.009198
vt 0.993702 0.005828
vt 0.991711 0.000819
vt 0.995785 0.000148
vt 0.993505 0.016528
vt 0.992531 0.008916
vt 0.992746 0.009435
vt 0.995837 0.007159
vt 0.992679 0.001735
vt 0.994032 0.007229
vt 0.997954 0.001918
vt 0.991086 0.008862
vt 0.996497 0.001423
vt 0.991656 0.001167
vt 0.991575 0.001527
vt 0.995527 0.000366
vt 0.997740 0.003374
vt 0.992604 0.008543
vt 0.992933 0.009243
vt 0.995984 0.007394
vt 0.992414 0.001892
vt 0.997860 0.005483
vt 0.992820 0.002282
vt 0.993701 0.007650
vt 0.992719 0.008733
vt 0.993920 0.008271
vt 0.993199 0.002772
vt 0.993087 0.002523
vt 0.993805 0.008025
vt 0.992555 0.002439
vt 0.997593 0.005004
vt 0.992818 0.002676
vt 0.997563 0.004618
vt 0.993032 0.004107
vt 0.998557 0.003769
vt 0.984366 0.003296
vt 0.985580 0.009329
vt 0.992933 0.002922
vt 0.997675 0.004370
vt 0.997205 0.001308
vt 0.997278 0.002189
vt 0.995626 0.001054
vt 0.998056 0.002781
vt 0.992565 0.017577
vt 0.997284 0.001880
vt 0.997644 0.002048
vt 0.996822 0.001361
vt 0.992868 0.016417
vt 0.995838 0.000895
vt 0.995566 0.000654
vt 0.997878 0.003130
vt 0.995807 0.000498
vt 0.993209 0.016464
vt 0.997630 0.001706
vt 0.992888 0.017803
vt 0.999881 0.010938
vt 0.981639 0.001682
vt 0.999326 0.010967
vt 0.998878 0.011054
vt 0.998452 0.011218
vt 0.998045 0.011421
vt 0.985099 0.001203
vt 0.998386 0.012822
vt 0.981755 0.009363
vt 0.999924 0.006079
vt 0.984213 0.001694
vt 0.998426 0.005560
vt 0.986428 0.009602
vt 0.981603 0.001135
vt 0.990000 0.007729
vt 0.992006 0.002279
vt 0.991905 0.002266
vt 0.991717 0.002176
vt 0.990130 0.007692
vt 0.985582 0.006772
vt 0.992854 0.008378
vt 0.993071 0.008517
vt 0.996434 0.007934
vt 0.993209 0.008562
vt 0.995997 0.008486
vt 0.995617 0.009216
vt 0.998197 0.002772
vt 0.985436 0.006240
vt 0.998094 0.002983
vt 0.998046 0.003156
vt 0.985547 0.006583
vt 0.985545 0.006574
vt 0.998027 0.003215
vt 0.997961 0.003434
vt 0.992727 0.008321
vt 0.995598 0.009250
vt 0.995581 0.009282
vt 0.995666 0.001280
vt 0.998149 0.002577
vt 0.985446 0.006271
vt 0.998254 0.002651
vt 0.992366 0.017408
vt 0.997055 0.001983
vt 0.997110 0.000143
vt 0.985846 0.006209
vt 0.997130 0.000238
vt 0.997344 0.001299
vt 0.997144 0.002233
vt 0.997302 0.001107
vt 0.995872 0.001223
vt 0.992586 0.016404
vt 0.985434 0.006232
vt 0.995668 0.001295
vt 0.998155 0.002564
vt 0.998259 0.002639
vt 0.997025 0.001996
vt 0.992340 0.017386
vt 0.985564 0.006212
vt 0.997145 0.000136
vt 0.985837 0.006169
vt 0.997151 0.000164
vt 0.997383 0.001297
vt 0.997107 0.002246
vt 0.997329 0.001053
vt 0.992570 0.016403
vt 0.995874 0.001241
vt 0.985436 0.006240
vt 0.998492 0.019575
vt 0.994587 0.010138
vt 0.998464 0.018143
vt 0.994625 0.010828
vt 0.998477 0.018862
vt 0.994620 0.010762
vt 0.998405 0.015268
vt 0.991402 0.002957
vt 0.991229 0.002576
vt 0.998422 0.015895
vt 0.998429 0.016453
vt 0.998439 0.017003
vt 0.998454 0.017574
vt 0.994663 0.011366
vt 0.994595 0.010138
vt 0.998500 0.019576
vt 0.998467 0.018142
vt 0.994642 0.010950
vt 0.998482 0.018862
vt 0.994629 0.010763
vt 0.998414 0.015273
vt 0.991412 0.002956
vt 0.991228 0.002534
vt 0.998424 0.015896
vt 0.998433 0.016454
vt 0.998444 0.017002
vt 0.998457 0.017573
vt 0.994672 0.011367
vt 0.991254 0.002254
vt 0.995223 0.011446
vt 0.995576 0.009294
vt 0.994725 0.011496
vt 0.995573 0.011356
vt 0.996410 0.003269
vt 0.995026 0.009726
vt 0.995210 0.009583
vt 0.995521 0.009338
vt 0.995133 0.011464
vt 0.996017 0.011199
vt 0.996413 0.011047
vt 0.987158 0.008138
vt 0.987711 0.008489
vt 0.996081 0.003543
vt 0.981830 0.009224
vt 0.981241 0.008878
vt 0.988054 0.008678
vt 0.991222 0.002265
vt 0.996541 0.010957
vt 0.982347 0.009390
vt 0.981476 0.008986
vt 0.984115 0.004199
vt 0.995750 0.003788
vt 0.984116 0.004199
vt 0.986527 0.008105
vt 0.983613 0.004247
vt 0.985985 0.008115
vt 0.994770 0.011382
vt 0.995111 0.011340
vt 0.991702 0.002181
vt 0.995565 0.009322
vt 0.994706 0.011387
vt 0.995549 0.011228
vt 0.996385 0.003255
vt 0.995001 0.009713
vt 0.995188 0.009583
vt 0.995558 0.009327
vt 0.995994 0.011079
vt 0.996382 0.010934
vt 0.987154 0.008229
vt 0.987729 0.008578
vt 0.996025 0.003513
vt 0.981841 0.009204
vt 0.981254 0.008921
vt 0.988062 0.008723
vt 0.991224 0.002358
vt 0.996504 0.010889
vt 0.982375 0.009462
vt 0.981428 0.009005
vt 0.984027 0.004131
vt 0.991645 0.002207
vt 0.995776 0.003702
vt 0.984160 0.004123
vt 0.986695 0.008210
vt 0.983665 0.004143
vt 0.985965 0.008232
vt 0.991645 0.002202
vt 0.991157 0.002376
vt 0.994673 0.011385
vt 0.991095 0.002296
vt 0.994673 0.011493
vt 0.984522 0.002134
vt 0.998539 0.013378
vt 0.984755 0.000465
vt 0.984649 0.002365
vt 0.998103 0.011392
vt 0.998050 0.011437
vt 0.985085 0.001201
vt 0.999284 0.005472
vt 0.984154 0.001698
vt 0.998447 0.005496
vt 0.998600 0.013388
vt 0.999938 0.005460
vt 0.984185 0.001739
vt 0.998871 0.011018
vt 0.999912 0.011481
vt 0.982104 0.001653
vt 0.998947 0.011041
vt 0.998425 0.011115
vt 0.982303 0.001312
vt 0.999351 0.011154
vt 0.982490 0.001021
vt 0.997998 0.013302
vt 0.998893 0.011127
vt 0.984497 0.002170
vt 0.998507 0.013354
vt 0.984728 0.000465
vt 0.984621 0.002364
vt 0.998453 0.011222
vt 0.998077 0.011516
vt 0.985012 0.001192
vt 0.998737 0.005528
vt 0.984191 0.001695
vt 0.998434 0.005536
vt 0.998587 0.013354
vt 0.999937 0.005498
vt 0.984202 0.001712
vt 0.999916 0.011545
vt 0.982158 0.001650
vt 0.982304 0.001409
vt 0.999364 0.011248
vt 0.982537 0.001026
vt 0.998022 0.013350
s 0
f 231/437/1 7/12/1 8/13/1 232/438/1
f 223/428/2 232/438/2 8/13/2 9/14/2
f 222/426/3 225/430/3 10/15/3 1/1/3
f 230/436/4 6/11/4 7/12/4 231/437/4
f 295/515/5 233/439/5 11/16/5 249/457/5
f 254/463/6 12/17/6 247/455/6
f 246/454/7 261/472/7 294/514/7 292/512/7 283/500/7 287/505/7 270/484/7 291/511/7
f 4/6/8 15/20/8 16/21/8 1/2/8
f 15/20/9 4/6/9 17/22/9 14/19/9
f 14/19/10 17/22/10 18/24/10 13/18/10
f 256/465/11 13/18/11 19/27/11 262/473/11
f 250/458/12 15/20/12 14/19/12 255/464/12
f 224/429/13 11/16/13 233/439/13
f 19/27/14 13/18/14 18/24/14
f 20/29/15 4/7/15 1/1/15 10/15/15
f 22/35/16 21/31/16 20/29/16
f 8/13/17 28/49/17 9/14/17
f 7/12/18 24/38/18 23/36/18 8/13/18
f 6/11/19 25/40/19 24/38/19 7/12/19
f 25/40/20 6/11/20 5/10/20 26/42/20
f 27/44/21 26/42/21 5/10/21 2/3/21
f 27/45/22 2/4/22 3/5/22 85/179/22 84/178/22 83/176/22
f 257/466/7 266/479/7 267/481/7 264/476/7 265/478/7 258/468/7 251/459/7 252/461/7 253/462/7 248/456/7 271/485/7 276/491/7 275/490/7 274/489/7 280/496/7 288/506/7 286/504/7 290/509/7 289/508/7 279/494/7 282/499/7 285/503/7 281/497/7 284/502/7 278/493/7 277/492/7 273/487/7 269/483/7 268/482/7 272/486/7 293/513/7 295/515/7 249/457/7 254/463/7 247/455/7 250/458/7 255/464/7 256/465/7 262/473/7 259/469/7 263/475/7 260/470/7
f 260/470/23 263/475/23 30/53/23
f 266/479/24 257/466/24 29/51/24
f 30/53/25 80/170/25 33/61/25
f 264/476/26 267/480/26 31/56/26
f 32/57/27 29/52/27 30/54/27 33/62/27
f 31/55/28 32/58/28 82/174/28 35/66/28
f 258/468/29 265/477/29 34/64/29
f 251/459/30 258/468/30 34/64/30 36/68/30
f 38/74/31 77/164/31 78/166/31 37/73/31
f 305/529/32 308/533/32 40/82/32 39/80/32
f 81/173/33 17/23/33 4/8/33
f 296/516/34 304/528/34 81/172/34 4/9/34
f 42/86/35 28/48/35 45/95/35
f 46/98/36 45/96/36 25/41/36
f 45/96/37 46/98/37 47/100/37 52/110/37
f 48/101/38 46/97/38 27/46/38 49/102/38
f 86/180/39 49/102/39 27/46/39 83/177/39
f 51/109/40 47/99/40 46/97/40 48/101/40
f 50/105/41 45/95/41 52/111/41 57/122/41
f 51/109/42 53/114/42 54/115/42 47/99/42
f 55/118/43 52/110/43 47/100/43 54/116/43
f 59/127/44 54/115/44 53/114/44 62/133/44
f 54/116/45 59/128/45 63/134/45 64/137/45
f 60/129/46 55/117/46 61/131/46 65/138/46
f 59/127/47 62/133/47 87/182/47 88/183/47 89/185/47
f 91/187/48 36/71/48 63/134/48 59/128/48 89/184/48 90/186/48
f 61/131/49 64/136/49 66/140/49 65/138/49
f 63/135/50 36/69/50 67/142/50 68/146/50
f 64/136/51 63/135/51 68/146/51 66/140/51
f 68/147/52 67/143/52 41/83/52 38/75/52
f 209/407/53 208/405/53 69/148/53
f 207/404/54 209/407/54 69/148/54 72/155/54
f 205/400/55 210/409/55 73/156/55 71/152/55
f 210/408/56 202/396/56 70/150/56 73/157/56
f 94/190/57 74/159/57 70/151/57 92/188/57 93/189/57
f 72/154/58 69/149/58 71/153/58 76/162/58
f 71/152/59 73/156/59 75/161/59 76/163/59
f 73/157/60 70/150/60 74/158/60 75/160/60
f 56/119/61 72/154/61 76/162/61 51/107/61
f 75/160/62 74/158/62 58/124/62 53/112/62
f 76/163/63 75/161/63 53/113/63 51/108/63
f 42/86/64 45/95/64 50/105/64
f 28/48/65 44/94/65 22/34/65
f 42/86/66 44/94/66 28/48/66
f 20/30/67 21/32/67 44/92/67 43/91/67
f 43/90/68 44/93/68 42/87/68 79/168/68
f 57/122/69 52/111/69 39/77/69
f 39/77/70 55/117/70 60/129/70
f 39/77/71 52/111/71 55/117/71
f 65/139/72 38/75/72 37/72/72 60/130/72
f 39/78/73 60/130/73 37/72/73
f 39/79/74 40/81/74 57/123/74
f 40/81/75 42/88/75 50/106/75 57/123/75
f 21/33/76 22/34/76 44/94/76
f 98/194/77 58/125/77 74/159/77 94/190/77 97/193/77
f 51/109/78 48/101/78 56/120/78
f 62/133/79 53/114/79 58/126/79
f 58/126/80 98/195/80 87/182/80 62/133/80
f 48/101/81 49/102/81 56/120/81
f 36/71/82 91/187/82 99/196/82
f 34/65/83 35/67/83 67/144/83 36/70/83
f 41/84/84 67/145/84 35/66/84 82/174/84
f 38/75/85 65/139/85 66/141/85 68/147/85
f 310/535/86 78/166/86 77/164/86 306/530/86
f 310/535/87 307/532/87 78/166/87
f 317/544/88 315/542/88 313/539/88 321/551/88 319/548/88 318/546/88 320/549/88 314/540/88 297/517/88 303/527/88 301/523/88 302/524/88 304/528/88 296/516/88 298/518/88 300/521/88 299/520/88 308/533/88 305/529/88 307/532/88 312/538/88 316/543/88
f 297/517/89 33/63/89 80/169/89 303/526/89
f 309/534/90 32/59/90 311/536/90
f 304/528/91 302/524/91 81/172/91
f 301/523/92 81/173/92 302/525/92
f 324/555/88 312/538/88 307/532/88 310/535/88 306/531/88 309/534/88 311/537/88 297/517/88 314/540/88 325/556/88 323/554/88 322/552/88
f 38/76/93 41/85/93 82/175/93 77/165/93
f 18/25/94 80/170/94 19/28/94
f 80/171/95 18/26/95 17/23/95
f 23/36/96 28/49/96 8/13/96
f 9/14/97 28/49/97 22/35/97
f 24/39/98 45/96/98 23/37/98
f 26/43/99 27/47/99 46/98/99
f 25/41/100 26/43/100 46/98/100
f 25/41/101 45/96/101 24/39/101
f 23/37/102 45/96/102 28/50/102
f 22/35/103 20/29/103 10/15/103 9/14/103
f 55/118/104 54/116/104 64/137/104 61/132/104
f 243/451/105 244/452/105 107/209/105 106/208/105
f 235/442/106 108/210/106 107/209/106 244/452/106
f 234/441/107 101/198/107 109/211/107 237/444/107
f 242/450/108 243/451/108 106/208/108 105/207/108
f 293/513/109 272/486/109 110/212/109 245/453/109
f 268/482/110 110/212/110 272/486/110
f 103/202/111 101/199/111 114/216/111 113/215/111
f 113/215/112 112/214/112 115/217/112 103/202/112
f 112/214/113 111/213/113 116/219/113 115/217/113
f 278/493/114 284/501/114 117/222/114 111/213/114
f 273/487/115 277/492/115 112/214/115 113/215/115
f 236/443/116 245/453/116 110/212/116
f 117/222/117 116/219/117 111/213/117
f 118/224/118 109/211/118 101/198/118 103/203/118
f 120/230/119 118/224/119 119/226/119
f 107/209/120 108/210/120 126/244/120
f 106/208/121 107/209/121 121/231/121 122/233/121
f 105/207/122 106/208/122 122/233/122 123/235/122
f 123/235/123 124/237/123 104/206/123 105/207/123
f 125/239/124 102/200/124 104/206/124 124/237/124
f 285/503/125 282/498/125 128/248/125
f 289/508/126 127/246/126 279/494/126
f 128/248/127 131/256/127 180/367/127
f 286/504/128 129/251/128 290/509/128
f 130/252/129 131/257/129 128/249/129 127/247/129
f 129/250/130 133/261/130 182/371/130 130/253/130
f 280/496/131 132/259/131 288/506/131
f 280/496/132 274/488/132 134/263/132 132/259/132
f 137/272/133 177/362/133 176/361/133 135/267/133
f 136/269/134 135/267/134 176/361/134 175/359/134
f 177/362/135 137/272/135 138/276/135 178/363/135
f 138/276/136 140/281/136 179/364/136 178/363/136
f 181/370/137 103/204/137 115/218/137
f 313/539/138 103/205/138 181/369/138 321/551/138
f 140/282/139 143/290/139 126/243/139
f 144/293/140 123/236/140 143/291/140
f 143/291/141 150/305/141 145/295/141 144/293/141
f 146/296/142 147/297/142 125/240/142 144/292/142
f 186/377/143 183/373/143 125/240/143 147/297/143
f 149/304/144 146/296/144 144/292/144 145/294/144
f 148/300/145 155/317/145 150/306/145 143/290/145
f 149/304/146 145/294/146 152/310/146 151/309/146
f 153/313/147 152/311/147 145/295/147 150/305/147
f 157/322/148 160/328/148 151/309/148 152/310/148
f 152/311/149 162/332/149 161/329/149 157/323/149
f 158/324/150 163/333/150 159/326/150 153/312/150
f 157/322/151 189/382/151 188/380/151 187/379/151 160/328/151
f 191/384/152 190/383/152 189/381/152 157/323/152 161/329/152 134/266/152
f 159/326/153 163/333/153 164/335/153 162/331/153
f 161/330/154 166/341/154 165/337/154 134/264/154
f 162/331/155 164/335/155 166/341/155 161/330/155
f 166/342/156 136/270/156 139/278/156 165/338/156
f 219/422/157 167/343/157 218/420/157
f 217/419/158 170/350/158 167/343/158 219/422/158
f 215/416/159 211/410/159 193/386/159
f 214/415/160 169/347/160 171/351/160 220/423/160
f 220/424/161 171/352/161 168/345/161 212/411/161
f 195/388/162 194/387/162 192/385/162 168/346/162 172/354/162
f 170/349/163 174/357/163 169/348/163 167/344/163
f 169/347/164 174/358/164 173/356/164 171/351/164
f 171/352/165 173/355/165 172/353/165 168/345/165
f 154/314/166 149/302/166 174/357/166 170/349/166
f 173/355/167 151/307/167 156/319/167 172/353/167
f 174/358/168 149/303/168 151/308/168 173/356/168
f 140/282/169 148/300/169 143/290/169
f 126/243/170 120/229/170 142/289/170
f 140/282/171 126/243/171 142/289/171
f 118/225/172 141/286/172 142/287/172 119/227/172
f 141/285/173 179/365/173 140/283/173 142/288/173
f 155/317/174 137/273/174 150/306/174
f 137/273/175 158/324/175 153/312/175
f 137/273/176 153/312/176 150/306/176
f 163/334/177 158/325/177 135/268/177 136/270/177
f 137/274/178 135/268/178 158/325/178
f 137/275/179 155/318/179 138/277/179
f 138/277/179 155/318/179 148/301/179 140/284/179
f 119/228/180 142/289/180 120/229/180
f 199/392/181 198/391/181 195/388/181 172/354/181 156/320/181
f 149/304/182 154/315/182 146/296/182
f 160/328/183 156/321/183 151/309/183
f 156/321/184 160/328/184 187/379/184 199/393/184
f 146/296/185 154/315/185 147/297/185
f 134/266/186 200/394/186 191/384/186
f 132/260/187 134/265/187 165/339/187 133/262/187
f 139/279/188 182/371/188 133/261/188 165/340/188
f 136/270/189 166/342/189 164/336/189 163/334/189
f 324/555/190 322/552/190 175/359/190 176/361/190
f 312/538/191 324/555/191 176/361/191 177/362/191
f 320/549/192 180/366/192 131/258/192 314/540/192
f 323/554/193 325/556/193 130/254/193
f 321/551/194 181/369/194 319/547/194
f 318/546/195 319/548/195 181/370/195
f 136/271/196 175/360/196 182/372/196 139/280/196
f 116/220/197 117/223/197 180/367/197
f 180/368/198 115/218/198 116/221/198
f 121/231/199 107/209/199 126/244/199
f 108/210/200 120/230/200 126/244/200
f 122/234/201 121/232/201 143/291/201
f 124/238/202 144/293/202 125/241/202
f 123/236/203 144/293/203 124/238/203
f 123/236/204 122/234/204 143/291/204
f 121/232/205 126/245/205 143/291/205
f 120/230/206 108/210/206 109/211/206 118/224/206
f 153/313/207 159/327/207 162/332/207 152/311/207
f 90/186/208 89/184/208 189/381/208 190/383/208
f 211/410/209 221/425/209 193/386/209
f 84/178/210 85/179/210 185/376/210 184/375/210
f 91/187/211 90/186/211 190/383/211 191/384/211
f 203/398/212 96/192/212 197/390/212 193/386/212 221/425/212
f 100/197/213 99/196/213 200/394/213 201/395/213
f 94/190/214 93/189/214 194/387/214 195/388/214
f 99/196/215 91/187/215 191/384/215 200/394/215
f 248/456/216 100/197/216 201/395/216 271/485/216
f 97/193/217 94/190/217 195/388/217 198/391/217
f 96/192/218 95/191/218 196/389/218 197/390/218
f 93/189/219 92/188/219 192/385/219 194/387/219
f 95/191/220 86/181/220 186/378/220 196/389/220
f 88/183/221 87/182/221 187/379/221 188/380/221
f 98/194/222 97/193/222 198/391/222 199/392/222
f 87/182/223 98/195/223 199/393/223 187/379/223
f 83/176/224 84/178/224 184/375/224 183/374/224
f 86/180/225 83/177/225 183/373/225 186/377/225
f 89/185/226 88/183/226 188/380/226 189/382/226
f 170/350/227 217/419/227 216/417/227 147/298/227 154/316/227
f 292/512/228 240/448/228 283/500/228
f 197/390/229 196/389/229 186/378/229 147/299/229 216/418/229 215/416/229 193/386/229
f 167/344/230 169/348/230 214/414/230 218/421/230
f 192/385/231 213/413/231 212/412/231 168/346/231
f 216/418/232 217/419/232 219/422/232 218/421/232 214/415/232 220/424/232 212/412/232 213/413/232 204/399/232 202/396/232 210/409/232 205/401/232 208/405/232 209/407/232 207/404/232 206/403/232 203/398/232 221/425/232 211/410/232 215/416/232
f 72/155/233 56/121/233 49/103/233 206/402/233 207/404/233
f 69/149/234 208/406/234 205/401/234 71/153/234
f 92/188/235 204/399/235 213/413/235 192/385/235
f 96/192/236 203/398/236 206/403/236 49/104/236 86/181/236 95/191/236
f 92/188/237 70/151/237 202/397/237 204/399/237
f 105/207/238 104/206/238 241/449/238 242/450/238
f 102/200/239 239/446/239 241/449/239 104/206/239
f 108/210/240 235/442/240 237/444/240 109/211/240
f 101/199/241 234/440/241 238/445/241 114/216/241
f 6/11/242 230/436/242 229/435/242 5/10/242
f 2/3/243 5/10/243 229/435/243 227/432/243
f 11/16/244 224/429/244 226/431/244 16/21/244 12/17/244
f 9/14/245 10/15/245 225/430/245 223/428/245
f 1/2/246 16/21/246 226/431/246 222/427/246
f 293/513/247 245/453/247 236/443/247 238/445/247 234/441/247 237/444/247 235/442/247 244/452/247 243/451/247 242/450/247 241/449/247 239/447/247 240/448/247 292/512/247 294/514/247 228/434/247 227/432/247 229/435/247 230/436/247 231/437/247 232/438/247 223/428/247 225/430/247 222/427/247 226/431/247 224/429/247 233/439/247 295/515/247
f 129/250/248 130/253/248 127/246/248 289/508/248 290/510/248
f 132/260/249 133/262/249 129/251/249 286/504/249 288/507/249
f 102/201/250 287/505/250 283/500/250 240/448/250 239/447/250
f 128/248/251 180/367/251 281/497/251 285/503/251
f 180/367/252 117/223/252 284/502/252 281/497/252
f 127/247/253 128/249/253 282/499/253 279/495/253
f 111/213/254 112/214/254 277/492/254 278/493/254
f 134/266/255 275/490/255 276/491/255
f 134/266/256 274/489/256 275/490/256
f 134/266/257 276/491/257 271/485/257 201/395/257 200/394/257
f 125/242/258 183/374/258 184/375/258 185/376/258 270/484/258 287/505/258 102/201/258
f 85/179/259 3/5/259 291/511/259 270/484/259 185/376/259
f 113/215/260 114/216/260 269/483/260 273/487/260
f 110/212/261 268/482/261 269/483/261 114/216/261 238/445/261 236/443/261
f 31/55/262 267/481/262 266/479/262 29/51/262 32/58/262
f 34/65/263 265/478/263 264/476/263 31/56/263 35/67/263
f 228/434/264 294/514/264 261/472/264
f 30/53/265 263/475/265 259/469/265 80/170/265
f 80/170/266 259/469/266 262/474/266 19/28/266
f 29/52/267 257/467/267 260/471/267 30/54/267
f 13/18/268 256/465/268 255/464/268 14/19/268
f 36/71/269 253/462/269 252/461/269
f 36/71/270 252/461/270 251/460/270
f 12/17/271 254/463/271 249/457/271 11/16/271
f 36/71/272 99/196/272 100/197/272 248/456/272 253/462/272
f 15/20/273 250/458/273 247/455/273 12/17/273 16/21/273
f 3/5/274 246/454/274 291/511/274
f 2/4/275 227/433/275 228/434/275 261/472/275 246/454/275 3/5/275
f 182/372/276 175/360/276 322/553/276 323/554/276 130/254/276
f 115/218/277 180/368/277 320/550/277 318/546/277 181/370/277
f 179/364/278 317/544/278 316/543/278 178/363/278
f 179/365/279 141/285/279 315/541/279 317/545/279
f 131/258/280 130/255/280 325/557/280 314/540/280
f 103/205/281 313/539/281 315/542/281 141/286/281 118/225/281
f 178/363/282 316/543/282 312/538/282 177/362/282
f 82/175/283 32/59/283 309/534/283 306/531/283 77/165/283
f 39/80/284 37/73/284 78/166/284 307/532/284 305/529/284
f 17/23/285 81/173/285 301/523/285 303/527/285 80/171/285
f 40/82/286 308/533/286 299/520/286 79/167/286 42/89/286
f 79/167/287 299/520/287 300/521/287
f 79/168/288 300/522/288 298/518/288 43/90/288
f 33/63/289 297/517/289 311/537/289 32/60/289
f 4/9/290 20/30/290 43/91/290 298/519/290 296/516/290
