# Blender 3.4.1
# www.blender.org
mtllib 5.mtl.mtl
o Megaman_Zero_Helmet_-_Letter_Foam.006
v 0.000000 -1.221263 1.924165
v 0.000000 -0.201494 1.870386
v 0.000000 0.797274 1.723007
v 0.000000 1.772043 1.484802
v 0.000000 2.734311 1.137490
v 0.000000 -4.696165 1.295200
v 0.000000 -1.520050 3.155910
v 0.000000 -2.121485 3.491546
v 0.000000 -3.933594 3.027948
v 0.000000 -4.533949 2.403434
v -1.690226 -1.159296 1.722669
v -3.274687 3.159309 0.072093
v -2.802492 -1.067179 1.373932
v -0.637591 -0.201234 1.843098
v -1.270006 -0.200529 1.765030
v -1.384596 0.767741 1.604183
v -0.695447 0.789636 1.692234
v -1.499682 1.710210 1.353327
v -0.753861 1.756030 1.450752
v -1.608991 2.637346 0.997790
v -0.809510 2.709185 1.101311
v -1.709436 3.550159 0.524596
v -4.901313 2.613917 -0.895874
v -4.768603 1.980598 -0.418880
v -4.599855 1.289276 -0.017586
v -4.401430 0.551531 0.318720
v -4.173873 -0.209828 0.584833
v -5.422986 2.407029 -1.411669
v -5.329926 1.823944 -0.976141
v -5.201211 1.156488 -0.579056
v -5.033422 0.456158 -0.242285
v -4.819886 -0.266184 0.050634
v -5.670652 0.969594 -1.196035
v -5.510260 0.303939 -0.851095
v -5.354082 -0.364100 -0.552219
v -5.189003 -0.734887 -0.335957
v -3.098257 2.383496 0.559235
v -2.904647 1.543822 0.953316
v -2.699834 0.690599 1.248238
v -2.488984 -0.193199 1.453381
v -4.033235 2.847974 -0.265079
v -3.832497 2.160353 0.228440
v -3.615835 1.405086 0.635992
v -3.385963 0.612991 0.958487
v -3.146455 -0.211454 1.192358
v -4.548440 -0.821381 0.275638
v -3.879287 -0.929760 0.789900
v -0.573425 -1.213210 1.902858
v -0.445257 -4.695869 1.281684
v -0.681370 -1.517634 3.143142
v -1.313751 -4.683148 1.164365
v -0.704510 -2.117426 3.475759
v -2.044280 -1.485823 2.961643
v -2.205739 -4.639793 0.945085
v -0.589004 -3.930684 3.012901
v -1.762155 -3.895225 2.863395
v -2.114602 -2.068496 3.269794
v -3.352854 -1.411322 2.520675
v -1.650690 -4.502558 2.274711
v -0.551967 -4.531682 2.391509
v -3.493319 -1.964316 2.789613
v -3.159223 -4.532049 0.546422
v -2.985928 -3.805900 2.523967
v -2.779453 -4.428380 2.015083
v -4.329786 -3.660167 1.880859
v -4.961776 -1.806453 1.922104
v -4.755994 -1.276860 1.708019
v -3.648998 -4.463450 0.243634
v -4.015406 -4.294511 1.491092
v -4.941071 -3.595290 1.412216
v -4.632338 -4.220719 1.064803
v -5.614882 -1.714852 1.328434
v -5.384529 -1.196422 1.164100
v -4.091079 -4.412958 -0.117144
v -5.513864 -3.551142 0.777160
v -5.165286 -4.166502 0.516300
v -4.444980 -4.398213 -0.495429
v -4.726532 -4.451819 -0.913087
v -5.576001 -4.147299 -0.113665
v -2.509953 3.375655 0.330697
v -2.366112 2.522946 0.809565
v -2.209454 1.637746 1.181170
v -2.044157 0.734075 1.451569
v -1.877058 -0.197951 1.631891
v -0.888822 -4.692012 1.236696
v -1.102971 -4.521707 2.346694
v -1.175580 -3.918525 2.957729
v -1.409901 -2.100292 3.404461
v -1.363583 -1.506579 3.081899
v -1.133434 -1.191332 1.834080
v -1.741534 -4.668338 1.071891
v -2.203503 -4.472599 2.169120
v -2.362270 -3.858352 2.721997
v -2.817095 -2.022404 3.062824
v -2.707714 -1.454116 2.774906
v -2.236529 -1.120362 1.573162
v -2.657274 -4.597764 0.783031
v -3.381290 -4.368619 1.798599
v -3.647865 -3.737158 2.252891
v -4.225089 -1.890075 2.419271
v -4.054606 -1.351257 2.164749
v -3.101274 -1.023205 1.218851
v -3.391962 -0.175534 1.061775
v -3.627472 0.634777 0.815701
v -3.852611 1.414018 0.482922
v -4.058151 2.150479 0.068314
v -4.245189 2.818477 -0.431621
v -2.929424 -0.991133 1.115917
v -3.173687 -0.217465 0.958925
v -3.404776 0.576347 0.725721
v -3.626193 1.340270 0.406946
v -3.834441 2.063510 0.005574
v -4.025989 2.722646 -0.477663
v -4.871401 -4.606008 -1.329501
v -4.876499 -4.612979 -1.347491
v -2.813887 -5.073141 0.542960
v -2.511562 -5.078374 0.687593
v -2.981468 -5.056240 0.462468
v -0.198862 -5.001008 1.208482
v -0.425809 -5.039960 1.188583
v -0.003891 -4.970316 1.225669
v -1.125610 -4.949297 1.126193
v -1.261958 -4.985568 1.089381
v -0.850867 -5.020242 1.150863
v -1.895292 -5.036294 0.917689
v -1.657431 -5.038347 0.982246
v -2.100163 -5.023636 0.861911
v -3.271152 -4.987799 0.307614
v -3.446492 -5.013796 0.178836
v -3.211751 -4.973550 0.351245
v -4.739164 -4.584440 -1.011973
v -4.809374 -4.535050 -1.088541
v -4.655533 -4.657568 -0.916676
v -3.892469 -4.916354 -0.149936
v -3.714310 -4.966185 -0.018435
v -4.108908 -4.810123 -0.317267
v -4.288462 -4.810826 -0.513564
v -4.091030 -4.808164 -0.297768
v -4.445746 -4.749002 -0.686515
v -5.059259 -4.777450 -1.655114
v -5.193095 -4.966566 -1.900682
v -1.456587 -5.013836 1.036658
v -2.339584 -5.038064 0.769551
v -2.209721 -4.997802 0.831676
v 0.000000 -1.306358 1.825886
v 0.000000 -0.216186 1.741219
v 0.000000 0.772187 1.595451
v 0.000000 1.734325 1.360394
v 0.000000 2.683178 1.017968
v 0.000000 -4.596426 1.211820
v 0.000000 -1.622662 3.076095
v 0.000000 -2.137646 3.362554
v 0.000000 -3.868254 2.915561
v 0.000000 -4.417792 2.345058
v -1.671093 -1.243068 1.625118
v -3.216188 3.100337 -0.027908
v -2.760197 -1.159313 1.292553
v -0.626868 -0.215784 1.714359
v -1.248204 -0.214633 1.637650
v -1.361079 0.743280 1.478691
v -0.684000 0.764688 1.565163
v -1.474045 1.673463 1.231293
v -0.741486 1.718532 1.326893
v -1.581044 2.587673 0.880949
v -0.796140 2.658385 0.982399
v -1.678956 3.487413 0.414897
v -4.813516 2.562103 -0.976539
v -4.683162 1.940788 -0.508407
v -4.517051 1.260737 -0.113653
v -4.321660 0.533375 0.217690
v -4.097522 -0.218654 0.479988
v -5.322192 2.361775 -1.480172
v -5.230274 1.790745 -1.052740
v -5.103328 1.134058 -0.661613
v -4.938493 0.442313 -0.330017
v -4.729703 -0.273838 -0.042687
v -5.678639 1.575484 -1.648891
v -5.560732 0.953775 -1.263616
v -5.403055 0.294114 -0.923969
v -5.250235 -0.370944 -0.630123
v -5.116107 -0.816070 -0.406635
v -3.044906 2.336147 0.450554
v -2.855842 1.508311 0.838177
v -2.655300 0.666563 1.128491
v -2.448233 -0.206946 1.330700
v -3.926298 2.822914 -0.334625
v -3.728483 2.143648 0.152268
v -3.514584 1.396739 0.554882
v -3.287668 0.612732 0.873411
v -3.050761 -0.203611 1.104715
v -4.486382 -0.900114 0.192875
v -3.829492 -1.010179 0.700720
v -0.567396 -1.298261 1.804727
v -0.439081 -4.596032 1.198653
v -0.678206 -1.619822 3.062843
v -1.294774 -4.583634 1.082900
v -0.696909 -2.133235 3.346948
v -2.030324 -1.586951 2.881155
v -2.173442 -4.540508 0.867629
v -0.581680 -3.865430 2.900703
v -1.736774 -3.831390 2.753028
v -2.086138 -2.083691 3.143863
v -3.326458 -1.512164 2.442995
v -1.635415 -4.387524 2.216111
v -0.547538 -4.415675 2.333003
v -3.443020 -1.981004 2.670906
v -3.109916 -4.432317 0.479173
v -2.940554 -3.746147 2.417804
v -2.750394 -4.315613 1.957298
v -4.260165 -3.605181 1.785835
v -4.885456 -1.824193 1.818371
v -4.714380 -1.376482 1.635605
v -3.592941 -4.363190 0.182760
v -3.970371 -4.184460 1.438552
v -4.857369 -3.541883 1.328300
v -4.578789 -4.112271 1.017141
v -5.523781 -1.731471 1.237194
v -5.332371 -1.295127 1.097490
v -4.029848 -4.312584 -0.172604
v -5.417252 -3.498416 0.707977
v -5.104372 -4.059540 0.474483
v -4.380668 -4.297895 -0.547391
v -4.660039 -4.353381 -0.965894
v -5.511008 -4.041835 -0.153077
v -2.464329 3.314950 0.225182
v -2.324424 2.474573 0.696330
v -2.171375 1.601742 1.062201
v -2.009410 0.709988 1.328636
v -1.845077 -0.211704 1.506639
v -0.875796 -4.592171 1.154464
v -1.093287 -4.405984 2.288261
v -1.159466 -3.853643 2.846235
v -1.392373 -2.115678 3.276571
v -1.355552 -1.608266 3.001306
v -1.120807 -1.275736 1.736015
v -1.716748 -4.569032 0.991742
v -2.181722 -4.358602 2.110551
v -2.326966 -3.796278 2.613368
v -2.777293 -2.037937 2.940048
v -2.687399 -1.554916 2.695366
v -2.211470 -1.203441 1.476364
v -2.616267 -4.498475 0.709817
v -3.344442 -4.257139 1.742791
v -3.591491 -3.679955 2.150665
v -4.163092 -1.907901 2.306406
v -4.021766 -1.451774 2.089132
v -3.093474 -1.125118 1.138519
v -3.377181 -0.204549 0.935921
v -3.609209 0.594749 0.693371
v -3.831460 1.361431 0.365929
v -4.035004 2.084458 -0.041256
v -4.219487 2.738825 -0.531095
v -2.865396 -1.036626 1.012329
v -3.111388 -0.227442 0.845262
v -3.338293 0.557158 0.615667
v -3.556930 1.309786 0.301241
v -3.762669 2.021386 -0.094297
v -3.952028 2.668103 -0.569614
v -4.838266 -4.487479 -1.371367
v -4.855688 -4.496134 -1.400538
v -2.758152 -5.031062 0.433311
v -2.461755 -5.036351 0.575105
v -2.921203 -5.013988 0.355310
v -0.194971 -4.960131 1.085137
v -0.417359 -4.998881 1.065534
v -1.104003 -4.907495 1.005008
v -1.237350 -4.943666 0.968804
v -0.834317 -4.978748 1.028779
v -1.861145 -4.994435 0.799445
v -1.626916 -4.996414 0.863038
v -2.062000 -4.981738 0.744914
v -3.203336 -4.945406 0.205127
v -3.373467 -4.971003 0.080163
v -3.143935 -4.931157 0.248758
v -4.635022 -4.534982 -1.072041
v -4.705232 -4.485592 -1.148610
v -4.555438 -4.610891 -0.985250
v -3.809632 -4.872885 -0.240205
v -3.634763 -4.923030 -0.111762
v -4.019350 -4.766155 -0.400609
v -4.195342 -4.766203 -0.592542
v -4.001471 -4.764195 -0.381112
v -4.347465 -4.703534 -0.758441
v -5.052813 -4.671815 -1.730611
v -5.204364 -4.867729 -1.984374
v -1.429431 -4.971868 0.916654
v -2.295444 -4.996191 0.654666
v -2.165581 -4.955929 0.716792
v 0.000000 -4.970334 1.225721
v -3.321019 3.359016 -0.091091
v -4.114279 3.120354 -0.531526
v -2.532282 3.508745 0.232794
v -5.431456 2.524825 -1.522298
v 0.000000 3.568746 0.724801
v -4.932493 2.802011 -1.079799
v -0.858983 3.616814 0.647004
v -1.191798 3.613298 0.588029
v -1.715123 3.602668 0.488654
v -4.312939 3.047878 -0.658372
v -4.102777 2.975327 -0.718500
v -3.258061 3.284511 -0.177822
v -3.999630 3.071223 -0.576766
v -2.483496 3.431226 0.139823
v -5.329904 2.467841 -1.579904
v 0.000000 3.488179 0.619885
v -4.842487 2.738050 -1.148378
v -0.843603 3.535405 0.543505
v -1.328385 3.530348 0.457688
v -1.682767 3.523182 0.390439
v -4.286983 2.968327 -0.757722
v -4.024042 2.905895 -0.796045
v -0.003803 -4.969395 1.053954
v 0.000000 -4.969409 1.053407
v -5.765943 1.471398 -1.507364
v -5.206938 -4.993153 -1.928348
v -5.760849 2.198791 -1.863446
v -5.751630 0.906934 -1.339427
v -5.377131 -4.428185 -1.171577
v -5.320986 -4.597177 -1.429015
v -5.224005 -4.930581 -1.855113
v -5.768027 1.611183 -1.557618
v -5.721272 0.158634 -1.184340
v -5.691304 -0.514810 -1.060480
v -5.940767 -1.654675 0.930372
v -5.479356 -4.245405 -0.646891
v -5.785172 -0.849787 -0.353441
v -5.916266 -1.116592 0.543947
v -5.677623 -0.685562 -1.065165
v -5.867399 -1.012071 0.207167
v -5.576781 -4.146035 -0.113322
v -5.576473 -4.147324 -0.114575
v -5.823225 -2.691211 0.697263
v -5.714095 -3.552723 0.435655
v -5.728622 2.023500 -1.976138
v -5.730326 1.528241 -1.744169
v -5.206215 -4.870745 -1.987473
v -5.727486 2.113695 -2.023285
v -5.713420 0.835159 -1.533999
v -5.378232 -4.306430 -1.219585
v -5.321022 -4.477922 -1.482225
v -5.208544 -4.862322 -1.977426
v -5.685462 0.097657 -1.369511
v -5.657365 -0.555750 -1.243520
v -5.912250 -1.655980 0.761745
v -5.486690 -4.123130 -0.658154
v -5.767499 -0.948156 -0.414236
v -5.891904 -1.208443 0.440534
v -5.648643 -0.762188 -1.202795
v -5.855302 -1.127722 0.187195
v -5.594804 -3.902620 -0.115424
v -5.560935 -4.045632 -0.252330
v -5.829597 -2.379803 0.595565
v -5.686511 -3.500397 0.248546
v -5.725395 2.153702 -2.053613
v -5.757502 2.265552 -1.913210
vn -0.1211 0.0516 0.9913
vn -0.0397 0.0545 0.9977
vn 0.0991 0.7892 -0.6061
vn -0.7035 0.2392 0.6692
vn -0.0439 0.1469 0.9882
vn -0.3840 0.1335 0.9136
vn -0.2212 0.1405 0.9651
vn -0.1257 0.1451 0.9814
vn -0.4172 0.2206 0.8816
vn -0.2414 0.2296 0.9429
vn -0.1355 0.2359 0.9623
vn -0.0473 0.2383 0.9700
vn -0.4522 0.3050 0.8382
vn -0.2645 0.3254 0.9078
vn -0.1466 0.3360 0.9304
vn -0.0511 0.3401 0.9390
vn -0.2891 0.4231 0.8587
vn -0.0550 0.4436 0.8945
vn -0.3077 0.5255 0.7932
vn -0.7176 0.4326 0.5458
vn -0.7182 0.3273 0.6140
vn -0.6804 0.1613 0.7148
vn -0.6542 0.0885 0.7511
vn -0.8199 0.2621 0.5089
vn -0.8009 0.1020 0.5900
vn -0.7727 0.0634 0.6316
vn -0.9834 -0.0742 -0.1657
vn -0.8448 0.0506 0.5326
vn -0.8854 0.1118 0.4512
vn -0.4893 0.3949 0.7776
vn -0.6085 0.4785 0.6331
vn -0.5962 0.3832 0.7055
vn -0.5764 0.2862 0.7654
vn -0.5562 0.2004 0.8065
vn -0.5333 0.1160 0.8379
vn -0.7187 -0.0075 0.6953
vn -0.5018 0.0125 0.8649
vn -0.6236 -0.0132 0.7816
vn 0.0017 0.9715 0.2371
vn -0.0157 0.4863 0.8736
vn -0.0052 0.9686 0.2487
vn -0.0244 -0.2482 0.9684
vn -0.1413 0.4786 0.8666
vn -0.0239 0.9632 0.2676
vn -0.1794 -0.2515 0.9511
vn -0.1283 -0.7079 0.6946
vn -0.0197 -0.7200 0.6937
vn -0.2942 0.4769 0.8283
vn -0.0623 0.9564 0.2853
vn -0.3488 -0.2406 0.9058
vn -0.2579 -0.6721 0.6941
vn -0.4452 0.4865 0.7517
vn -0.1053 -0.9853 0.1348
vn -0.0498 -0.9883 0.1438
vn -0.0062 -0.9894 0.1453
vn -0.5277 -0.2185 0.8209
vn -0.4125 -0.6288 0.6591
vn -0.1678 -0.9809 0.0983
vn -0.0969 0.9525 0.2888
vn -0.6436 -0.2167 0.7341
vn -0.5112 -0.6082 0.6073
vn -0.5471 0.4762 0.6884
vn -0.1790 -0.9806 0.0802
vn -0.6163 -0.5850 0.5272
vn -0.6420 0.4705 0.6054
vn -0.1781 -0.9809 0.0780
vn -0.8338 -0.2544 0.4900
vn -0.1750 -0.9795 0.0997
vn -0.7305 -0.5574 0.3946
vn -0.4320 -0.2889 0.8543
vn -0.0358 -0.2557 0.9661
vn -0.1658 -0.2612 0.9509
vn -0.2649 -0.2762 0.9239
vn -0.5258 -0.2909 0.7993
vn -0.8915 -0.0831 0.4453
vn -0.6156 -0.2988 0.7292
vn -0.6952 -0.2984 0.6540
vn -0.7656 -0.3000 0.5691
vn -0.1262 -0.8417 0.5250
vn -0.0126 -0.7889 0.6144
vn 0.1080 -0.7433 0.6602
vn -0.1904 0.9501 0.2471
vn -0.1911 0.9624 0.1932
vn -0.4048 0.5113 0.7581
vn -0.3798 0.4156 0.8265
vn -0.3476 0.3206 0.8811
vn -0.3171 0.2293 0.9203
vn -0.2895 0.1407 0.9468
vn -0.2707 0.0443 0.9617
vn -0.0985 -0.2638 0.9595
vn -0.0269 -0.9890 0.1452
vn -0.0749 -0.7166 0.6935
vn -0.0999 -0.2508 0.9629
vn -0.0735 0.4832 0.8724
vn 0.0004 0.9703 0.2417
vn -0.2150 -0.2722 0.9379
vn -0.0737 -0.9872 0.1416
vn -0.1893 -0.6925 0.6962
vn -0.2650 -0.2485 0.9317
vn -0.2185 0.4754 0.8522
vn -0.0148 0.9664 0.2564
vn -0.2041 0.0462 0.9779
vn -0.3508 0.0408 0.9356
vn -0.3458 -0.2806 0.8954
vn -0.1386 -0.9829 0.1214
vn -0.3301 -0.6502 0.6843
vn -0.4263 -0.2279 0.8754
vn -0.3588 0.4846 0.7978
vn -0.0422 0.9597 0.2780
vn -0.9261 -0.2823 0.2503
vn 0.4496 0.3106 0.8375
vn -0.0075 0.9582 0.2861
vn 0.4417 0.3724 0.8163
vn -0.9621 -0.2459 0.1175
vn 0.4233 0.4536 0.7843
vn -0.9658 -0.2338 0.1124
vn 0.4169 0.5307 0.7379
vn -0.9696 -0.2210 0.1054
vn -0.9722 -0.2130 0.0968
vn 0.4180 0.6147 0.6689
vn -0.9746 -0.2039 0.0922
vn 0.1210 -0.0766 -0.9897
vn 0.0395 -0.0792 -0.9961
vn 0.7034 -0.2393 -0.6693
vn 0.0439 -0.1468 -0.9882
vn 0.3644 -0.1404 -0.9206
vn 0.2213 -0.1404 -0.9651
vn 0.1256 -0.1450 -0.9814
vn 0.3995 -0.2275 -0.8881
vn 0.2415 -0.2295 -0.9429
vn 0.1354 -0.2358 -0.9623
vn 0.0473 -0.2382 -0.9701
vn 0.4363 -0.3119 -0.8440
vn 0.2646 -0.3253 -0.9078
vn 0.1465 -0.3359 -0.9304
vn 0.0512 -0.3400 -0.9390
vn 0.2893 -0.4230 -0.8587
vn 0.0550 -0.4436 -0.8945
vn 0.3078 -0.5261 -0.7928
vn 0.7172 -0.4327 -0.5462
vn 0.7182 -0.3274 -0.6141
vn 0.6803 -0.1613 -0.7150
vn 0.6541 -0.0883 -0.7512
vn 0.8124 -0.1811 -0.5543
vn 0.8012 -0.1017 -0.5897
vn 0.7729 -0.0633 -0.6313
vn 0.8455 -0.0532 -0.5314
vn 0.8881 -0.1109 -0.4461
vn 0.4753 -0.4019 -0.7827
vn 0.6221 -0.4685 -0.6273
vn 0.6098 -0.3742 -0.6987
vn 0.5893 -0.2782 -0.7585
vn 0.5687 -0.1935 -0.7995
vn 0.5459 -0.1098 -0.8306
vn 0.7176 -0.0449 -0.6950
vn 0.5204 -0.0432 -0.8528
vn 0.6235 -0.0266 -0.7814
vn -0.0017 -0.9691 -0.2465
vn 0.0158 -0.4853 -0.8742
vn 0.0060 -0.9662 -0.2578
vn 0.0245 0.2505 -0.9678
vn 0.1416 -0.4776 -0.8671
vn 0.0298 -0.9616 -0.2727
vn 0.1798 0.2539 -0.9504
vn 0.1285 0.7067 -0.6958
vn 0.0197 0.7193 -0.6944
vn 0.2949 -0.4755 -0.8288
vn 0.0573 -0.9537 -0.2954
vn 0.3491 0.2433 -0.9050
vn 0.2582 0.6694 -0.6966
vn 0.4454 -0.4866 -0.7515
vn 0.1074 0.9838 -0.1433
vn 0.0507 0.9868 -0.1539
vn 0.0065 0.9877 -0.1561
vn 0.5279 0.2213 -0.8199
vn 0.4135 0.6246 -0.6625
vn 0.1712 0.9797 -0.1040
vn 0.1015 -0.9493 -0.2974
vn 0.6439 0.2196 -0.7329
vn 0.5130 0.6033 -0.6106
vn 0.5475 -0.4756 -0.6885
vn 0.1825 0.9796 -0.0846
vn 0.6194 0.5790 -0.5302
vn 0.6427 -0.4696 -0.6053
vn 0.1812 0.9801 -0.0814
vn 0.8331 0.2579 -0.4894
vn 0.1776 0.9788 -0.1025
vn 0.7375 0.5499 -0.3920
vn 0.4287 0.3237 -0.8435
vn 0.1662 0.3215 -0.9322
vn 0.2627 0.3220 -0.9096
vn 0.5217 0.3261 -0.7884
vn 0.8011 0.3804 -0.4621
vn 0.6119 0.3320 -0.7179
vn 0.6889 0.3382 -0.6411
vn 0.7560 0.3498 -0.5533
vn 0.1248 0.8430 -0.5232
vn 0.0040 0.7904 -0.6126
vn -0.1215 0.7466 -0.6541
vn 0.1950 -0.9472 -0.2543
vn 0.1970 -0.9604 -0.1968
vn 0.4045 -0.5115 -0.7581
vn 0.3797 -0.4155 -0.8265
vn 0.3476 -0.3205 -0.8812
vn 0.3170 -0.2293 -0.9203
vn 0.2894 -0.1406 -0.9468
vn 0.2699 -0.0704 -0.9603
vn 0.0984 0.3171 -0.9433
vn 0.0277 0.9874 -0.1556
vn 0.0750 0.7157 -0.6944
vn 0.1002 0.2531 -0.9622
vn 0.0736 -0.4823 -0.8729
vn -0.0002 -0.9680 -0.2509
vn 0.2089 0.3228 -0.9231
vn 0.0750 0.9857 -0.1511
vn 0.1895 0.6906 -0.6980
vn 0.2654 0.2510 -0.9309
vn 0.2191 -0.4742 -0.8527
vn 0.0164 -0.9640 -0.2653
vn 0.2037 -0.0719 -0.9764
vn 0.3319 -0.0710 -0.9406
vn 0.3395 0.3221 -0.8837
vn 0.1414 0.9816 -0.1287
vn 0.3307 0.6467 -0.6874
vn 0.4264 0.2306 -0.8747
vn 0.3593 -0.4842 -0.7978
vn 0.0481 -0.9599 -0.2762
vn 0.9401 0.2364 -0.2456
vn -0.3505 -0.2971 -0.8882
vn 0.1080 -0.8952 -0.4325
vn -0.3160 -0.3540 -0.8803
vn 0.9494 0.2071 -0.2360
vn -0.2936 -0.4431 -0.8470
vn 0.9566 0.1846 -0.2254
vn -0.2832 -0.5286 -0.8003
vn 0.9636 0.1599 -0.2143
vn 0.9700 0.1380 -0.2001
vn -0.2784 -0.6225 -0.7314
vn 0.9760 0.1119 -0.1866
vn 0.9109 -0.2399 -0.3357
vn -0.1201 -0.9193 -0.3748
vn -0.0165 -0.9470 -0.3207
vn -0.0045 -1.0000 -0.0054
vn 0.2852 -0.9379 -0.1975
vn 0.3392 -0.9272 -0.1590
vn 0.2523 -0.9401 -0.2292
vn 0.2960 -0.9386 -0.1771
vn 0.8895 -0.3309 -0.3151
vn 0.7019 -0.6872 -0.1873
vn 0.0875 -0.9333 -0.3482
vn 0.0951 -0.9032 -0.4186
vn 0.3148 -0.9139 -0.2562
vn -0.2082 -0.9149 -0.3459
vn 0.8799 -0.3139 -0.3567
vn 0.2128 -0.9360 -0.2805
vn 0.1261 -0.9461 -0.2983
vn 0.0627 -0.9410 -0.3325
vn 0.0549 -0.8154 -0.5763
vn -0.0225 -0.7834 -0.6211
vn 0.3196 -0.9242 -0.2090
vn 0.3719 -0.9089 -0.1884
vn 0.0769 -0.9466 -0.3131
vn 0.0299 -0.9445 -0.3271
vn -0.1183 -0.8936 -0.4331
vn 0.0967 -0.8894 -0.4467
vn 0.1881 -0.9347 -0.3015
vn 0.0498 -0.9890 -0.1394
vn 0.0356 -0.9156 -0.4005
vn -0.0898 -0.8508 -0.5177
vn 0.1925 -0.9396 -0.2831
vn 1.0000 -0.0000 -0.0000
vn -0.2724 -0.7105 -0.6489
vn 0.1670 -0.5443 -0.8221
vn 0.1578 -0.4378 -0.8851
vn 0.8994 -0.1880 -0.3947
vn 0.5094 -0.4995 -0.7007
vn 0.4173 0.6941 0.5866
vn -0.1671 0.5445 0.8219
vn -0.1580 0.4379 0.8850
vn -0.5231 0.4921 0.6958
vn 0.0287 0.3150 -0.9486
vn -0.1301 0.3876 -0.9126
vn 0.7072 0.5606 -0.4308
vn 0.1600 -0.9470 -0.2786
vn 0.1730 0.9665 -0.1894
vn 0.7507 0.2307 -0.6191
vn 0.8331 -0.0410 -0.5516
vn 0.1740 0.9312 -0.3203
vn 0.8651 -0.0645 -0.4974
vn 0.8190 -0.3637 -0.4439
vn 0.8204 -0.2630 -0.5076
vn -0.7003 -0.5697 0.4301
vn -0.1534 0.9499 0.2723
vn -0.1704 -0.9674 0.1875
vn -0.7489 -0.2280 0.6222
vn -0.8284 -0.0557 0.5574
vn -0.1687 -0.9251 0.3401
vn -0.8628 0.0611 0.5019
vn -0.8192 0.3631 0.4440
vn 0.9334 -0.1621 -0.3201
vn -0.8122 0.1812 0.5545
vt 0.982542 0.004129
vt 0.993500 0.010893
vt 0.993541 0.011666
vt 0.993576 0.012374
vt 0.993609 0.013093
vt 0.993624 0.013847
vt 0.982508 0.009347
vt 0.997795 0.007874
vt 0.988379 0.003252
vt 0.981757 0.003593
vt 0.987007 0.002675
vt 0.988027 0.003107
vt 0.985913 0.002789
vt 0.983272 0.009466
vt 0.997204 0.008525
vt 0.983786 0.009344
vt 0.982068 0.005410
vt 0.992268 0.011059
vt 0.991253 0.014522
vt 0.991452 0.011247
vt 0.989761 0.007272
vt 0.981885 0.006331
vt 0.993093 0.011700
vt 0.992643 0.011746
vt 0.992605 0.012442
vt 0.993090 0.012406
vt 0.992555 0.013135
vt 0.993081 0.013115
vt 0.992492 0.013846
vt 0.993057 0.013849
vt 0.992414 0.014589
vt 0.994923 0.012558
vt 0.995430 0.012669
vt 0.995949 0.012738
vt 0.996473 0.012769
vt 0.996992 0.012781
vt 0.994809 0.011963
vt 0.995268 0.012049
vt 0.995761 0.012103
vt 0.996256 0.012131
vt 0.996759 0.012152
vt 0.995598 0.011493
vt 0.996078 0.011529
vt 0.996546 0.011535
vt 0.982091 0.008740
vt 0.996872 0.011568
vt 0.991395 0.013853
vt 0.991528 0.013179
vt 0.991652 0.012528
vt 0.991759 0.011877
vt 0.989346 0.004034
vt 0.990678 0.014477
vt 0.990852 0.013846
vt 0.989296 0.004680
vt 0.991014 0.013205
vt 0.989317 0.005329
vt 0.991168 0.012580
vt 0.989400 0.005965
vt 0.991304 0.011961
vt 0.989545 0.006582
vt 0.997208 0.012196
vt 0.981952 0.008035
vt 0.997532 0.012786
vt 0.981872 0.007349
vt 0.993089 0.010929
vt 0.982351 0.004543
vt 0.982472 0.008985
vt 0.997587 0.007603
vt 0.988224 0.003784
vt 0.981521 0.004083
vt 0.982417 0.008272
vt 0.997227 0.007022
vt 0.987051 0.003250
vt 0.987869 0.003655
vt 0.987985 0.004881
vt 0.981147 0.005126
vt 0.982369 0.007524
vt 0.996905 0.006373
vt 0.983196 0.008992
vt 0.985949 0.003269
vt 0.983098 0.008033
vt 0.986012 0.004232
vt 0.987126 0.004412
vt 0.987636 0.004787
vt 0.987864 0.006008
vt 0.980951 0.006238
vt 0.996469 0.007469
vt 0.983612 0.007999
vt 0.996942 0.008189
vt 0.983714 0.008898
vt 0.987177 0.005605
vt 0.987527 0.005974
vt 0.996636 0.005590
vt 0.982321 0.006681
vt 0.983068 0.006996
vt 0.986070 0.005268
vt 0.996050 0.006653
vt 0.983561 0.007050
vt 0.986111 0.006485
vt 0.983146 0.005782
vt 0.987194 0.007000
vt 0.987546 0.007369
vt 0.980949 0.007572
vt 0.987870 0.007343
vt 0.996544 0.005130
vt 0.982314 0.006209
vt 0.983601 0.005948
vt 0.995707 0.005626
vt 0.983264 0.005173
vt 0.986098 0.007110
vt 0.983697 0.005343
vt 0.995617 0.005020
vt 0.987630 0.008080
vt 0.987178 0.007718
vt 0.987940 0.008019
vt 0.981056 0.008242
vt 0.996506 0.004664
vt 0.982337 0.005742
vt 0.983475 0.004524
vt 0.986040 0.007800
vt 0.995632 0.004393
vt 0.983870 0.004749
vt 0.982395 0.005321
vt 0.996524 0.004239
vt 0.982512 0.004925
vt 0.996607 0.003831
vt 0.984116 0.004200
vt 0.995750 0.003789
vt 0.991831 0.014555
vt 0.991943 0.013846
vt 0.992043 0.013156
vt 0.992132 0.012483
vt 0.992206 0.011805
vt 0.982442 0.008623
vt 0.997396 0.007315
vt 0.996698 0.007835
vt 0.983657 0.008449
vt 0.983139 0.008516
vt 0.985981 0.003749
vt 0.987091 0.003828
vt 0.987738 0.004214
vt 0.988092 0.004326
vt 0.981315 0.004593
vt 0.982196 0.004969
vt 0.992678 0.010985
vt 0.982394 0.007915
vt 0.997067 0.006717
vt 0.996253 0.007081
vt 0.983579 0.007539
vt 0.983073 0.007531
vt 0.986041 0.004734
vt 0.987155 0.005009
vt 0.987565 0.005380
vt 0.987909 0.005440
vt 0.981025 0.005675
vt 0.981967 0.005860
vt 0.991862 0.011145
vt 0.982345 0.007134
vt 0.996765 0.006018
vt 0.995864 0.006175
vt 0.983564 0.006526
vt 0.983086 0.006412
vt 0.986096 0.005852
vt 0.987194 0.006275
vt 0.987514 0.006645
vt 0.987847 0.006655
vt 0.980919 0.006885
vt 0.997865 0.013386
vt 0.988970 0.003530
vt 0.981861 0.006635
vt 0.997251 0.013419
vt 0.988878 0.004235
vt 0.996703 0.013428
vt 0.988825 0.004862
vt 0.996141 0.013397
vt 0.988800 0.005495
vt 0.995572 0.013318
vt 0.988806 0.006131
vt 0.995023 0.013175
vt 0.988844 0.006764
vt 0.989884 0.007051
vt 0.989157 0.003583
vt 0.982032 0.006530
vt 0.989076 0.004199
vt 0.989705 0.006464
vt 0.989022 0.004812
vt 0.989571 0.005868
vt 0.988995 0.005431
vt 0.989496 0.005254
vt 0.989483 0.004629
vt 0.988996 0.006056
vt 0.989537 0.004009
vt 0.989027 0.006679
vt 0.982680 0.004601
vt 0.996746 0.003489
vt 0.995375 0.009908
vt 0.996754 0.003461
vt 0.982702 0.006945
vt 0.982695 0.007217
vt 0.982697 0.006795
vt 0.982727 0.009151
vt 0.982734 0.008964
vt 0.982723 0.009315
vt 0.982636 0.008401
vt 0.982654 0.008285
vt 0.982695 0.008620
vt 0.982670 0.007749
vt 0.982676 0.007950
vt 0.982658 0.007577
vt 0.982671 0.006527
vt 0.982702 0.006355
vt 0.982657 0.006587
vt 0.982645 0.004900
vt 0.982631 0.004808
vt 0.982671 0.005007
vt 0.982689 0.005902
vt 0.982700 0.006085
vt 0.982652 0.005674
vt 0.982686 0.005462
vt 0.982647 0.005696
vt 0.982681 0.005270
vt 0.995474 0.009586
vt 0.995564 0.009325
vt 0.982666 0.008120
vt 0.982668 0.007369
vt 0.982641 0.007488
vt 0.993500 0.010893
vt 0.982542 0.004129
vt 0.993541 0.011666
vt 0.993576 0.012374
vt 0.993609 0.013093
vt 0.993624 0.013847
vt 0.997795 0.007874
vt 0.982508 0.009347
vt 0.981757 0.003593
vt 0.988379 0.003252
vt 0.988027 0.003107
vt 0.987007 0.002675
vt 0.985913 0.002789
vt 0.983272 0.009466
vt 0.983786 0.009344
vt 0.997204 0.008525
vt 0.982068 0.005410
vt 0.992268 0.011059
vt 0.991253 0.014522
vt 0.991452 0.011247
vt 0.989761 0.007272
vt 0.981885 0.006331
vt 0.993093 0.011700
vt 0.992643 0.011746
vt 0.992605 0.012442
vt 0.993090 0.012406
vt 0.992555 0.013135
vt 0.993081 0.013115
vt 0.992492 0.013846
vt 0.993057 0.013849
vt 0.992414 0.014589
vt 0.994923 0.012558
vt 0.995430 0.012669
vt 0.995949 0.012738
vt 0.996473 0.012769
vt 0.996992 0.012781
vt 0.994809 0.011963
vt 0.995268 0.012049
vt 0.995761 0.012103
vt 0.996256 0.012131
vt 0.996759 0.012152
vt 0.995126 0.011434
vt 0.995598 0.011493
vt 0.996078 0.011529
vt 0.996546 0.011535
vt 0.982091 0.008740
vt 0.996872 0.011568
vt 0.991395 0.013853
vt 0.991528 0.013179
vt 0.991652 0.012528
vt 0.991759 0.011877
vt 0.989346 0.004034
vt 0.990678 0.014477
vt 0.990852 0.013846
vt 0.989296 0.004680
vt 0.991014 0.013205
vt 0.989317 0.005329
vt 0.991168 0.012580
vt 0.989400 0.005965
vt 0.991304 0.011961
vt 0.989545 0.006582
vt 0.997208 0.012196
vt 0.981952 0.008035
vt 0.997532 0.012786
vt 0.981872 0.007349
vt 0.993089 0.010929
vt 0.982351 0.004543
vt 0.997587 0.007603
vt 0.982472 0.008985
vt 0.988224 0.003784
vt 0.981521 0.004083
vt 0.982417 0.008272
vt 0.997227 0.007022
vt 0.987051 0.003250
vt 0.987869 0.003655
vt 0.987985 0.004881
vt 0.981147 0.005126
vt 0.982369 0.007524
vt 0.996905 0.006373
vt 0.983196 0.008992
vt 0.985949 0.003269
vt 0.983098 0.008033
vt 0.986012 0.004232
vt 0.987126 0.004412
vt 0.987636 0.004787
vt 0.987864 0.006008
vt 0.980951 0.006238
vt 0.996469 0.007469
vt 0.983612 0.007999
vt 0.996942 0.008189
vt 0.983714 0.008898
vt 0.987177 0.005605
vt 0.987527 0.005974
vt 0.996636 0.005590
vt 0.982321 0.006681
vt 0.983068 0.006996
vt 0.986070 0.005268
vt 0.996050 0.006653
vt 0.983561 0.007050
vt 0.986111 0.006485
vt 0.983146 0.005782
vt 0.987194 0.007000
vt 0.987546 0.007369
vt 0.980949 0.007572
vt 0.987870 0.007343
vt 0.996544 0.005130
vt 0.982314 0.006209
vt 0.983601 0.005948
vt 0.995707 0.005626
vt 0.983264 0.005173
vt 0.986098 0.007110
vt 0.983697 0.005343
vt 0.995617 0.005020
vt 0.987630 0.008080
vt 0.987178 0.007718
vt 0.987940 0.008019
vt 0.981056 0.008242
vt 0.996506 0.004664
vt 0.982337 0.005742
vt 0.983475 0.004524
vt 0.986040 0.007800
vt 0.995632 0.004393
vt 0.983870 0.004749
vt 0.982395 0.005321
vt 0.996524 0.004239
vt 0.982512 0.004925
vt 0.996607 0.003831
vt 0.984116 0.004200
vt 0.995750 0.003789
vt 0.991831 0.014555
vt 0.991943 0.013846
vt 0.992043 0.013156
vt 0.992132 0.012483
vt 0.992206 0.011805
vt 0.982442 0.008623
vt 0.997396 0.007315
vt 0.996698 0.007835
vt 0.983657 0.008449
vt 0.983139 0.008516
vt 0.985981 0.003749
vt 0.987091 0.003828
vt 0.987738 0.004214
vt 0.988092 0.004326
vt 0.981315 0.004593
vt 0.982196 0.004969
vt 0.992678 0.010985
vt 0.982394 0.007915
vt 0.997067 0.006717
vt 0.996253 0.007081
vt 0.983579 0.007539
vt 0.983073 0.007531
vt 0.986041 0.004734
vt 0.987155 0.005009
vt 0.987565 0.005380
vt 0.987909 0.005440
vt 0.981025 0.005675
vt 0.981967 0.005860
vt 0.991862 0.011145
vt 0.982345 0.007134
vt 0.996765 0.006018
vt 0.995864 0.006175
vt 0.983564 0.006526
vt 0.983086 0.006412
vt 0.986096 0.005852
vt 0.987194 0.006275
vt 0.987514 0.006645
vt 0.987847 0.006655
vt 0.980919 0.006885
vt 0.997865 0.013386
vt 0.988970 0.003530
vt 0.981861 0.006635
vt 0.997251 0.013419
vt 0.988878 0.004235
vt 0.996703 0.013428
vt 0.988825 0.004862
vt 0.996141 0.013397
vt 0.988800 0.005495
vt 0.995572 0.013318
vt 0.988806 0.006131
vt 0.995023 0.013175
vt 0.988844 0.006764
vt 0.989884 0.007051
vt 0.989157 0.003583
vt 0.982032 0.006530
vt 0.989076 0.004199
vt 0.989705 0.006464
vt 0.989022 0.004812
vt 0.989571 0.005868
vt 0.988995 0.005431
vt 0.989496 0.005254
vt 0.989483 0.004629
vt 0.988996 0.006056
vt 0.989537 0.004009
vt 0.989027 0.006679
vt 0.982680 0.004601
vt 0.996746 0.003489
vt 0.995375 0.009908
vt 0.996754 0.003461
vt 0.982702 0.006945
vt 0.982695 0.007217
vt 0.982697 0.006795
vt 0.982727 0.009151
vt 0.982734 0.008964
vt 0.982636 0.008401
vt 0.982654 0.008285
vt 0.982695 0.008620
vt 0.982670 0.007749
vt 0.982676 0.007950
vt 0.982658 0.007577
vt 0.982671 0.006527
vt 0.982702 0.006355
vt 0.982657 0.006587
vt 0.982645 0.004900
vt 0.982631 0.004808
vt 0.982671 0.005007
vt 0.982689 0.005902
vt 0.982700 0.006085
vt 0.982652 0.005674
vt 0.982686 0.005462
vt 0.982647 0.005696
vt 0.982681 0.005270
vt 0.995474 0.009586
vt 0.995564 0.009325
vt 0.982666 0.008120
vt 0.982668 0.007369
vt 0.982641 0.007488
vt 0.982723 0.009315
vt 0.991207 0.014710
vt 0.989406 0.003745
vt 0.990590 0.014758
vt 0.991809 0.014676
vt 0.994707 0.011940
vt 0.993617 0.014546
vt 0.994757 0.012510
vt 0.993016 0.014593
vt 0.992780 0.014610
vt 0.992408 0.014636
vt 0.994817 0.013097
vt 0.988871 0.007011
vt 0.989589 0.003745
vt 0.989053 0.006947
vt 0.991210 0.014698
vt 0.989401 0.003768
vt 0.990597 0.014735
vt 0.991811 0.014662
vt 0.994715 0.011942
vt 0.993617 0.014532
vt 0.994764 0.012512
vt 0.993016 0.014578
vt 0.992667 0.014603
vt 0.992410 0.014621
vt 0.994813 0.013095
vt 0.988872 0.007016
vt 0.989587 0.003757
vt 0.989052 0.006936
vt 0.982723 0.009315
vt 0.982723 0.009315
vt 0.995222 0.011446
vt 0.995576 0.009294
vt 0.994725 0.011496
vt 0.995573 0.011356
vt 0.995026 0.009726
vt 0.996410 0.003269
vt 0.995210 0.009583
vt 0.995521 0.009338
vt 0.995133 0.011464
vt 0.996017 0.011199
vt 0.996413 0.011047
vt 0.987711 0.008489
vt 0.987158 0.008138
vt 0.996081 0.003543
vt 0.981830 0.009224
vt 0.988054 0.008678
vt 0.981241 0.008878
vt 0.982347 0.009390
vt 0.996541 0.010957
vt 0.981476 0.008986
vt 0.984115 0.004199
vt 0.984116 0.004199
vt 0.995750 0.003788
vt 0.986527 0.008105
vt 0.985985 0.008115
vt 0.983613 0.004247
vt 0.994770 0.011382
vt 0.995111 0.011340
vt 0.995565 0.009322
vt 0.994706 0.011387
vt 0.995549 0.011228
vt 0.995001 0.009713
vt 0.996385 0.003255
vt 0.995188 0.009583
vt 0.995558 0.009327
vt 0.995994 0.011079
vt 0.996382 0.010934
vt 0.987729 0.008578
vt 0.987154 0.008229
vt 0.996025 0.003513
vt 0.981841 0.009204
vt 0.988062 0.008723
vt 0.981254 0.008921
vt 0.982375 0.009462
vt 0.996504 0.010889
vt 0.981428 0.009005
vt 0.984027 0.004131
vt 0.984160 0.004123
vt 0.995776 0.003702
vt 0.986695 0.008210
vt 0.985965 0.008232
vt 0.983665 0.004143
vt 0.994673 0.011385
vt 0.994673 0.011493
s 0
f 14/23/1 15/24/1 90/145/1 48/65/1
f 2/3/2 14/23/2 48/65/2 1/2/2
f 304/472/3 354/536/3 355/537/3 293/458/3 295/460/3 299/465/3 300/466/3 291/456/3 290/454/3 292/457/3 298/463/3 297/462/3 296/461/3 294/459/3 305/473/3 307/475/3 308/476/3 309/477/3 303/471/3 301/468/3 302/469/3 311/481/3 310/478/3 306/474/3
f 30/39/4 25/34/4 24/33/4 29/38/4
f 14/23/5 2/3/5 3/4/5 17/26/5
f 45/59/6 40/50/6 39/49/6 44/57/6
f 84/133/7 15/24/7 16/25/7 83/132/7
f 15/24/8 14/23/8 17/26/8 16/25/8
f 44/57/9 39/49/9 38/48/9 43/55/9
f 18/27/10 82/131/10 83/132/10 16/25/10
f 16/25/11 17/26/11 19/28/11 18/27/11
f 4/5/12 19/28/12 17/26/12 3/4/12
f 43/55/13 38/48/13 37/47/13 42/53/13
f 82/131/14 18/27/14 20/29/14 81/130/14
f 18/27/15 19/28/15 21/30/15 20/29/15
f 5/6/16 21/30/16 19/28/16 4/5/16
f 81/130/17 20/29/17 22/31/17 80/129/17
f 294/459/18 296/461/18 21/30/18 5/6/18
f 298/463/19 292/457/19 80/129/19 22/31/19
f 295/460/20 293/458/20 28/37/20 23/32/20
f 23/32/21 28/37/21 29/38/21 24/33/21
f 25/34/22 30/39/22 31/40/22 26/35/22
f 32/41/23 27/36/23 26/35/23 31/40/23
f 321/492/24 29/38/24 28/37/24 316/486/24
f 34/43/25 31/40/25 30/39/25 33/42/25
f 31/40/26 34/43/26 35/44/26 32/41/26
f 339/516/27 340/517/27 341/518/27 336/512/27 315/485/27 320/491/27 319/490/27 318/489/27 325/497/27 331/505/27 330/504/27 333/508/27 332/507/27 324/495/27 327/500/27 329/503/27 326/498/27 328/502/27 323/494/27 322/493/27 317/487/27 314/484/27 321/492/27 316/486/27 355/537/27 354/536/27 337/513/27 334/510/27 335/511/27 338/514/27 342/519/27 343/520/27 348/527/27 346/524/27 349/529/27 347/525/27 344/522/27 352/533/27 353/535/27 350/530/27 351/532/27 345/523/27
f 323/494/28 35/44/28 34/43/28 322/493/28
f 317/487/29 33/42/29 314/484/29
f 42/53/30 37/47/30 12/19/30 41/52/30
f 299/464/31 295/460/31 23/32/31 107/179/31
f 107/179/32 23/32/32 24/33/32 106/177/32
f 106/177/33 24/33/33 25/34/33 105/175/33
f 105/175/34 25/34/34 26/35/34 104/173/34
f 104/173/35 26/35/35 27/36/35 103/171/35
f 32/41/36 35/44/36 36/46/36 46/61/36
f 47/63/37 102/168/37 103/171/37 27/36/37
f 27/36/38 32/41/38 46/61/38 47/63/38
f 7/10/39 1/1/39 48/66/39 50/70/39
f 8/12/40 7/9/40 50/69/40 52/74/40
f 89/143/41 90/144/41 11/17/41 53/76/41
f 8/11/42 52/73/42 55/80/42 9/13/42
f 89/142/43 53/75/43 57/84/43 88/141/43
f 13/22/44 58/86/44 95/155/44 96/156/44
f 56/82/45 87/139/45 88/140/45 57/83/45
f 87/138/46 56/81/46 59/88/46 86/137/46
f 9/14/47 55/79/47 60/90/47 10/16/47
f 61/92/48 94/153/48 95/154/48 58/85/48
f 101/167/49 102/170/49 47/64/49 67/103/49
f 63/96/50 93/151/50 94/152/50 61/91/50
f 64/98/51 92/149/51 93/150/51 63/95/51
f 101/166/52 67/104/52 66/102/52 100/165/52
f 54/78/53 91/147/53 92/148/53 64/97/53
f 51/72/54 85/135/54 86/136/54 59/87/54
f 49/68/55 6/8/55 10/15/55 60/89/55
f 100/164/56 66/101/56 65/99/56 99/163/56
f 99/162/57 65/100/57 69/107/57 98/161/57
f 98/160/58 69/108/58 62/93/58 97/159/58
f 67/103/59 47/64/59 46/62/59 73/116/59
f 70/110/60 65/99/60 66/101/60 72/114/60
f 71/111/61 69/107/61 65/100/61 70/109/61
f 72/113/62 66/102/62 67/104/62 73/115/62
f 69/108/63 71/112/63 68/105/63 62/93/63
f 76/122/64 71/111/64 70/109/64 75/119/64
f 324/495/65 72/113/65 73/115/65 327/499/65
f 74/117/66 68/105/66 71/112/66 76/121/66
f 333/508/67 75/120/67 332/507/67
f 76/121/68 79/128/68 77/124/68 74/117/68
f 331/505/69 79/127/69 330/504/69
f 117/199/70 97/158/70 62/94/70 118/200/70 116/198/70
f 6/7/71 49/67/71 120/202/71 119/201/71 121/203/71 289/453/71
f 124/206/72 85/134/72 51/71/72 123/205/72 122/204/72
f 126/208/73 91/146/73 54/77/73 127/209/73 125/207/73
f 118/200/74 62/94/74 68/106/74 129/211/74 128/210/74 130/212/74
f 133/215/75 78/125/75 114/194/75 132/214/75 131/213/75
f 129/211/76 68/106/76 74/118/76 134/216/76 135/217/76
f 138/220/77 134/216/77 74/118/77 77/123/77 137/219/77 136/218/77
f 137/219/78 77/123/78 78/125/78 133/215/78 139/221/78
f 319/490/79 140/222/79 115/196/79 318/488/79
f 320/491/80 141/223/80 140/222/80 319/490/80
f 320/491/81 315/485/81 141/223/81
f 329/503/82 36/45/82 326/498/82
f 326/498/83 36/45/83 328/501/83
f 292/457/84 290/454/84 12/19/84 80/129/84
f 80/129/85 12/19/85 37/47/85 81/130/85
f 81/130/86 37/47/86 38/48/86 82/131/86
f 82/131/87 38/48/87 39/49/87 83/132/87
f 83/132/88 39/49/88 40/50/88 84/133/88
f 84/133/89 40/50/89 96/157/89 11/18/89
f 120/202/90 49/67/90 85/134/90 124/206/90
f 85/135/91 49/68/91 60/89/91 86/136/91
f 55/79/92 87/138/92 86/137/92 60/90/92
f 87/139/93 55/80/93 52/73/93 88/140/93
f 50/69/94 89/142/94 88/141/94 52/74/94
f 50/70/95 48/66/95 90/144/95 89/143/95
f 123/205/96 51/71/96 91/146/96 126/208/96 142/224/96
f 59/87/97 92/148/97 91/147/97 51/72/97
f 56/81/98 93/150/98 92/149/98 59/88/98
f 57/83/99 94/152/99 93/151/99 56/82/99
f 53/75/100 95/154/100 94/153/100 57/84/100
f 53/76/101 11/17/101 96/156/101 95/155/101
f 15/24/102 84/133/102 11/18/102 90/145/102
f 13/20/103 96/157/103 40/50/103 45/59/103
f 144/226/104 127/209/104 54/77/104 97/158/104 117/199/104 143/225/104
f 97/159/105 54/78/105 64/97/105 98/160/105
f 98/161/106 64/98/106 63/95/106 99/162/106
f 99/163/107 63/96/107 61/91/107 100/164/107
f 100/165/108 61/92/108 58/85/108 101/166/108
f 58/86/109 13/22/109 102/170/109 101/167/109
f 45/60/110 109/185/110 108/181/110 13/21/110
f 102/169/111 108/182/111 109/184/111 103/172/111
f 102/170/112 13/22/112 108/183/112
f 103/172/113 109/184/113 110/186/113 104/174/113
f 44/58/114 110/187/114 109/185/114 45/60/114
f 104/174/115 110/186/115 111/188/115 105/176/115
f 43/56/116 111/189/116 110/187/116 44/58/116
f 105/176/117 111/188/117 112/191/117 106/178/117
f 42/54/118 112/190/118 111/189/118 43/56/118
f 41/51/119 113/192/119 112/190/119 42/54/119
f 106/178/120 112/191/120 113/193/120 107/180/120
f 291/455/121 300/466/121 113/192/121 41/51/121
f 158/249/122 193/292/122 235/372/122 159/250/122
f 146/229/123 145/227/123 193/292/123 158/249/123
f 174/265/124 173/264/124 168/259/124 169/260/124
f 158/249/125 161/252/125 147/230/125 146/229/125
f 190/286/126 189/284/126 184/276/126 185/277/126
f 229/360/127 228/359/127 160/251/127 159/250/127
f 159/250/128 160/251/128 161/252/128 158/249/128
f 189/284/129 188/282/129 183/275/129 184/276/129
f 162/253/130 160/251/130 228/359/130 227/358/130
f 160/251/131 162/253/131 163/254/131 161/252/131
f 148/231/132 147/230/132 161/252/132 163/254/132
f 188/282/133 187/280/133 182/274/133 183/275/133
f 227/358/134 226/357/134 164/255/134 162/253/134
f 162/253/135 164/255/135 165/256/135 163/254/135
f 149/232/136 148/231/136 163/254/136 165/256/136
f 226/357/137 225/356/137 166/257/137 164/255/137
f 305/473/138 149/232/138 165/256/138 307/475/138
f 309/477/139 166/257/139 225/356/139 303/471/139
f 306/474/140 167/258/140 172/263/140 304/472/140
f 167/258/141 168/259/141 173/264/141 172/263/141
f 169/260/142 170/261/142 175/266/142 174/265/142
f 176/267/143 175/266/143 170/261/143 171/262/143
f 173/264/144 174/265/144 178/269/144 177/268/144
f 179/270/145 178/269/145 174/265/145 175/266/145
f 175/266/146 176/267/146 180/271/146 179/270/146
f 343/520/147 342/519/147 179/270/147 180/271/147
f 338/514/148 335/511/148 177/268/148 178/269/148
f 187/280/149 186/279/149 156/245/149 182/274/149
f 310/478/150 252/406/150 167/258/150 306/474/150
f 252/406/151 251/404/151 168/259/151 167/258/151
f 251/404/152 250/402/152 169/260/152 168/259/152
f 250/402/153 249/400/153 170/261/153 169/260/153
f 249/400/154 248/398/154 171/262/154 170/261/154
f 176/267/155 191/288/155 181/273/155 180/271/155
f 192/290/156 171/262/156 248/398/156 247/395/156
f 171/262/157 192/290/157 191/288/157 176/267/157
f 151/235/158 195/297/158 193/293/158 145/228/158
f 152/237/159 197/301/159 195/296/159 151/236/159
f 234/370/160 198/303/160 155/243/160 235/371/160
f 152/238/161 153/239/161 200/307/161 197/300/161
f 234/369/162 233/368/162 202/311/162 198/302/162
f 157/248/163 241/383/163 240/382/163 203/313/163
f 201/309/164 202/310/164 233/367/164 232/366/164
f 232/365/165 231/364/165 204/315/165 201/308/165
f 153/240/166 154/241/166 205/317/166 200/306/166
f 206/319/167 203/312/167 240/381/167 239/380/167
f 246/394/168 212/330/168 192/291/168 247/397/168
f 208/323/169 206/318/169 239/379/169 238/378/169
f 209/325/170 208/322/170 238/377/170 237/376/170
f 246/393/171 245/392/171 211/329/171 212/331/171
f 199/305/172 209/324/172 237/375/172 236/374/172
f 196/299/173 204/314/173 231/363/173 230/362/173
f 194/294/174 205/316/174 154/242/174 150/233/174
f 245/391/175 244/390/175 210/326/175 211/328/175
f 244/389/176 243/388/176 214/334/176 210/327/176
f 243/387/177 242/386/177 207/320/177 214/335/177
f 212/330/178 218/343/178 191/289/178 192/291/178
f 215/337/179 217/341/179 211/328/179 210/326/179
f 216/338/180 215/336/180 210/327/180 214/334/180
f 217/340/181 218/342/181 212/331/181 211/329/181
f 214/335/182 207/320/182 213/332/182 216/339/182
f 221/349/183 220/346/183 215/336/183 216/338/183
f 344/521/184 347/525/184 218/342/184 217/340/184
f 219/344/185 221/348/185 216/339/185 213/332/185
f 353/534/186 352/533/186 220/347/186
f 221/348/187 219/344/187 222/351/187 224/355/187
f 351/531/188 350/530/188 224/354/188
f 262/426/189 261/425/189 263/427/189 207/321/189 242/385/189
f 268/432/190 266/430/190 267/431/190 196/298/190 230/361/190
f 270/434/191 269/433/191 271/435/191 199/304/191 236/373/191
f 263/427/192 274/438/192 272/436/192 273/437/192 213/333/192 207/321/192
f 277/441/193 275/439/193 276/440/193 259/421/193 223/352/193
f 273/437/194 279/443/194 278/442/194 219/345/194 213/333/194
f 282/446/195 280/444/195 281/445/195 222/350/195 219/345/195 278/442/195
f 281/445/196 283/447/196 277/441/196 223/352/196 222/350/196
f 339/515/197 260/423/197 284/448/197 340/517/197
f 340/517/198 284/448/198 285/449/198 341/518/198
f 341/518/199 285/449/199 336/512/199
f 349/529/200 346/524/200 181/272/200
f 346/524/201 348/527/201 181/272/201
f 303/471/202 225/356/202 156/245/202 301/468/202
f 225/356/203 226/357/203 182/274/203 156/245/203
f 226/357/204 227/358/204 183/275/204 182/274/204
f 227/358/205 228/359/205 184/276/205 183/275/205
f 228/359/206 229/360/206 185/277/206 184/276/206
f 229/360/207 155/244/207 241/384/207 185/277/207
f 265/429/208 268/432/208 230/361/208 194/295/208
f 230/362/209 231/363/209 205/316/209 194/294/209
f 200/306/210 205/317/210 231/364/210 232/365/210
f 232/366/211 233/367/211 197/300/211 200/307/211
f 195/296/212 197/301/212 233/368/212 234/369/212
f 195/297/213 234/370/213 235/371/213 193/293/213
f 267/431/214 286/450/214 270/434/214 236/373/214 196/298/214
f 204/314/215 196/299/215 236/374/215 237/375/215
f 201/308/216 204/315/216 237/376/216 238/377/216
f 202/310/217 201/309/217 238/378/217 239/379/217
f 198/302/218 202/311/218 239/380/218 240/381/218
f 198/303/219 240/382/219 241/383/219 155/243/219
f 159/250/220 235/372/220 155/244/220 229/360/220
f 157/246/221 190/286/221 185/277/221 241/384/221
f 288/452/222 287/451/222 262/426/222 242/385/222 199/304/222 271/435/222
f 242/386/223 243/387/223 209/324/223 199/305/223
f 243/388/224 244/389/224 208/322/224 209/325/224
f 244/390/225 245/391/225 206/318/225 208/323/225
f 245/392/226 246/393/226 203/312/226 206/319/226
f 203/313/227 246/394/227 247/397/227 157/248/227
f 190/287/228 157/247/228 253/408/228 254/412/228
f 247/396/229 248/399/229 254/411/229 253/409/229
f 247/397/230 253/410/230 157/248/230
f 248/399/231 249/401/231 255/413/231 254/411/231
f 189/285/232 190/287/232 254/412/232 255/414/232
f 249/401/233 250/403/233 256/415/233 255/413/233
f 188/283/234 189/285/234 255/414/234 256/416/234
f 250/403/235 251/405/235 257/418/235 256/415/235
f 187/281/236 188/283/236 256/416/236 257/417/236
f 186/278/237 187/281/237 257/417/237 258/419/237
f 251/405/238 252/407/238 258/420/238 257/418/238
f 302/469/239 186/278/239 258/419/239 311/480/239
f 140/222/240 141/223/240 285/449/240 284/448/240
f 127/209/241 144/226/241 288/452/241 271/435/241
f 120/202/242 124/206/242 268/432/242 265/429/242
f 289/453/243 121/203/243 312/482/243 313/483/243
f 128/210/244 129/211/244 273/437/244 272/436/244
f 130/212/245 128/210/245 272/436/245 274/438/245
f 136/218/246 137/219/246 281/445/246 280/444/246
f 138/220/247 136/218/247 280/444/247 282/446/247
f 114/195/248 115/197/248 260/424/248 259/422/248
f 132/214/249 114/194/249 259/421/249 276/440/249
f 129/211/250 135/217/250 279/443/250 273/437/250
f 137/219/251 139/221/251 283/447/251 281/445/251
f 122/204/252 123/205/252 267/431/252 266/430/252
f 124/206/253 122/204/253 266/430/253 268/432/253
f 115/196/254 140/222/254 284/448/254 260/423/254
f 123/205/255 142/224/255 286/450/255 267/431/255
f 117/199/256 116/198/256 261/425/256 262/426/256
f 116/198/257 118/200/257 263/427/257 261/425/257
f 131/213/258 132/214/258 276/440/258 275/439/258
f 133/215/259 131/213/259 275/439/259 277/441/259
f 143/225/260 117/199/260 262/426/260 287/451/260
f 144/226/261 143/225/261 287/451/261 288/452/261
f 126/208/262 125/207/262 269/433/262 270/434/262
f 125/207/263 127/209/263 271/435/263 269/433/263
f 118/200/264 130/212/264 274/438/264 263/427/264
f 139/221/265 133/215/265 277/441/265 283/447/265
f 119/201/266 120/202/266 265/429/266 264/428/266
f 121/203/267 119/201/267 264/428/267 312/482/267
f 135/217/268 134/216/268 278/442/268 279/443/268
f 134/216/269 138/220/269 282/446/269 278/442/269
f 142/224/270 126/208/270 270/434/270 286/450/270
f 9/14/271 10/16/271 6/8/271 289/453/271 313/483/271 150/234/271 154/242/271 153/240/271 152/238/271 151/236/271 145/228/271 146/229/271 147/230/271 3/4/271 2/3/271 1/2/271 7/10/271 8/12/271
f 252/407/272 310/479/272 311/481/272 258/420/272
f 166/257/273 309/477/273 308/476/273
f 164/255/274 166/257/274 308/476/274 307/475/274 165/256/274
f 334/510/275 177/268/275 335/511/275
f 186/279/276 302/470/276 301/468/276 156/245/276
f 107/180/277 113/193/277 300/467/277 299/465/277
f 22/31/278 297/462/278 298/463/278
f 20/29/279 21/30/279 296/461/279 297/462/279 22/31/279
f 3/4/271 147/230/271 148/231/271 149/232/271 305/473/271 294/459/271 5/6/271 4/5/271
f 41/52/280 12/19/280 290/454/280 291/456/280
f 150/234/281 264/428/281 265/429/281 194/295/281
f 313/483/282 312/482/282 264/428/282 150/234/282
f 224/354/283 350/530/283 353/535/283 220/346/283 221/349/283
f 191/289/284 218/343/284 347/526/284 349/529/284 181/272/284
f 223/353/285 345/523/285 351/532/285 224/355/285 222/351/285
f 220/347/286 352/533/286 344/522/286 217/341/286 215/337/286
f 180/271/287 181/273/287 348/528/287 343/520/287
f 259/422/288 260/424/288 339/516/288 345/523/288 223/353/288
f 178/269/289 179/270/289 342/519/289 338/514/289
f 304/472/290 172/263/290 337/513/290 354/536/290
f 177/268/291 334/510/291 337/513/291 172/263/291 173/264/291
f 79/127/292 76/122/292 75/119/292 333/509/292 330/504/292
f 46/62/293 36/45/293 329/503/293 327/500/293 73/116/293
f 78/126/294 77/124/294 79/128/294 331/506/294 325/497/294
f 75/120/295 70/110/295 72/114/295 324/496/295 332/507/295
f 35/44/296 323/494/296 328/502/296 36/46/296
f 114/195/297 78/126/297 325/497/297 318/489/297 115/197/297
f 33/42/298 317/487/298 322/493/298 34/43/298
f 293/458/299 355/537/299 316/486/299 28/37/299
f 141/223/300 315/485/300 336/512/300 285/449/300
f 29/38/301 321/492/301 314/484/301 33/42/301 30/39/301
