# Blender 3.4.1
# www.blender.org
o Megaman_Zero_Helmet_-_Letter_Foam.006
v 0.000000 -2.833519 0.683243
v 0.000000 -2.993673 1.691793
v 0.000000 -3.057904 2.699331
v 0.000000 -3.028302 3.702346
v 0.000000 -2.889384 4.715898
v 0.000000 -1.493444 -2.583978
v 0.000000 -3.975827 0.134058
v 0.000000 -4.178604 -0.524164
v 0.000000 -3.347155 -2.199682
v 0.000000 -2.611135 -2.656537
v -1.690226 -2.649385 0.785884
v -3.274687 -1.936095 5.353812
v -2.802492 -2.327539 0.948729
v -0.637591 -2.967039 1.697741
v -1.270006 -2.890836 1.714717
v -1.384596 -2.935534 2.695237
v -0.695447 -3.026215 2.698281
v -1.499682 -2.886819 3.669302
v -0.753861 -2.991660 3.693789
v -1.608991 -2.732529 4.650211
v -0.809510 -2.848760 4.698874
v -1.709436 -2.460183 5.641659
v -4.901313 -0.875646 5.022363
v -4.768603 -1.210018 4.303467
v -4.599855 -1.458256 3.543637
v -4.401430 -1.633249 2.751964
v -4.173873 -1.734668 1.951840
v -5.422986 -0.328038 4.927636
v -5.329926 -0.632337 4.266518
v -5.201211 -0.881437 3.530907
v -5.033422 -1.064692 2.775729
v -4.819886 -1.200467 2.008171
v -5.670652 -0.239043 3.476844
v -5.510260 -0.437521 2.753872
v -5.354082 -0.590451 2.038180
v -5.189003 -0.724600 1.630434
v -3.098257 -2.250665 4.493441
v -2.904647 -2.460897 3.590027
v -2.699834 -2.571327 2.694051
v -2.488984 -2.587573 1.786903
v -4.033235 -1.541391 5.119670
v -3.832497 -1.880595 4.344220
v -3.615835 -2.121613 3.520547
v -3.385963 -2.271760 2.678600
v -3.146455 -2.328486 1.823506
v -4.548440 -1.304692 1.418250
v -3.879287 -1.785027 1.204968
v -0.573425 -2.814362 0.695565
v -0.445257 -1.480287 -2.580869
v -0.681370 -3.963844 0.139085
v -1.313751 -1.368204 -2.543953
v -0.704510 -4.164011 -0.516901
v -2.044280 -3.792975 0.208062
v -2.205739 -1.162793 -2.455805
v -0.589004 -3.333047 -2.193695
v -1.762155 -3.194228 -2.127827
v -2.114602 -3.972785 -0.426078
v -3.352854 -3.377253 0.372920
v -1.650690 -2.491793 -2.598981
v -0.551967 -2.599945 -2.651831
v -3.493319 -3.524905 -0.224013
v -3.159223 -0.795381 -2.267260
v -2.985928 -2.880904 -1.969654
v -2.779453 -2.253353 -2.472271
v -4.329786 -2.282351 -1.692960
v -4.961776 -2.709418 0.111361
v -4.755994 -2.610530 0.673963
v -3.648998 -0.513568 -2.137002
v -4.015406 -1.768820 -2.232031
v -4.941071 -1.837554 -1.531740
v -4.632338 -1.367307 -2.070928
v -5.614882 -2.147922 0.324800
v -5.384529 -2.095362 0.866106
v -4.091079 -0.171261 -2.012353
v -5.513864 -1.225683 -1.356075
v -5.165286 -0.842183 -1.903473
v -4.444980 0.195623 -1.919014
v -4.726532 0.615274 -1.884306
v -5.576001 -0.230087 -1.753266
v -2.509953 -2.234144 5.511446
v -2.366112 -2.524579 4.577597
v -2.209454 -2.703332 3.634349
v -2.044157 -2.779254 2.694151
v -1.877058 -2.761165 1.745014
v -0.888822 -1.437093 -2.567712
v -1.102971 -2.558197 -2.632726
v -1.175580 -3.281625 -2.170294
v -1.409901 -4.097855 -0.485269
v -1.363583 -3.906255 0.162674
v -1.133434 -2.751660 0.731311
v -1.741534 -1.280854 -2.510176
v -2.203503 -2.394776 -2.547653
v -2.362270 -3.063635 -2.062266
v -2.817095 -3.779985 -0.337821
v -2.707714 -3.616961 0.278029
v -2.236529 -2.511290 0.855152
v -2.657274 -1.013074 -2.380892
v -3.381290 -2.054100 -2.368661
v -3.647865 -2.630134 -1.845871
v -4.225089 -3.178200 -0.074143
v -4.054606 -3.041689 0.505918
v -3.101274 -2.185045 1.024089
v -3.391962 -2.208270 1.885878
v -3.627472 -2.136661 2.729696
v -3.852611 -1.973774 3.561216
v -4.058151 -1.721933 4.367969
v -4.245189 -1.372359 5.125567
v -2.929424 -2.091067 1.076930
v -3.173687 -2.098936 1.866327
v -3.404776 -2.036472 2.691324
v -3.626193 -1.884085 3.504942
v -3.834441 -1.642429 4.296002
v -4.025989 -1.307339 5.041451
v -4.871401 1.054694 -1.948228
v -4.876499 1.073742 -1.951293
v -2.813887 -0.679110 -2.795723
v -2.511562 -0.819468 -2.831015
v -2.981468 -0.603915 -2.762402
v -0.198862 -1.345037 -2.864022
v -0.425809 -1.317448 -2.897966
v -0.003891 -1.368248 -2.837591
v -1.125610 -1.275347 -2.796282
v -1.261958 -1.231778 -2.824075
v -0.850868 -1.284672 -2.870812
v -1.895292 -1.053281 -2.837866
v -1.657431 -1.115988 -2.853341
v -2.100163 -1.001371 -2.813849
v -3.271152 -0.466748 -2.663160
v -3.446492 -0.335379 -2.661719
v -3.211751 -0.512391 -2.658328
v -4.739164 0.739653 -1.993378
v -4.809374 0.804232 -1.929101
v -4.655533 0.661709 -2.084779
v -3.892469 -0.034171 -2.497831
v -3.714310 -0.152381 -2.573999
v -4.108908 0.107316 -2.359029
v -4.288462 0.299441 -2.318764
v -4.091030 0.087838 -2.361181
v -4.445746 0.455687 -2.222218
v -5.059259 1.408909 -2.047966
v -5.193095 1.688527 -2.181690
v -1.456587 -1.174317 -2.840722
v -2.339584 -0.908033 -2.808691
v -2.209721 -0.977190 -2.782275
v 0.000000 -2.719649 0.620525
v 0.000000 -2.864282 1.704372
v 0.000000 -2.927922 2.701407
v 0.000000 -2.898762 3.691413
v 0.000000 -2.761824 4.690825
v 0.000000 -1.432707 -2.469039
v 0.000000 -3.876360 0.050356
v 0.000000 -4.049078 -0.513059
v 0.000000 -3.250873 -2.112333
v 0.000000 -2.578276 -2.530756
v -1.671093 -2.536503 0.724307
v -3.216188 -1.825992 5.317001
v -2.760197 -2.228729 0.875600
v -0.626868 -2.838098 1.710368
v -1.248204 -2.763316 1.727497
v -1.361079 -2.807700 2.697495
v -0.684000 -2.896735 2.700392
v -1.474045 -2.759804 3.658824
v -0.741486 -2.862704 3.682956
v -1.581044 -2.607897 4.626008
v -0.796140 -2.721866 4.673999
v -1.678956 -2.339807 5.603179
v -4.813516 -0.785946 4.988518
v -4.683162 -1.114155 4.283210
v -4.517051 -1.358348 3.535768
v -4.321660 -1.530654 2.755286
v -4.097522 -1.630289 1.965082
v -5.322192 -0.251602 4.897668
v -5.230274 -0.550498 4.250031
v -5.103328 -0.796017 3.526195
v -4.938493 -0.976002 2.780492
v -4.729703 -1.107603 2.020155
v -5.678639 0.077444 4.163878
v -5.560732 -0.169649 3.475471
v -5.403055 -0.364201 2.759467
v -5.250235 -0.512834 2.047740
v -5.116107 -0.638539 1.565783
v -3.044906 -2.134497 4.469806
v -2.855842 -2.340884 3.579319
v -2.655300 -2.449200 2.695527
v -2.448233 -2.464724 1.799053
v -3.926298 -1.468147 5.109671
v -3.728483 -1.802614 4.343774
v -3.514584 -2.040546 3.529305
v -3.287668 -2.188503 2.696096
v -3.050761 -2.244408 1.849460
v -4.486382 -1.207324 1.358516
v -3.829492 -1.681032 1.144924
v -0.567396 -2.700646 0.632858
v -0.439081 -1.419912 -2.465907
v -0.678206 -3.863993 0.055899
v -1.294774 -1.309292 -2.429632
v -0.696909 -4.034736 -0.505489
v -2.030324 -3.693160 0.125951
v -2.173442 -1.107756 -2.342545
v -0.581680 -3.236931 -2.106471
v -1.736774 -3.099607 -2.042371
v -2.086138 -3.846456 -0.414667
v -3.326458 -3.280244 0.290503
v -1.635415 -2.458482 -2.474253
v -0.547538 -2.566928 -2.526172
v -3.443020 -3.405328 -0.215569
v -3.109916 -0.750418 -2.155693
v -2.940554 -2.789543 -1.889068
v -2.750394 -2.220365 -2.349930
v -4.260165 -2.200889 -1.619359
v -4.885456 -2.604267 0.115652
v -4.714380 -2.518926 0.591641
v -3.592941 -0.474949 -2.026248
v -3.970371 -1.740396 -2.113440
v -4.857369 -1.766627 -1.462001
v -4.578789 -1.343318 -1.954923
v -5.523781 -2.055222 0.327581
v -5.332371 -2.009625 0.783470
v -4.029848 -0.137962 -1.902618
v -5.417252 -1.169022 -1.290076
v -5.104372 -0.823602 -1.790140
v -4.380668 0.225513 -1.810062
v -4.660039 0.646383 -1.777017
v -5.511008 -0.213545 -1.641900
v -2.464329 -2.118287 5.474090
v -2.324424 -2.403744 4.553912
v -2.171375 -2.579470 3.623957
v -2.009410 -2.654001 2.696240
v -1.845077 -2.635800 1.757694
v -0.875796 -1.377501 -2.452912
v -1.093287 -2.525192 -2.507360
v -1.159466 -3.186121 -2.083579
v -1.392373 -3.969570 -0.473636
v -1.355552 -3.806221 0.080038
v -1.120807 -2.638145 0.669222
v -1.716748 -1.223187 -2.396334
v -2.181722 -2.361278 -2.423945
v -2.326966 -2.970346 -1.978895
v -2.777293 -3.656671 -0.327398
v -2.687399 -3.518142 0.196041
v -2.211470 -2.399290 0.794096
v -2.616267 -0.962185 -2.268513
v -3.344442 -2.022778 -2.247991
v -3.591491 -2.542092 -1.768600
v -4.163092 -3.064100 -0.068030
v -4.021766 -2.946766 0.423388
v -3.093474 -2.085219 0.941179
v -3.377181 -2.079132 1.883757
v -3.609209 -2.008673 2.716069
v -3.831460 -1.848385 3.534194
v -4.035004 -1.601001 4.326260
v -4.219487 -1.258457 5.068421
v -2.865396 -1.980267 1.054049
v -3.111388 -1.985693 1.880282
v -3.338293 -1.924836 2.695516
v -3.556930 -1.774346 3.497180
v -3.762669 -1.535968 4.275641
v -3.952028 -1.206031 5.007291
v -4.838266 1.070910 -1.823572
v -4.855688 1.101245 -1.825951
v -2.758152 -0.580652 -2.731695
v -2.461755 -0.718223 -2.766449
v -2.921203 -0.507929 -2.698724
v -0.194971 -1.232934 -2.798312
v -0.417359 -1.205678 -2.832120
v -1.104003 -1.165549 -2.730118
v -1.237350 -1.122596 -2.757940
v -0.834317 -1.173932 -2.804762
v -1.861145 -0.946372 -2.772259
v -1.626916 -1.008152 -2.787462
v -2.062000 -0.895689 -2.748464
v -3.203336 -0.375359 -2.600319
v -3.373467 -0.247805 -2.599282
v -3.143935 -0.421002 -2.595486
v -4.635022 0.788081 -1.932477
v -4.705232 0.852661 -1.868200
v -4.555438 0.719036 -2.024823
v -3.809632 0.045043 -2.436486
v -3.634763 -0.070112 -2.512324
v -4.019350 0.179651 -2.298641
v -4.195342 0.367371 -2.258646
v -4.001471 0.160175 -2.300792
v -4.347465 0.516545 -2.162745
v -5.052813 1.460706 -1.928906
v -5.204364 1.749758 -2.067568
v -1.429431 -1.065709 -2.774641
v -2.295444 -0.804412 -2.743771
v -2.165581 -0.873571 -2.717356
v 0.000000 -1.368295 -2.837619
v -3.321019 -1.818167 5.583169
v -4.114279 -1.337632 5.441645
v -2.532282 -2.166162 5.662033
v -5.431456 -0.244419 5.065919
v 0.000000 -2.659860 5.618069
v -4.932493 -0.735009 5.244689
v -0.858983 -2.593803 5.681310
v -1.191798 -2.535392 5.690174
v -1.715123 -2.435986 5.700510
v -4.312939 -1.198456 5.397226
v -4.102777 -1.124516 5.338816
v -3.258061 -1.717801 5.528398
v -3.999630 -1.283137 5.403032
v -2.483496 -2.059064 5.605616
v -5.329904 -0.176192 5.022207
v 0.000000 -2.540444 5.561162
v -4.842487 -0.654595 5.196443
v -0.843603 -2.475598 5.623285
v -1.328385 -2.390614 5.636241
v -1.682767 -2.323349 5.643264
v -4.286983 -1.084696 5.340152
v -4.024042 -1.034192 5.287090
v -0.003803 -1.200504 -2.800866
v 0.000000 -1.199966 -2.800766
v -5.765943 -0.039254 4.032557
v -5.206938 1.721132 -2.201920
v -5.760849 0.157241 4.818230
v -5.751630 -0.085734 3.445477
v -5.377131 0.863147 -1.807265
v -5.320986 1.150175 -1.918830
v -5.224005 1.636454 -2.156004
v -5.768027 -0.019268 4.179749
v -5.721272 -0.081294 2.681288
v -5.691304 -0.061932 1.996822
v -5.940767 -1.771173 0.466698
v -5.479356 0.311873 -1.737969
v -5.785172 -0.683529 1.521711
v -5.916266 -1.505509 1.073559
v -5.677623 -0.021728 1.830804
v -5.867399 -1.197945 1.246041
v -5.576781 -0.230686 -1.752101
v -5.576473 -0.229191 -1.753101
v -5.823225 -1.326947 -0.498398
v -5.714095 -0.891363 -1.286375
v -5.728622 0.304023 4.670308
v -5.730326 0.180482 4.137552
v -5.206215 1.753418 -2.069871
v -5.727486 0.331315 4.768353
v -5.713420 0.119530 3.415874
v -5.378232 0.884697 -1.678173
v -5.321022 1.177335 -1.791099
v -5.208544 1.741835 -2.063730
v -5.685462 0.112523 2.660283
v -5.657365 0.125621 1.994970
v -5.912250 -1.605985 0.500602
v -5.486690 0.297379 -1.616035
v -5.767499 -0.603549 1.438189
v -5.891904 -1.385209 1.005304
v -5.648643 0.128860 1.784578
v -5.855302 -1.154284 1.137101
v -5.594804 -0.279413 -1.513604
v -5.560935 -0.115684 -1.624907
v -5.829597 -1.292454 -0.172626
v -5.686511 -0.719287 -1.196165
v -5.725395 0.352630 4.813808
v -5.757502 0.191981 4.893905
vn -0.1211 -0.9803 -0.1563
vn -0.0397 -0.9871 -0.1548
vn 0.0991 0.4281 0.8983
vn -0.7035 -0.7044 0.0943
vn -0.0439 -0.9971 -0.0625
vn -0.3840 -0.9214 -0.0600
vn -0.2212 -0.9731 -0.0639
vn -0.1257 -0.9901 -0.0629
vn -0.4172 -0.9083 0.0318
vn -0.2414 -0.9700 0.0278
vn -0.1355 -0.9903 0.0299
vn -0.0473 -0.9984 0.0307
vn -0.4522 -0.8834 0.1234
vn -0.2645 -0.9557 0.1289
vn -0.1466 -0.9800 0.1345
vn -0.0511 -0.9893 0.1367
vn -0.2891 -0.9281 0.2346
vn -0.0550 -0.9674 0.2472
vn -0.3077 -0.8854 0.3485
vn -0.7176 -0.6240 0.3092
vn -0.7182 -0.6688 0.1920
vn -0.6804 -0.7328 0.0086
vn -0.6542 -0.7531 -0.0701
vn -0.8199 -0.5524 0.1502
vn -0.8009 -0.5983 -0.0233
vn -0.7727 -0.6310 -0.0698
vn -0.9834 0.1776 -0.0380
vn -0.8448 -0.5314 -0.0616
vn -0.8854 -0.4646 0.0152
vn -0.4893 -0.8428 0.2240
vn -0.6085 -0.7190 0.3359
vn -0.5962 -0.7699 0.2275
vn -0.5764 -0.8082 0.1203
vn -0.5562 -0.8306 0.0277
vn -0.5333 -0.8437 -0.0614
vn -0.7187 -0.6784 -0.1524
vn -0.5018 -0.8485 -0.1683
vn -0.6236 -0.7617 -0.1760
vn 0.0017 -0.4346 0.9006
vn -0.0157 -0.9559 0.2934
vn -0.0052 -0.4453 0.8954
vn -0.0244 -0.8953 -0.4448
vn -0.1413 -0.9474 0.2873
vn -0.0239 -0.4627 0.8862
vn -0.1794 -0.8777 -0.4444
vn -0.1283 -0.5316 -0.8372
vn -0.0197 -0.5282 -0.8489
vn -0.2942 -0.9095 0.2936
vn -0.0623 -0.4785 0.8759
vn -0.3488 -0.8356 -0.4243
vn -0.2579 -0.5386 -0.8021
vn -0.4452 -0.8367 0.3190
vn -0.1053 0.0737 -0.9917
vn -0.0498 0.0655 -0.9966
vn -0.0062 0.0643 -0.9979
vn -0.5277 -0.7572 -0.3849
vn -0.4125 -0.5134 -0.7525
vn -0.1678 0.1085 -0.9798
vn -0.0969 -0.4812 0.8712
vn -0.6436 -0.6727 -0.3651
vn -0.5112 -0.4670 -0.7215
vn -0.5471 -0.7726 0.3221
vn -0.1790 0.1261 -0.9757
vn -0.6163 -0.3936 -0.6821
vn -0.6420 -0.6902 0.3338
vn -0.1781 0.1284 -0.9756
vn -0.8338 -0.4262 -0.3511
vn -0.1750 0.1068 -0.9788
vn -0.7302 -0.2693 -0.6279
vn -0.4320 -0.7752 -0.4608
vn -0.0358 -0.8915 -0.4516
vn -0.1658 -0.8755 -0.4538
vn -0.2649 -0.8459 -0.4629
vn -0.5258 -0.7211 -0.4513
vn -0.8915 -0.4182 -0.1742
vn -0.6156 -0.6508 -0.4443
vn -0.6952 -0.5773 -0.4283
vn -0.7656 -0.4940 -0.4122
vn -0.1262 -0.3378 -0.9327
vn -0.0126 -0.4363 -0.8997
vn 0.1081 -0.4906 -0.8646
vn -0.1904 -0.4399 0.8776
vn -0.1911 -0.3897 0.9009
vn -0.4048 -0.8481 0.3419
vn -0.3798 -0.8950 0.2340
vn -0.3476 -0.9286 0.1297
vn -0.3171 -0.9479 0.0323
vn -0.2895 -0.9553 -0.0599
vn -0.2707 -0.9497 -0.1573
vn -0.0985 -0.8834 -0.4582
vn -0.0269 0.0644 -0.9976
vn -0.0749 -0.5287 -0.8455
vn -0.0999 -0.8894 -0.4462
vn -0.0735 -0.9540 0.2906
vn 0.0004 -0.4388 0.8986
vn -0.2150 -0.8605 -0.4618
vn -0.0737 0.0674 -0.9950
vn -0.1893 -0.5364 -0.8225
vn -0.2650 -0.8593 -0.4374
vn -0.2185 -0.9326 0.2872
vn -0.0148 -0.4524 0.8917
vn -0.2041 -0.9660 -0.1588
vn -0.3508 -0.9235 -0.1553
vn -0.3458 -0.8171 -0.4612
vn -0.1386 0.0863 -0.9866
vn -0.3301 -0.5336 -0.7786
vn -0.4263 -0.8086 -0.4055
vn -0.3588 -0.8813 0.3076
vn -0.0422 -0.4721 0.8806
vn -0.9261 -0.1859 -0.3283
vn 0.4496 -0.8839 0.1290
vn -0.0075 -0.4797 0.8774
vn 0.4417 -0.8760 0.1939
vn -0.9621 -0.0636 -0.2650
vn 0.4233 -0.8616 0.2800
vn -0.9658 -0.0611 -0.2521
vn 0.4169 -0.8324 0.3651
vn -0.9696 -0.0570 -0.2381
vn -0.9722 -0.0503 -0.2285
vn 0.4180 -0.7824 0.4617
vn -0.9746 -0.0477 -0.2186
vn 0.1210 0.9839 0.1316
vn 0.0395 0.9907 0.1304
vn 0.7034 0.7045 -0.0944
vn 0.0439 0.9971 0.0626
vn 0.3644 0.9296 0.0547
vn 0.2213 0.9731 0.0640
vn 0.1256 0.9901 0.0629
vn 0.3995 0.9160 -0.0373
vn 0.2415 0.9700 -0.0277
vn 0.1354 0.9903 -0.0299
vn 0.0473 0.9984 -0.0306
vn 0.4363 0.8905 -0.1289
vn 0.2646 0.9557 -0.1288
vn 0.1465 0.9800 -0.1344
vn 0.0512 0.9893 -0.1367
vn 0.2893 0.9281 -0.2345
vn 0.0550 0.9674 -0.2472
vn 0.3078 0.8851 -0.3491
vn 0.7172 0.6245 -0.3092
vn 0.7182 0.6689 -0.1920
vn 0.6803 0.7329 -0.0086
vn 0.6541 0.7531 0.0703
vn 0.8124 0.5799 -0.0614
vn 0.8012 0.5979 0.0236
vn 0.7729 0.6307 0.0698
vn 0.8455 0.5308 0.0588
vn 0.8881 0.4594 -0.0154
vn 0.4753 0.8493 -0.2298
vn 0.6221 0.7112 -0.3273
vn 0.6098 0.7614 -0.2202
vn 0.5893 0.7998 -0.1139
vn 0.5687 0.8222 -0.0225
vn 0.5459 0.8353 0.0659
vn 0.7176 0.6890 0.1010
vn 0.5204 0.8431 0.1357
vn 0.6235 0.7697 0.1370
vn -0.0017 0.4433 -0.8964
vn 0.0158 0.9562 -0.2922
vn 0.0060 0.4537 -0.8911
vn 0.0245 0.8943 0.4469
vn 0.1416 0.9476 -0.2862
vn 0.0298 0.4674 -0.8836
vn 0.1798 0.8765 0.4466
vn 0.1285 0.5330 0.8363
vn 0.0197 0.5291 0.8483
vn 0.2949 0.9098 -0.2921
vn 0.0573 0.4878 -0.8711
vn 0.3491 0.8343 0.4267
vn 0.2582 0.5416 0.8000
vn 0.4454 0.8365 -0.3191
vn 0.1074 -0.0651 0.9921
vn 0.0507 -0.0553 0.9972
vn 0.0065 -0.0534 0.9986
vn 0.5279 0.7557 0.3875
vn 0.4135 0.5176 0.7490
vn 0.1712 -0.1026 0.9799
vn 0.1015 0.4889 -0.8664
vn 0.6439 0.6710 0.3677
vn 0.5130 0.4713 0.7174
vn 0.5475 0.7726 -0.3215
vn 0.1825 -0.1216 0.9757
vn 0.6194 0.3978 0.6769
vn 0.6427 0.6900 -0.3330
vn 0.1812 -0.1248 0.9755
vn 0.8331 0.4248 0.3543
vn 0.1776 -0.1039 0.9786
vn 0.7375 0.2687 0.6196
vn 0.4287 0.7574 0.4925
vn 0.1662 0.8446 0.5090
vn 0.2627 0.8224 0.5047
vn 0.5217 0.7030 0.4834
vn 0.8011 0.3725 0.4685
vn 0.6119 0.6328 0.4744
vn 0.6889 0.5564 0.4645
vn 0.7560 0.4681 0.4575
vn 0.1248 0.3359 0.9336
vn 0.0040 0.4342 0.9008
vn -0.1214 0.4839 0.8667
vn 0.1950 0.4464 -0.8733
vn 0.1970 0.3928 -0.8982
vn 0.4045 0.8481 -0.3421
vn 0.3797 0.8950 -0.2339
vn 0.3476 0.9287 -0.1296
vn 0.3170 0.9479 -0.0322
vn 0.2894 0.9553 0.0600
vn 0.2699 0.9539 0.1315
vn 0.0984 0.8564 0.5069
vn 0.0277 -0.0538 0.9982
vn 0.0750 0.5298 0.8448
vn 0.1002 0.8883 0.4483
vn 0.0736 0.9543 -0.2896
vn -0.0002 0.4474 -0.8943
vn 0.2089 0.8355 0.5083
vn 0.0750 -0.0579 0.9955
vn 0.1895 0.5385 0.8210
vn 0.2654 0.8580 0.4397
vn 0.2191 0.9329 -0.2859
vn 0.0164 0.4606 -0.8875
vn 0.2037 0.9699 0.1334
vn 0.3319 0.9348 0.1268
vn 0.3395 0.7971 0.4994
vn 0.1414 -0.0789 0.9868
vn 0.3307 0.5373 0.7758
vn 0.4264 0.8073 0.4080
vn 0.3593 0.8813 -0.3071
vn 0.0481 0.4704 -0.8811
vn 0.9401 0.1908 0.2825
vn -0.3505 0.9306 -0.1053
vn 0.1080 0.6097 -0.7852
vn -0.3160 0.9347 -0.1625
vn 0.9494 0.1876 0.2518
vn -0.2936 0.9208 -0.2566
vn 0.9566 0.1819 0.2275
vn -0.2832 0.8929 -0.3500
vn 0.9636 0.1762 0.2011
vn 0.9700 0.1669 0.1767
vn -0.2784 0.8452 -0.4563
vn 0.9760 0.1592 0.1484
vn 0.9109 0.3783 -0.1645
vn -0.1201 0.5583 -0.8209
vn -0.0165 0.5112 -0.8593
vn -0.0046 0.2139 -0.9769
vn 0.2852 0.3889 -0.8761
vn 0.3392 0.3490 -0.8736
vn 0.2523 0.4203 -0.8716
vn 0.2960 0.3690 -0.8810
vn 0.8895 0.3772 -0.2579
vn 0.7019 0.3265 -0.6330
vn 0.0875 0.5353 -0.8401
vn 0.0951 0.5978 -0.7960
vn 0.3149 0.4413 -0.8403
vn -0.2082 0.5292 -0.8226
vn 0.8799 0.4144 -0.2326
vn 0.2128 0.4696 -0.8569
vn 0.1261 0.4891 -0.8631
vn 0.0627 0.5215 -0.8510
vn 0.0549 0.7337 -0.6772
vn -0.0225 0.7709 -0.6366
vn 0.3196 0.3972 -0.8603
vn 0.3719 0.3739 -0.8496
vn 0.0769 0.5037 -0.8605
vn 0.0299 0.5170 -0.8555
vn -0.1183 0.6099 -0.7836
vn 0.0967 0.6224 -0.7767
vn 0.1881 0.4899 -0.8513
vn 0.0498 0.3427 -0.9381
vn 0.0356 0.5827 -0.8119
vn -0.0898 0.6838 -0.7241
vn 0.1925 0.4729 -0.8598
vn 1.0000 -0.0000 -0.0000
vn -0.2724 0.7828 -0.5594
vn 0.1670 0.9176 -0.3608
vn 0.1578 0.9570 -0.2436
vn 0.8994 0.4252 -0.1015
vn 0.5094 0.7895 -0.3423
vn 0.4173 -0.7185 0.5564
vn -0.1671 -0.9174 0.3611
vn -0.1580 -0.9569 0.2436
vn -0.5231 -0.7832 0.3361
vn 0.0287 0.8621 0.5060
vn -0.1301 0.8117 0.5695
vn 0.7072 0.3044 0.6381
vn 0.1600 0.4700 -0.8680
vn 0.1730 -0.0164 0.9848
vn 0.7507 0.5573 0.3548
vn 0.8331 0.5480 0.0750
vn 0.1740 0.1189 0.9775
vn 0.8651 0.4999 0.0407
vn 0.8190 0.5100 -0.2631
vn 0.8204 0.5513 -0.1513
vn -0.7003 -0.3018 -0.6469
vn -0.1534 -0.4644 0.8722
vn -0.1704 0.0185 -0.9852
vn -0.7489 -0.5610 -0.3528
vn -0.8284 -0.5335 -0.1707
vn -0.1687 -0.1396 -0.9757
vn -0.8628 -0.5036 -0.0450
vn -0.8192 -0.5099 0.2625
vn 0.9334 0.3469 -0.0918
vn -0.8122 -0.5801 0.0616
vt 0.982542 0.004129
vt 0.993500 0.010893
vt 0.993541 0.011666
vt 0.993576 0.012374
vt 0.993609 0.013093
vt 0.993624 0.013847
vt 0.982508 0.009347
vt 0.997795 0.007874
vt 0.988379 0.003252
vt 0.981757 0.003593
vt 0.987007 0.002675
vt 0.988027 0.003107
vt 0.985913 0.002789
vt 0.983272 0.009466
vt 0.997204 0.008525
vt 0.983786 0.009344
vt 0.982068 0.005410
vt 0.992268 0.011059
vt 0.991253 0.014522
vt 0.991452 0.011247
vt 0.989761 0.007272
vt 0.981885 0.006331
vt 0.993093 0.011700
vt 0.992643 0.011746
vt 0.992605 0.012442
vt 0.993090 0.012406
vt 0.992555 0.013135
vt 0.993081 0.013115
vt 0.992492 0.013846
vt 0.993057 0.013849
vt 0.992414 0.014589
vt 0.994923 0.012558
vt 0.995430 0.012669
vt 0.995949 0.012738
vt 0.996473 0.012769
vt 0.996992 0.012781
vt 0.994809 0.011963
vt 0.995268 0.012049
vt 0.995761 0.012103
vt 0.996256 0.012131
vt 0.996759 0.012152
vt 0.995598 0.011493
vt 0.996078 0.011529
vt 0.996546 0.011535
vt 0.982091 0.008740
vt 0.996872 0.011568
vt 0.991395 0.013853
vt 0.991528 0.013179
vt 0.991652 0.012528
vt 0.991759 0.011877
vt 0.989346 0.004034
vt 0.990678 0.014477
vt 0.990852 0.013846
vt 0.989296 0.004680
vt 0.991014 0.013205
vt 0.989317 0.005329
vt 0.991168 0.012580
vt 0.989400 0.005965
vt 0.991304 0.011961
vt 0.989545 0.006582
vt 0.997208 0.012196
vt 0.981952 0.008035
vt 0.997532 0.012786
vt 0.981872 0.007349
vt 0.993089 0.010929
vt 0.982351 0.004543
vt 0.982472 0.008985
vt 0.997587 0.007603
vt 0.988224 0.003784
vt 0.981521 0.004083
vt 0.982417 0.008272
vt 0.997227 0.007022
vt 0.987051 0.003250
vt 0.987869 0.003655
vt 0.987985 0.004881
vt 0.981147 0.005126
vt 0.982369 0.007524
vt 0.996905 0.006373
vt 0.983196 0.008992
vt 0.985949 0.003269
vt 0.983098 0.008033
vt 0.986012 0.004232
vt 0.987126 0.004412
vt 0.987636 0.004787
vt 0.987864 0.006008
vt 0.980951 0.006238
vt 0.996469 0.007469
vt 0.983612 0.007999
vt 0.996942 0.008189
vt 0.983714 0.008898
vt 0.987177 0.005605
vt 0.987527 0.005974
vt 0.996636 0.005590
vt 0.982321 0.006681
vt 0.983068 0.006996
vt 0.986070 0.005268
vt 0.996050 0.006653
vt 0.983561 0.007050
vt 0.986111 0.006485
vt 0.983146 0.005782
vt 0.987194 0.007000
vt 0.987546 0.007369
vt 0.980949 0.007572
vt 0.987870 0.007343
vt 0.996544 0.005130
vt 0.982314 0.006209
vt 0.983601 0.005948
vt 0.995707 0.005626
vt 0.983264 0.005173
vt 0.986098 0.007110
vt 0.983697 0.005343
vt 0.995617 0.005020
vt 0.987630 0.008080
vt 0.987178 0.007718
vt 0.987940 0.008019
vt 0.981056 0.008242
vt 0.996506 0.004664
vt 0.982337 0.005742
vt 0.983475 0.004524
vt 0.986040 0.007800
vt 0.995632 0.004393
vt 0.983870 0.004749
vt 0.982395 0.005321
vt 0.996524 0.004239
vt 0.982512 0.004925
vt 0.996607 0.003831
vt 0.984116 0.004200
vt 0.995750 0.003789
vt 0.991831 0.014555
vt 0.991943 0.013846
vt 0.992043 0.013156
vt 0.992132 0.012483
vt 0.992206 0.011805
vt 0.982442 0.008623
vt 0.997396 0.007315
vt 0.996698 0.007835
vt 0.983657 0.008449
vt 0.983139 0.008516
vt 0.985981 0.003749
vt 0.987091 0.003828
vt 0.987738 0.004214
vt 0.988092 0.004326
vt 0.981315 0.004593
vt 0.982196 0.004969
vt 0.992678 0.010985
vt 0.982394 0.007915
vt 0.997067 0.006717
vt 0.996253 0.007081
vt 0.983579 0.007539
vt 0.983073 0.007531
vt 0.986041 0.004734
vt 0.987155 0.005009
vt 0.987565 0.005380
vt 0.987909 0.005440
vt 0.981025 0.005675
vt 0.981967 0.005860
vt 0.991862 0.011145
vt 0.982345 0.007134
vt 0.996765 0.006018
vt 0.995864 0.006175
vt 0.983564 0.006526
vt 0.983086 0.006412
vt 0.986096 0.005852
vt 0.987194 0.006275
vt 0.987514 0.006645
vt 0.987847 0.006655
vt 0.980919 0.006885
vt 0.997865 0.013386
vt 0.988970 0.003530
vt 0.981861 0.006635
vt 0.997251 0.013419
vt 0.988878 0.004235
vt 0.996703 0.013428
vt 0.988825 0.004862
vt 0.996141 0.013397
vt 0.988800 0.005495
vt 0.995572 0.013318
vt 0.988806 0.006131
vt 0.995023 0.013175
vt 0.988844 0.006764
vt 0.989884 0.007051
vt 0.989157 0.003583
vt 0.982032 0.006530
vt 0.989076 0.004199
vt 0.989705 0.006464
vt 0.989022 0.004812
vt 0.989571 0.005868
vt 0.988995 0.005431
vt 0.989496 0.005254
vt 0.989483 0.004629
vt 0.988996 0.006056
vt 0.989537 0.004009
vt 0.989027 0.006679
vt 0.982680 0.004601
vt 0.996746 0.003489
vt 0.995375 0.009908
vt 0.996754 0.003461
vt 0.982702 0.006945
vt 0.982695 0.007217
vt 0.982697 0.006795
vt 0.982727 0.009151
vt 0.982734 0.008964
vt 0.982723 0.009315
vt 0.982636 0.008401
vt 0.982654 0.008285
vt 0.982695 0.008620
vt 0.982670 0.007749
vt 0.982676 0.007950
vt 0.982658 0.007577
vt 0.982671 0.006527
vt 0.982702 0.006355
vt 0.982657 0.006587
vt 0.982645 0.004900
vt 0.982631 0.004808
vt 0.982671 0.005007
vt 0.982689 0.005902
vt 0.982700 0.006085
vt 0.982652 0.005674
vt 0.982686 0.005462
vt 0.982647 0.005696
vt 0.982681 0.005270
vt 0.995474 0.009586
vt 0.995564 0.009325
vt 0.982666 0.008120
vt 0.982668 0.007369
vt 0.982641 0.007488
vt 0.993500 0.010893
vt 0.982542 0.004129
vt 0.993541 0.011666
vt 0.993576 0.012374
vt 0.993609 0.013093
vt 0.993624 0.013847
vt 0.997795 0.007874
vt 0.982508 0.009347
vt 0.981757 0.003593
vt 0.988379 0.003252
vt 0.988027 0.003107
vt 0.987007 0.002675
vt 0.985913 0.002789
vt 0.983272 0.009466
vt 0.983786 0.009344
vt 0.997204 0.008525
vt 0.982068 0.005410
vt 0.992268 0.011059
vt 0.991253 0.014522
vt 0.991452 0.011247
vt 0.989761 0.007272
vt 0.981885 0.006331
vt 0.993093 0.011700
vt 0.992643 0.011746
vt 0.992605 0.012442
vt 0.993090 0.012406
vt 0.992555 0.013135
vt 0.993081 0.013115
vt 0.992492 0.013846
vt 0.993057 0.013849
vt 0.992414 0.014589
vt 0.994923 0.012558
vt 0.995430 0.012669
vt 0.995949 0.012738
vt 0.996473 0.012769
vt 0.996992 0.012781
vt 0.994809 0.011963
vt 0.995268 0.012049
vt 0.995761 0.012103
vt 0.996256 0.012131
vt 0.996759 0.012152
vt 0.995126 0.011434
vt 0.995598 0.011493
vt 0.996078 0.011529
vt 0.996546 0.011535
vt 0.982091 0.008740
vt 0.996872 0.011568
vt 0.991395 0.013853
vt 0.991528 0.013179
vt 0.991652 0.012528
vt 0.991759 0.011877
vt 0.989346 0.004034
vt 0.990678 0.014477
vt 0.990852 0.013846
vt 0.989296 0.004680
vt 0.991014 0.013205
vt 0.989317 0.005329
vt 0.991168 0.012580
vt 0.989400 0.005965
vt 0.991304 0.011961
vt 0.989545 0.006582
vt 0.997208 0.012196
vt 0.981952 0.008035
vt 0.997532 0.012786
vt 0.981872 0.007349
vt 0.993089 0.010929
vt 0.982351 0.004543
vt 0.997587 0.007603
vt 0.982472 0.008985
vt 0.988224 0.003784
vt 0.981521 0.004083
vt 0.982417 0.008272
vt 0.997227 0.007022
vt 0.987051 0.003250
vt 0.987869 0.003655
vt 0.987985 0.004881
vt 0.981147 0.005126
vt 0.982369 0.007524
vt 0.996905 0.006373
vt 0.983196 0.008992
vt 0.985949 0.003269
vt 0.983098 0.008033
vt 0.986012 0.004232
vt 0.987126 0.004412
vt 0.987636 0.004787
vt 0.987864 0.006008
vt 0.980951 0.006238
vt 0.996469 0.007469
vt 0.983612 0.007999
vt 0.996942 0.008189
vt 0.983714 0.008898
vt 0.987177 0.005605
vt 0.987527 0.005974
vt 0.996636 0.005590
vt 0.982321 0.006681
vt 0.983068 0.006996
vt 0.986070 0.005268
vt 0.996050 0.006653
vt 0.983561 0.007050
vt 0.986111 0.006485
vt 0.983146 0.005782
vt 0.987194 0.007000
vt 0.987546 0.007369
vt 0.980949 0.007572
vt 0.987870 0.007343
vt 0.996544 0.005130
vt 0.982314 0.006209
vt 0.983601 0.005948
vt 0.995707 0.005626
vt 0.983264 0.005173
vt 0.986098 0.007110
vt 0.983697 0.005343
vt 0.995617 0.005020
vt 0.987630 0.008080
vt 0.987178 0.007718
vt 0.987940 0.008019
vt 0.981056 0.008242
vt 0.996506 0.004664
vt 0.982337 0.005742
vt 0.983475 0.004524
vt 0.986040 0.007800
vt 0.995632 0.004393
vt 0.983870 0.004749
vt 0.982395 0.005321
vt 0.996524 0.004239
vt 0.982512 0.004925
vt 0.996607 0.003831
vt 0.984116 0.004200
vt 0.995750 0.003789
vt 0.991831 0.014555
vt 0.991943 0.013846
vt 0.992043 0.013156
vt 0.992132 0.012483
vt 0.992206 0.011805
vt 0.982442 0.008623
vt 0.997396 0.007315
vt 0.996698 0.007835
vt 0.983657 0.008449
vt 0.983139 0.008516
vt 0.985981 0.003749
vt 0.987091 0.003828
vt 0.987738 0.004214
vt 0.988092 0.004326
vt 0.981315 0.004593
vt 0.982196 0.004969
vt 0.992678 0.010985
vt 0.982394 0.007915
vt 0.997067 0.006717
vt 0.996253 0.007081
vt 0.983579 0.007539
vt 0.983073 0.007531
vt 0.986041 0.004734
vt 0.987155 0.005009
vt 0.987565 0.005380
vt 0.987909 0.005440
vt 0.981025 0.005675
vt 0.981967 0.005860
vt 0.991862 0.011145
vt 0.982345 0.007134
vt 0.996765 0.006018
vt 0.995864 0.006175
vt 0.983564 0.006526
vt 0.983086 0.006412
vt 0.986096 0.005852
vt 0.987194 0.006275
vt 0.987514 0.006645
vt 0.987847 0.006655
vt 0.980919 0.006885
vt 0.997865 0.013386
vt 0.988970 0.003530
vt 0.981861 0.006635
vt 0.997251 0.013419
vt 0.988878 0.004235
vt 0.996703 0.013428
vt 0.988825 0.004862
vt 0.996141 0.013397
vt 0.988800 0.005495
vt 0.995572 0.013318
vt 0.988806 0.006131
vt 0.995023 0.013175
vt 0.988844 0.006764
vt 0.989884 0.007051
vt 0.989157 0.003583
vt 0.982032 0.006530
vt 0.989076 0.004199
vt 0.989705 0.006464
vt 0.989022 0.004812
vt 0.989571 0.005868
vt 0.988995 0.005431
vt 0.989496 0.005254
vt 0.989483 0.004629
vt 0.988996 0.006056
vt 0.989537 0.004009
vt 0.989027 0.006679
vt 0.982680 0.004601
vt 0.996746 0.003489
vt 0.995375 0.009908
vt 0.996754 0.003461
vt 0.982702 0.006945
vt 0.982695 0.007217
vt 0.982697 0.006795
vt 0.982727 0.009151
vt 0.982734 0.008964
vt 0.982636 0.008401
vt 0.982654 0.008285
vt 0.982695 0.008620
vt 0.982670 0.007749
vt 0.982676 0.007950
vt 0.982658 0.007577
vt 0.982671 0.006527
vt 0.982702 0.006355
vt 0.982657 0.006587
vt 0.982645 0.004900
vt 0.982631 0.004808
vt 0.982671 0.005007
vt 0.982689 0.005902
vt 0.982700 0.006085
vt 0.982652 0.005674
vt 0.982686 0.005462
vt 0.982647 0.005696
vt 0.982681 0.005270
vt 0.995474 0.009586
vt 0.995564 0.009325
vt 0.982666 0.008120
vt 0.982668 0.007369
vt 0.982641 0.007488
vt 0.982723 0.009315
vt 0.991207 0.014710
vt 0.989406 0.003745
vt 0.990590 0.014758
vt 0.991809 0.014676
vt 0.994707 0.011940
vt 0.993617 0.014546
vt 0.994757 0.012510
vt 0.993016 0.014593
vt 0.992780 0.014610
vt 0.992408 0.014636
vt 0.994817 0.013097
vt 0.988871 0.007011
vt 0.989589 0.003745
vt 0.989053 0.006947
vt 0.991210 0.014698
vt 0.989401 0.003768
vt 0.990597 0.014735
vt 0.991811 0.014662
vt 0.994715 0.011942
vt 0.993617 0.014532
vt 0.994764 0.012512
vt 0.993016 0.014578
vt 0.992667 0.014603
vt 0.992410 0.014621
vt 0.994813 0.013095
vt 0.988872 0.007016
vt 0.989587 0.003757
vt 0.989052 0.006936
vt 0.982723 0.009315
vt 0.982723 0.009315
vt 0.995222 0.011446
vt 0.995576 0.009294
vt 0.994725 0.011496
vt 0.995573 0.011356
vt 0.995026 0.009726
vt 0.996410 0.003269
vt 0.995210 0.009583
vt 0.995521 0.009338
vt 0.995133 0.011464
vt 0.996017 0.011199
vt 0.996413 0.011047
vt 0.987711 0.008489
vt 0.987158 0.008138
vt 0.996081 0.003543
vt 0.981830 0.009224
vt 0.988054 0.008678
vt 0.981241 0.008878
vt 0.982347 0.009390
vt 0.996541 0.010957
vt 0.981476 0.008986
vt 0.984115 0.004199
vt 0.984116 0.004199
vt 0.995750 0.003788
vt 0.986527 0.008105
vt 0.985985 0.008115
vt 0.983613 0.004247
vt 0.994770 0.011382
vt 0.995111 0.011340
vt 0.995565 0.009322
vt 0.994706 0.011387
vt 0.995549 0.011228
vt 0.995001 0.009713
vt 0.996385 0.003255
vt 0.995188 0.009583
vt 0.995558 0.009327
vt 0.995994 0.011079
vt 0.996382 0.010934
vt 0.987729 0.008578
vt 0.987154 0.008229
vt 0.996025 0.003513
vt 0.981841 0.009204
vt 0.988062 0.008723
vt 0.981254 0.008921
vt 0.982375 0.009462
vt 0.996504 0.010889
vt 0.981428 0.009005
vt 0.984027 0.004131
vt 0.984160 0.004123
vt 0.995776 0.003702
vt 0.986695 0.008210
vt 0.985965 0.008232
vt 0.983665 0.004143
vt 0.994673 0.011385
vt 0.994673 0.011493
s 0
f 14/23/1 15/24/1 90/145/1 48/65/1
f 2/3/2 14/23/2 48/65/2 1/2/2
f 304/472/3 354/536/3 355/537/3 293/458/3 295/460/3 299/465/3 300/466/3 291/456/3 290/454/3 292/457/3 298/463/3 297/462/3 296/461/3 294/459/3 305/473/3 307/475/3 308/476/3 309/477/3 303/471/3 301/468/3 302/469/3 311/481/3 310/478/3 306/474/3
f 30/39/4 25/34/4 24/33/4 29/38/4
f 14/23/5 2/3/5 3/4/5 17/26/5
f 45/59/6 40/50/6 39/49/6 44/57/6
f 84/133/7 15/24/7 16/25/7 83/132/7
f 15/24/8 14/23/8 17/26/8 16/25/8
f 44/57/9 39/49/9 38/48/9 43/55/9
f 18/27/10 82/131/10 83/132/10 16/25/10
f 16/25/11 17/26/11 19/28/11 18/27/11
f 4/5/12 19/28/12 17/26/12 3/4/12
f 43/55/13 38/48/13 37/47/13 42/53/13
f 82/131/14 18/27/14 20/29/14 81/130/14
f 18/27/15 19/28/15 21/30/15 20/29/15
f 5/6/16 21/30/16 19/28/16 4/5/16
f 81/130/17 20/29/17 22/31/17 80/129/17
f 294/459/18 296/461/18 21/30/18 5/6/18
f 298/463/19 292/457/19 80/129/19 22/31/19
f 295/460/20 293/458/20 28/37/20 23/32/20
f 23/32/21 28/37/21 29/38/21 24/33/21
f 25/34/22 30/39/22 31/40/22 26/35/22
f 32/41/23 27/36/23 26/35/23 31/40/23
f 321/492/24 29/38/24 28/37/24 316/486/24
f 34/43/25 31/40/25 30/39/25 33/42/25
f 31/40/26 34/43/26 35/44/26 32/41/26
f 339/516/27 340/517/27 341/518/27 336/512/27 315/485/27 320/491/27 319/490/27 318/489/27 325/497/27 331/505/27 330/504/27 333/508/27 332/507/27 324/495/27 327/500/27 329/503/27 326/498/27 328/502/27 323/494/27 322/493/27 317/487/27 314/484/27 321/492/27 316/486/27 355/537/27 354/536/27 337/513/27 334/510/27 335/511/27 338/514/27 342/519/27 343/520/27 348/527/27 346/524/27 349/529/27 347/525/27 344/522/27 352/533/27 353/535/27 350/530/27 351/532/27 345/523/27
f 323/494/28 35/44/28 34/43/28 322/493/28
f 317/487/29 33/42/29 314/484/29
f 42/53/30 37/47/30 12/19/30 41/52/30
f 299/464/31 295/460/31 23/32/31 107/179/31
f 107/179/32 23/32/32 24/33/32 106/177/32
f 106/177/33 24/33/33 25/34/33 105/175/33
f 105/175/34 25/34/34 26/35/34 104/173/34
f 104/173/35 26/35/35 27/36/35 103/171/35
f 32/41/36 35/44/36 36/46/36 46/61/36
f 47/63/37 102/168/37 103/171/37 27/36/37
f 27/36/38 32/41/38 46/61/38 47/63/38
f 7/10/39 1/1/39 48/66/39 50/70/39
f 8/12/40 7/9/40 50/69/40 52/74/40
f 89/143/41 90/144/41 11/17/41 53/76/41
f 8/11/42 52/73/42 55/80/42 9/13/42
f 89/142/43 53/75/43 57/84/43 88/141/43
f 13/22/44 58/86/44 95/155/44 96/156/44
f 56/82/45 87/139/45 88/140/45 57/83/45
f 87/138/46 56/81/46 59/88/46 86/137/46
f 9/14/47 55/79/47 60/90/47 10/16/47
f 61/92/48 94/153/48 95/154/48 58/85/48
f 101/167/49 102/170/49 47/64/49 67/103/49
f 63/96/50 93/151/50 94/152/50 61/91/50
f 64/98/51 92/149/51 93/150/51 63/95/51
f 101/166/52 67/104/52 66/102/52 100/165/52
f 54/78/53 91/147/53 92/148/53 64/97/53
f 51/72/54 85/135/54 86/136/54 59/87/54
f 49/68/55 6/8/55 10/15/55 60/89/55
f 100/164/56 66/101/56 65/99/56 99/163/56
f 99/162/57 65/100/57 69/107/57 98/161/57
f 98/160/58 69/108/58 62/93/58 97/159/58
f 67/103/59 47/64/59 46/62/59 73/116/59
f 70/110/60 65/99/60 66/101/60 72/114/60
f 71/111/61 69/107/61 65/100/61 70/109/61
f 72/113/62 66/102/62 67/104/62 73/115/62
f 69/108/63 71/112/63 68/105/63 62/93/63
f 76/122/64 71/111/64 70/109/64 75/119/64
f 324/495/65 72/113/65 73/115/65 327/499/65
f 74/117/66 68/105/66 71/112/66 76/121/66
f 333/508/67 75/120/67 332/507/67
f 76/121/68 79/128/68 77/124/68 74/117/68
f 331/505/69 79/127/69 330/504/69
f 117/199/70 97/158/70 62/94/70 118/200/70 116/198/70
f 6/7/71 49/67/71 120/202/71 119/201/71 121/203/71 289/453/71
f 124/206/72 85/134/72 51/71/72 123/205/72 122/204/72
f 126/208/73 91/146/73 54/77/73 127/209/73 125/207/73
f 118/200/74 62/94/74 68/106/74 129/211/74 128/210/74 130/212/74
f 133/215/75 78/125/75 114/194/75 132/214/75 131/213/75
f 129/211/76 68/106/76 74/118/76 134/216/76 135/217/76
f 138/220/77 134/216/77 74/118/77 77/123/77 137/219/77 136/218/77
f 137/219/78 77/123/78 78/125/78 133/215/78 139/221/78
f 319/490/79 140/222/79 115/196/79 318/488/79
f 320/491/80 141/223/80 140/222/80 319/490/80
f 320/491/81 315/485/81 141/223/81
f 329/503/82 36/45/82 326/498/82
f 326/498/83 36/45/83 328/501/83
f 292/457/84 290/454/84 12/19/84 80/129/84
f 80/129/85 12/19/85 37/47/85 81/130/85
f 81/130/86 37/47/86 38/48/86 82/131/86
f 82/131/87 38/48/87 39/49/87 83/132/87
f 83/132/88 39/49/88 40/50/88 84/133/88
f 84/133/89 40/50/89 96/157/89 11/18/89
f 120/202/90 49/67/90 85/134/90 124/206/90
f 85/135/91 49/68/91 60/89/91 86/136/91
f 55/79/92 87/138/92 86/137/92 60/90/92
f 87/139/93 55/80/93 52/73/93 88/140/93
f 50/69/94 89/142/94 88/141/94 52/74/94
f 50/70/95 48/66/95 90/144/95 89/143/95
f 123/205/96 51/71/96 91/146/96 126/208/96 142/224/96
f 59/87/97 92/148/97 91/147/97 51/72/97
f 56/81/98 93/150/98 92/149/98 59/88/98
f 57/83/99 94/152/99 93/151/99 56/82/99
f 53/75/100 95/154/100 94/153/100 57/84/100
f 53/76/101 11/17/101 96/156/101 95/155/101
f 15/24/102 84/133/102 11/18/102 90/145/102
f 13/20/103 96/157/103 40/50/103 45/59/103
f 144/226/104 127/209/104 54/77/104 97/158/104 117/199/104 143/225/104
f 97/159/105 54/78/105 64/97/105 98/160/105
f 98/161/106 64/98/106 63/95/106 99/162/106
f 99/163/107 63/96/107 61/91/107 100/164/107
f 100/165/108 61/92/108 58/85/108 101/166/108
f 58/86/109 13/22/109 102/170/109 101/167/109
f 45/60/110 109/185/110 108/181/110 13/21/110
f 102/169/111 108/182/111 109/184/111 103/172/111
f 102/170/112 13/22/112 108/183/112
f 103/172/113 109/184/113 110/186/113 104/174/113
f 44/58/114 110/187/114 109/185/114 45/60/114
f 104/174/115 110/186/115 111/188/115 105/176/115
f 43/56/116 111/189/116 110/187/116 44/58/116
f 105/176/117 111/188/117 112/191/117 106/178/117
f 42/54/118 112/190/118 111/189/118 43/56/118
f 41/51/119 113/192/119 112/190/119 42/54/119
f 106/178/120 112/191/120 113/193/120 107/180/120
f 291/455/121 300/466/121 113/192/121 41/51/121
f 158/249/122 193/292/122 235/372/122 159/250/122
f 146/229/123 145/227/123 193/292/123 158/249/123
f 174/265/124 173/264/124 168/259/124 169/260/124
f 158/249/125 161/252/125 147/230/125 146/229/125
f 190/286/126 189/284/126 184/276/126 185/277/126
f 229/360/127 228/359/127 160/251/127 159/250/127
f 159/250/128 160/251/128 161/252/128 158/249/128
f 189/284/129 188/282/129 183/275/129 184/276/129
f 162/253/130 160/251/130 228/359/130 227/358/130
f 160/251/131 162/253/131 163/254/131 161/252/131
f 148/231/132 147/230/132 161/252/132 163/254/132
f 188/282/133 187/280/133 182/274/133 183/275/133
f 227/358/134 226/357/134 164/255/134 162/253/134
f 162/253/135 164/255/135 165/256/135 163/254/135
f 149/232/136 148/231/136 163/254/136 165/256/136
f 226/357/137 225/356/137 166/257/137 164/255/137
f 305/473/138 149/232/138 165/256/138 307/475/138
f 309/477/139 166/257/139 225/356/139 303/471/139
f 306/474/140 167/258/140 172/263/140 304/472/140
f 167/258/141 168/259/141 173/264/141 172/263/141
f 169/260/142 170/261/142 175/266/142 174/265/142
f 176/267/143 175/266/143 170/261/143 171/262/143
f 173/264/144 174/265/144 178/269/144 177/268/144
f 179/270/145 178/269/145 174/265/145 175/266/145
f 175/266/146 176/267/146 180/271/146 179/270/146
f 343/520/147 342/519/147 179/270/147 180/271/147
f 338/514/148 335/511/148 177/268/148 178/269/148
f 187/280/149 186/279/149 156/245/149 182/274/149
f 310/478/150 252/406/150 167/258/150 306/474/150
f 252/406/151 251/404/151 168/259/151 167/258/151
f 251/404/152 250/402/152 169/260/152 168/259/152
f 250/402/153 249/400/153 170/261/153 169/260/153
f 249/400/154 248/398/154 171/262/154 170/261/154
f 176/267/155 191/288/155 181/273/155 180/271/155
f 192/290/156 171/262/156 248/398/156 247/395/156
f 171/262/157 192/290/157 191/288/157 176/267/157
f 151/235/158 195/297/158 193/293/158 145/228/158
f 152/237/159 197/301/159 195/296/159 151/236/159
f 234/370/160 198/303/160 155/243/160 235/371/160
f 152/238/161 153/239/161 200/307/161 197/300/161
f 234/369/162 233/368/162 202/311/162 198/302/162
f 157/248/163 241/383/163 240/382/163 203/313/163
f 201/309/164 202/310/164 233/367/164 232/366/164
f 232/365/165 231/364/165 204/315/165 201/308/165
f 153/240/166 154/241/166 205/317/166 200/306/166
f 206/319/167 203/312/167 240/381/167 239/380/167
f 246/394/168 212/330/168 192/291/168 247/397/168
f 208/323/169 206/318/169 239/379/169 238/378/169
f 209/325/170 208/322/170 238/377/170 237/376/170
f 246/393/171 245/392/171 211/329/171 212/331/171
f 199/305/172 209/324/172 237/375/172 236/374/172
f 196/299/173 204/314/173 231/363/173 230/362/173
f 194/294/174 205/316/174 154/242/174 150/233/174
f 245/391/175 244/390/175 210/326/175 211/328/175
f 244/389/176 243/388/176 214/334/176 210/327/176
f 243/387/177 242/386/177 207/320/177 214/335/177
f 212/330/178 218/343/178 191/289/178 192/291/178
f 215/337/179 217/341/179 211/328/179 210/326/179
f 216/338/180 215/336/180 210/327/180 214/334/180
f 217/340/181 218/342/181 212/331/181 211/329/181
f 214/335/182 207/320/182 213/332/182 216/339/182
f 221/349/183 220/346/183 215/336/183 216/338/183
f 344/521/184 347/525/184 218/342/184 217/340/184
f 219/344/185 221/348/185 216/339/185 213/332/185
f 353/534/186 352/533/186 220/347/186
f 221/348/187 219/344/187 222/351/187 224/355/187
f 351/531/188 350/530/188 224/354/188
f 262/426/189 261/425/189 263/427/189 207/321/189 242/385/189
f 268/432/190 266/430/190 267/431/190 196/298/190 230/361/190
f 270/434/191 269/433/191 271/435/191 199/304/191 236/373/191
f 263/427/192 274/438/192 272/436/192 273/437/192 213/333/192 207/321/192
f 277/441/193 275/439/193 276/440/193 259/421/193 223/352/193
f 273/437/194 279/443/194 278/442/194 219/345/194 213/333/194
f 282/446/195 280/444/195 281/445/195 222/350/195 219/345/195 278/442/195
f 281/445/196 283/447/196 277/441/196 223/352/196 222/350/196
f 339/515/197 260/423/197 284/448/197 340/517/197
f 340/517/198 284/448/198 285/449/198 341/518/198
f 341/518/199 285/449/199 336/512/199
f 349/529/200 346/524/200 181/272/200
f 346/524/201 348/527/201 181/272/201
f 303/471/202 225/356/202 156/245/202 301/468/202
f 225/356/203 226/357/203 182/274/203 156/245/203
f 226/357/204 227/358/204 183/275/204 182/274/204
f 227/358/205 228/359/205 184/276/205 183/275/205
f 228/359/206 229/360/206 185/277/206 184/276/206
f 229/360/207 155/244/207 241/384/207 185/277/207
f 265/429/208 268/432/208 230/361/208 194/295/208
f 230/362/209 231/363/209 205/316/209 194/294/209
f 200/306/210 205/317/210 231/364/210 232/365/210
f 232/366/211 233/367/211 197/300/211 200/307/211
f 195/296/212 197/301/212 233/368/212 234/369/212
f 195/297/213 234/370/213 235/371/213 193/293/213
f 267/431/214 286/450/214 270/434/214 236/373/214 196/298/214
f 204/314/215 196/299/215 236/374/215 237/375/215
f 201/308/216 204/315/216 237/376/216 238/377/216
f 202/310/217 201/309/217 238/378/217 239/379/217
f 198/302/218 202/311/218 239/380/218 240/381/218
f 198/303/219 240/382/219 241/383/219 155/243/219
f 159/250/220 235/372/220 155/244/220 229/360/220
f 157/246/221 190/286/221 185/277/221 241/384/221
f 288/452/222 287/451/222 262/426/222 242/385/222 199/304/222 271/435/222
f 242/386/223 243/387/223 209/324/223 199/305/223
f 243/388/224 244/389/224 208/322/224 209/325/224
f 244/390/225 245/391/225 206/318/225 208/323/225
f 245/392/226 246/393/226 203/312/226 206/319/226
f 203/313/227 246/394/227 247/397/227 157/248/227
f 190/287/228 157/247/228 253/408/228 254/412/228
f 247/396/229 248/399/229 254/411/229 253/409/229
f 247/397/230 253/410/230 157/248/230
f 248/399/231 249/401/231 255/413/231 254/411/231
f 189/285/232 190/287/232 254/412/232 255/414/232
f 249/401/233 250/403/233 256/415/233 255/413/233
f 188/283/234 189/285/234 255/414/234 256/416/234
f 250/403/235 251/405/235 257/418/235 256/415/235
f 187/281/236 188/283/236 256/416/236 257/417/236
f 186/278/237 187/281/237 257/417/237 258/419/237
f 251/405/238 252/407/238 258/420/238 257/418/238
f 302/469/239 186/278/239 258/419/239 311/480/239
f 140/222/240 141/223/240 285/449/240 284/448/240
f 127/209/241 144/226/241 288/452/241 271/435/241
f 120/202/242 124/206/242 268/432/242 265/429/242
f 289/453/243 121/203/243 312/482/243 313/483/243
f 128/210/244 129/211/244 273/437/244 272/436/244
f 130/212/245 128/210/245 272/436/245 274/438/245
f 136/218/246 137/219/246 281/445/246 280/444/246
f 138/220/247 136/218/247 280/444/247 282/446/247
f 114/195/248 115/197/248 260/424/248 259/422/248
f 132/214/249 114/194/249 259/421/249 276/440/249
f 129/211/250 135/217/250 279/443/250 273/437/250
f 137/219/251 139/221/251 283/447/251 281/445/251
f 122/204/252 123/205/252 267/431/252 266/430/252
f 124/206/253 122/204/253 266/430/253 268/432/253
f 115/196/254 140/222/254 284/448/254 260/423/254
f 123/205/255 142/224/255 286/450/255 267/431/255
f 117/199/256 116/198/256 261/425/256 262/426/256
f 116/198/257 118/200/257 263/427/257 261/425/257
f 131/213/258 132/214/258 276/440/258 275/439/258
f 133/215/259 131/213/259 275/439/259 277/441/259
f 143/225/260 117/199/260 262/426/260 287/451/260
f 144/226/261 143/225/261 287/451/261 288/452/261
f 126/208/262 125/207/262 269/433/262 270/434/262
f 125/207/263 127/209/263 271/435/263 269/433/263
f 118/200/264 130/212/264 274/438/264 263/427/264
f 139/221/265 133/215/265 277/441/265 283/447/265
f 119/201/266 120/202/266 265/429/266 264/428/266
f 121/203/267 119/201/267 264/428/267 312/482/267
f 135/217/268 134/216/268 278/442/268 279/443/268
f 134/216/269 138/220/269 282/446/269 278/442/269
f 142/224/270 126/208/270 270/434/270 286/450/270
f 9/14/271 10/16/271 6/8/271 289/453/271 313/483/271 150/234/271 154/242/271 153/240/271 152/238/271 151/236/271 145/228/271 146/229/271 147/230/271 3/4/271 2/3/271 1/2/271 7/10/271 8/12/271
f 252/407/272 310/479/272 311/481/272 258/420/272
f 166/257/273 309/477/273 308/476/273
f 164/255/274 166/257/274 308/476/274 307/475/274 165/256/274
f 334/510/275 177/268/275 335/511/275
f 186/279/276 302/470/276 301/468/276 156/245/276
f 107/180/277 113/193/277 300/467/277 299/465/277
f 22/31/278 297/462/278 298/463/278
f 20/29/279 21/30/279 296/461/279 297/462/279 22/31/279
f 3/4/271 147/230/271 148/231/271 149/232/271 305/473/271 294/459/271 5/6/271 4/5/271
f 41/52/280 12/19/280 290/454/280 291/456/280
f 150/234/281 264/428/281 265/429/281 194/295/281
f 313/483/282 312/482/282 264/428/282 150/234/282
f 224/354/283 350/530/283 353/535/283 220/346/283 221/349/283
f 191/289/284 218/343/284 347/526/284 349/529/284 181/272/284
f 223/353/285 345/523/285 351/532/285 224/355/285 222/351/285
f 220/347/286 352/533/286 344/522/286 217/341/286 215/337/286
f 180/271/287 181/273/287 348/528/287 343/520/287
f 259/422/288 260/424/288 339/516/288 345/523/288 223/353/288
f 178/269/289 179/270/289 342/519/289 338/514/289
f 304/472/290 172/263/290 337/513/290 354/536/290
f 177/268/291 334/510/291 337/513/291 172/263/291 173/264/291
f 79/127/292 76/122/292 75/119/292 333/509/292 330/504/292
f 46/62/293 36/45/293 329/503/293 327/500/293 73/116/293
f 78/126/294 77/124/294 79/128/294 331/506/294 325/497/294
f 75/120/295 70/110/295 72/114/295 324/496/295 332/507/295
f 35/44/296 323/494/296 328/502/296 36/46/296
f 114/195/297 78/126/297 325/497/297 318/489/297 115/197/297
f 33/42/298 317/487/298 322/493/298 34/43/298
f 293/458/299 355/537/299 316/486/299 28/37/299
f 141/223/300 315/485/300 336/512/300 285/449/300
f 29/38/301 321/492/301 314/484/301 33/42/301 30/39/301
