# Blender 3.4.1
# www.blender.org
mtllib 6.mtl
o Megaman_Zero_Helmet_-_Letter_Foam.005
v -8.313375 0.494585 20.240253
v -8.147847 0.188059 20.580265
v -8.308747 0.902473 19.941660
v -8.436563 1.799497 21.353559
v -7.213303 0.000101 21.239590
v -7.787903 -0.022613 20.985222
v -8.337864 1.612109 21.564934
v -7.637324 1.760046 19.488583
v -8.134668 1.323319 19.721684
v -8.438752 2.050541 21.167648
v -8.539875 3.116921 22.480280
v -6.613374 0.395149 21.132992
v -8.123769 1.488541 21.822878
v -8.513798 3.059725 22.539968
v -7.775021 1.517368 22.000351
v -6.794354 1.491880 19.468075
v -8.339304 2.316654 21.031799
v -8.545988 3.190673 22.423792
v -8.420262 3.271226 22.585682
v -7.321259 1.783218 21.937193
v -8.462472 3.034384 22.625147
v -8.040244 2.628049 20.913795
v -8.054633 3.194648 22.732912
v -8.369250 3.102747 22.720160
v -7.478923 2.545957 21.014635
v -8.530431 3.274359 22.387037
v -8.441244 3.433462 22.403389
v -8.111264 3.455699 22.491533
v -8.039673 -1.633139 18.416447
v -8.016823 -1.028439 17.975176
v -7.430596 -1.550647 20.053511
v -7.921699 -1.269524 19.530079
v -8.149359 -0.860101 19.079742
v -8.134007 -0.317832 18.684063
v -7.888823 0.229497 18.392876
v -7.229815 0.842161 18.169296
v -6.250928 -0.310982 20.704271
v -6.926061 -0.761233 20.819490
v -7.611748 -0.784271 20.533947
v -8.040061 -0.535342 20.065292
v -8.237496 -0.174753 19.667337
v -8.227904 0.303700 19.317787
v -8.017680 0.791861 19.060255
v -7.958344 0.734811 21.412777
v -7.495574 0.759865 21.630556
v -6.969670 1.093500 21.541346
v -7.145471 2.040027 20.248409
v -7.841568 2.205265 20.197643
v -8.241174 1.829367 20.378641
v -8.378104 1.483072 20.557714
v -8.378694 1.151513 20.801353
v -8.246324 0.903235 21.078724
v -8.424976 2.311198 22.039324
v -8.490204 2.437057 21.895920
v -8.493844 2.605192 21.769049
v -8.431809 2.787509 21.677309
v -8.230986 3.022311 21.610895
v -7.775478 2.989383 21.714128
v -7.667664 2.459586 22.322733
v -8.053728 2.265969 22.354166
v -8.285058 2.233319 22.218367
v -7.432342 1.303196 18.809204
v -8.185423 0.515897 20.231640
v -8.034860 0.235233 20.536581
v -8.181924 0.891199 19.967901
v -8.308576 1.819732 21.343086
v -7.214732 0.060777 21.124628
v -7.713213 0.043048 20.901497
v -8.223601 1.656385 21.521534
v -7.603429 1.659513 19.563713
v -8.026802 1.276508 19.777124
v -8.311068 2.040065 21.189713
v -8.416159 3.111730 22.440691
v -6.714334 0.392225 21.051147
v -8.045533 1.550480 21.739555
v -8.396968 3.071287 22.484137
v -7.769297 1.576099 21.884516
v -6.882581 1.400008 19.494066
v -8.228226 2.271269 21.081818
v -8.419745 3.166604 22.404211
v -8.345438 3.210405 22.498491
v -7.419046 1.780751 21.851568
v -8.365602 3.058907 22.541992
v -7.999854 2.526368 20.984007
v -8.113735 3.158130 22.623034
v -8.317859 3.097767 22.600855
v -7.564483 2.451043 21.038528
v -8.408583 3.229085 22.385180
v -8.373019 3.323042 22.396132
v -8.157259 3.338520 22.459074
v -7.359391 -1.480457 19.970425
v -7.810129 -1.218741 19.486797
v -8.021574 -0.837039 19.073486
v -8.008231 -0.328935 18.715000
v -7.784498 0.182750 18.454773
v -7.199563 0.745176 18.250406
v -6.352597 -0.312531 20.623272
v -6.929935 -0.697965 20.705990
v -7.539055 -0.716080 20.450487
v -7.927744 -0.486382 20.021843
v -8.109618 -0.152563 19.659931
v -8.101582 0.292506 19.346376
v -7.911456 0.745059 19.118788
v -7.881880 0.798341 21.329010
v -7.494160 0.818921 21.514755
v -7.069420 1.090088 21.458050
v -7.232572 1.946704 20.272989
v -7.804834 2.103681 20.269970
v -8.131729 1.782915 20.431215
v -8.250831 1.471965 20.581758
v -8.250705 1.172133 20.791670
v -8.132703 0.948816 21.034988
v -8.309790 2.354232 21.997131
v -8.362254 2.457262 21.884933
v -8.365662 2.596441 21.788866
v -8.318294 2.745148 21.724422
v -8.184801 2.922287 21.679903
v -7.858882 2.892693 21.738516
v -7.761877 2.460077 22.233156
v -8.039989 2.326110 22.239737
v -8.204060 2.294032 22.136799
v -7.400569 1.204172 18.887207
v -6.933928 0.702900 18.124346
v -6.280532 -0.451677 20.655987
v -7.123822 0.594773 17.853930
v -7.774622 -0.510935 17.698191
v -7.737559 -0.410629 17.667902
v -6.334432 0.223877 19.838497
v -6.473863 0.972520 18.771473
v -6.226717 -0.357868 20.666368
v -6.514049 0.950620 18.713215
v -8.034516 -1.668374 18.386833
v -7.368334 -1.809772 19.881662
v -7.999944 -1.703261 18.493303
v -7.997005 -1.120980 17.888533
v -7.059546 -1.525440 20.207588
v -7.814640 -1.892055 19.065865
v -6.778561 -1.264858 20.502226
v -7.922429 -1.535706 18.474245
v -6.939732 0.626888 18.192341
v -6.367079 -0.511512 20.543806
v -7.104649 0.523300 17.967646
v -7.892219 -1.036537 18.011765
v -7.652328 -0.385948 17.814289
v -6.495369 0.597393 19.121447
v -6.543616 0.850914 18.758026
v -6.302897 -0.406037 20.562908
v -6.557532 0.843337 18.737846
v -7.314061 -1.669881 19.844643
v -7.098852 -1.472314 20.072422
v -7.720813 -1.740552 19.096613
v -6.755647 -1.154816 20.433125
vn 0.8127 -0.4217 -0.4021
vn -0.9304 -0.3058 0.2019
vn -0.8897 0.1956 -0.4125
vn -0.9414 -0.2641 0.2097
vn -0.9975 -0.0439 -0.0558
vn -0.7840 -0.4186 0.4584
vn -0.9475 -0.2466 0.2037
vn -0.3494 -0.5089 0.7867
vn 0.2953 0.7974 -0.5262
vn -0.9330 0.2097 -0.2924
vn -0.9981 -0.0577 -0.0231
vn 0.3350 -0.3224 0.8854
vn -0.8109 -0.3931 0.4334
vn -0.7087 0.5070 -0.4906
vn -0.7927 0.2284 0.5652
vn -0.4005 -0.4868 0.7763
vn 0.2244 0.8600 -0.4582
vn -0.9576 0.1654 -0.2358
vn -0.8198 0.3039 0.4854
vn 0.1757 -0.3716 0.9116
vn 0.9141 0.3757 0.1523
vn -0.7462 0.4925 -0.4478
vn -0.8159 0.3529 0.4581
vn -0.7731 0.2359 0.5888
vn 0.9102 0.3759 0.1737
vn 0.1220 0.8839 -0.4516
vn -0.7983 0.4013 0.4491
vn -0.1877 0.6774 0.7112
vn -0.8002 0.2346 0.5519
vn -0.1998 0.5736 0.7944
vn -0.9926 -0.0485 -0.1117
vn -0.9029 0.2154 -0.3720
vn -0.6459 0.4945 -0.5816
vn -0.7599 -0.4615 0.4577
vn -0.9343 -0.2947 0.2007
vn -0.9941 -0.0471 -0.0978
vn -0.9113 0.2146 -0.3513
vn -0.6632 0.4984 -0.5583
vn 0.3728 -0.3354 0.8652
vn -0.3143 -0.5417 0.7796
vn -0.7686 -0.4456 0.4590
vn -0.9369 -0.2834 0.2046
vn -0.9955 -0.0447 -0.0830
vn -0.9190 0.2149 -0.3305
vn -0.3331 -0.5227 0.7847
vn 0.3606 -0.3219 0.8754
vn 0.9144 0.3762 0.1496
vn 0.2475 0.8461 -0.4720
vn -0.6947 0.5065 -0.5107
vn -0.9262 0.2139 -0.3106
vn -0.9967 -0.0432 -0.0686
vn -0.9393 -0.2728 0.2081
vn -0.7765 -0.4309 0.4597
vn -0.3694 -0.5014 0.7824
vn 0.2865 -0.3392 0.8960
vn 0.9144 0.3733 0.1566
vn 0.1898 0.8698 -0.4555
vn -0.7230 0.5012 -0.4755
vn -0.9406 0.1991 -0.2751
vn -0.9978 -0.0476 -0.0452
vn -0.9435 -0.2578 0.2083
vn -0.7920 -0.4092 0.4530
vn -0.6794 0.5032 -0.5340
vn 0.3993 -0.3960 0.8268
vn -0.2797 -0.5764 0.7678
vn 0.9209 0.3650 0.1367
vn 0.9411 0.2645 -0.2104
vn 0.9975 0.0439 0.0556
vn 0.7889 0.4157 -0.4526
vn 0.9461 0.2519 -0.2033
vn 0.3552 0.5087 -0.7842
vn -0.2424 -0.8011 0.5472
vn 0.9335 -0.2088 0.2915
vn 0.9978 0.0576 0.0317
vn -0.3091 0.3357 -0.8898
vn 0.8170 0.3918 -0.4231
vn 0.7292 -0.4869 0.4808
vn 0.7899 -0.2341 -0.5668
vn 0.4147 0.4983 -0.7614
vn -0.2244 -0.8598 0.4588
vn 0.9547 -0.1673 0.2462
vn 0.8128 -0.2848 -0.5083
vn -0.1339 0.4048 -0.9045
vn -0.9140 -0.3780 -0.1477
vn 0.7858 -0.4357 0.4389
vn 0.8121 -0.2979 -0.5017
vn 0.8264 -0.2543 -0.5024
vn -0.9153 -0.3729 -0.1518
vn -0.1284 -0.8728 0.4708
vn 0.8264 -0.2542 -0.5024
vn 0.2617 -0.6136 -0.7450
vn 0.2623 -0.6131 -0.7452
vn 0.9926 0.0483 0.1119
vn 0.9037 -0.2145 0.3706
vn 0.6567 -0.4854 0.5772
vn 0.7630 0.4597 -0.4544
vn 0.9340 0.2951 -0.2015
vn 0.9941 0.0468 0.0979
vn 0.9118 -0.2140 0.3506
vn 0.6750 -0.4880 0.5533
vn -0.3556 0.3453 -0.8685
vn 0.3185 0.5419 -0.7777
vn 0.7720 0.4436 -0.4552
vn 0.9366 0.2838 -0.2054
vn 0.9956 0.0445 0.0831
vn 0.9194 -0.2142 0.3297
vn 0.3384 0.5229 -0.7824
vn -0.3406 0.3329 -0.8793
vn -0.9141 -0.3781 -0.1466
vn -0.2481 -0.8458 0.4722
vn 0.7115 -0.4907 0.5031
vn 0.9266 -0.2131 0.3098
vn 0.9967 0.0431 0.0685
vn 0.9390 0.2732 -0.2088
vn 0.7805 0.4285 -0.4552
vn 0.3739 0.5008 -0.7807
vn -0.2491 0.3571 -0.9002
vn -0.9144 -0.3768 -0.1482
vn -0.1877 -0.8693 0.4572
vn 0.7489 -0.4747 0.4624
vn 0.9411 -0.1982 0.2741
vn 0.9979 0.0476 0.0449
vn 0.9431 0.2583 -0.2093
vn 0.7984 0.4052 -0.4453
vn 0.6935 -0.4904 0.5278
vn -0.3681 0.3688 -0.8535
vn 0.2821 0.5766 -0.7667
vn -0.9097 -0.3877 -0.1484
vn 0.2964 0.5627 -0.7717
vn 0.7562 0.4720 -0.4533
vn -0.2610 -0.8311 0.4910
vn -0.9147 -0.3778 -0.1436
vn -0.3507 0.3692 -0.8606
vn -0.2608 -0.8205 0.5087
vn 0.9314 0.3050 -0.1988
vn -0.2935 -0.5625 0.7730
vn -0.9315 -0.3049 0.1982
vn -0.7529 -0.4740 0.4566
vn -0.9878 -0.0640 -0.1419
vn 0.2608 0.8314 -0.4907
vn 0.9151 0.3759 0.1459
vn 0.5002 -0.3734 0.7813
vn 0.2693 0.8128 -0.5165
vt 0.999300 0.013140
vt 0.999592 0.013087
vt 0.999020 0.013251
vt 0.999559 0.014412
vt 0.983478 0.001133
vt 0.998505 0.014297
vt 0.983472 0.001585
vt 0.999958 0.013085
vt 0.999730 0.014383
vt 0.983352 0.000511
vt 0.983248 0.002276
vt 0.998757 0.013398
vt 0.983277 0.000980
vt 0.999397 0.014479
vt 0.999816 0.015670
vt 0.999815 0.001804
vt 0.998863 0.014059
vt 0.999940 0.004724
vt 0.984590 0.001544
vt 0.999940 0.014391
vt 0.999858 0.015663
vt 0.999854 0.001821
vt 0.984609 0.001286
vt 0.999104 0.015424
vt 0.983526 0.001739
vt 0.998671 0.004811
vt 0.982165 0.000864
vt 0.999246 0.014571
vt 0.999776 0.015688
vt 0.999773 0.001804
vt 0.999795 0.001904
vt 0.999343 0.015256
vt 0.999915 0.003403
vt 0.999904 0.015676
vt 0.985693 0.001506
vt 0.999886 0.001861
vt 0.982079 0.002157
vt 0.982180 0.000591
vt 0.999820 0.016431
vt 0.999878 0.002103
vt 0.985725 0.001450
vt 0.999700 0.016536
vt 0.999895 0.001929
vt 0.999202 0.003352
vt 0.982167 0.001804
vt 0.999743 0.015717
vt 0.981067 0.000755
vt 0.999735 0.001822
vt 0.981037 0.000690
vt 0.980938 0.002022
vt 0.999696 0.001880
vt 0.980947 0.001835
vt 0.999719 0.002065
vt 0.998878 0.011054
vt 0.998452 0.011218
vt 0.982307 0.001641
vt 0.999926 0.011719
vt 0.999430 0.011739
vt 0.999032 0.011814
vt 0.998651 0.011961
vt 0.998289 0.012146
vt 0.984436 0.001116
vt 0.984476 0.000468
vt 0.984370 0.002354
vt 0.999939 0.005405
vt 0.998619 0.013439
vt 0.998205 0.013712
vt 0.982896 0.001063
vt 0.999949 0.012411
vt 0.982897 0.001610
vt 0.999514 0.012422
vt 0.999166 0.012486
vt 0.998834 0.012616
vt 0.998519 0.012784
vt 0.983849 0.001045
vt 0.984035 0.001564
vt 0.999953 0.013744
vt 0.984048 0.001208
vt 0.998805 0.014866
vt 0.999105 0.014663
vt 0.999930 0.004057
vt 0.998933 0.004065
vt 0.982835 0.001777
vt 0.982662 0.002220
vt 0.982765 0.000547
vt 0.982717 0.000921
vt 0.998999 0.013992
vt 0.999208 0.013871
vt 0.999430 0.013781
vt 0.999663 0.013740
vt 0.999793 0.015015
vt 0.999686 0.015033
vt 0.999584 0.015076
vt 0.981623 0.000810
vt 0.999491 0.015137
vt 0.981516 0.002091
vt 0.981616 0.000639
vt 0.999455 0.002715
vt 0.981564 0.001821
vt 0.999578 0.015836
vt 0.999898 0.002761
vt 0.985160 0.001366
vt 0.999399 0.015973
vt 0.985134 0.001525
vt 0.999923 0.015026
vt 0.983925 0.000485
vt 0.983820 0.002321
vt 0.999300 0.013140
vt 0.999592 0.013087
vt 0.999020 0.013251
vt 0.999559 0.014412
vt 0.983478 0.001133
vt 0.998505 0.014297
vt 0.983472 0.001585
vt 0.999958 0.013085
vt 0.999730 0.014383
vt 0.983352 0.000511
vt 0.983248 0.002276
vt 0.998757 0.013398
vt 0.983277 0.000980
vt 0.999397 0.014479
vt 0.999816 0.015670
vt 0.999815 0.001804
vt 0.998863 0.014059
vt 0.999940 0.004724
vt 0.984590 0.001544
vt 0.999940 0.014391
vt 0.999858 0.015663
vt 0.999854 0.001821
vt 0.984609 0.001286
vt 0.999104 0.015424
vt 0.983526 0.001739
vt 0.998671 0.004811
vt 0.982165 0.000864
vt 0.999246 0.014571
vt 0.999776 0.015688
vt 0.999773 0.001804
vt 0.999795 0.001904
vt 0.999343 0.015256
vt 0.999915 0.003403
vt 0.999904 0.015676
vt 0.985693 0.001506
vt 0.999886 0.001861
vt 0.982079 0.002157
vt 0.982180 0.000591
vt 0.999820 0.016431
vt 0.999878 0.002103
vt 0.985725 0.001450
vt 0.999700 0.016536
vt 0.999895 0.001929
vt 0.999202 0.003352
vt 0.982167 0.001804
vt 0.999743 0.015717
vt 0.981067 0.000755
vt 0.999735 0.001822
vt 0.981037 0.000690
vt 0.980938 0.002022
vt 0.999696 0.001880
vt 0.980947 0.001835
vt 0.999719 0.002065
vt 0.982307 0.001641
vt 0.999926 0.011719
vt 0.999430 0.011739
vt 0.999032 0.011814
vt 0.998651 0.011961
vt 0.998289 0.012146
vt 0.984436 0.001116
vt 0.984476 0.000468
vt 0.984370 0.002354
vt 0.999939 0.005405
vt 0.998619 0.013439
vt 0.998205 0.013712
vt 0.982896 0.001063
vt 0.999949 0.012411
vt 0.982897 0.001610
vt 0.999514 0.012422
vt 0.999166 0.012486
vt 0.998834 0.012616
vt 0.998519 0.012784
vt 0.983849 0.001045
vt 0.984035 0.001564
vt 0.999953 0.013744
vt 0.984048 0.001208
vt 0.998805 0.014866
vt 0.999105 0.014663
vt 0.999930 0.004057
vt 0.998933 0.004065
vt 0.982835 0.001777
vt 0.982662 0.002220
vt 0.982765 0.000547
vt 0.982717 0.000921
vt 0.998999 0.013992
vt 0.999208 0.013871
vt 0.999430 0.013781
vt 0.999663 0.013740
vt 0.999793 0.015015
vt 0.999686 0.015033
vt 0.999584 0.015076
vt 0.981623 0.000810
vt 0.999491 0.015137
vt 0.981516 0.002091
vt 0.981616 0.000639
vt 0.999455 0.002715
vt 0.981564 0.001821
vt 0.999578 0.015836
vt 0.999898 0.002761
vt 0.985160 0.001366
vt 0.999399 0.015973
vt 0.985134 0.001525
vt 0.999923 0.015026
vt 0.983925 0.000485
vt 0.983820 0.002321
vt 0.984522 0.002134
vt 0.998539 0.013378
vt 0.984649 0.002365
vt 0.984755 0.000465
vt 0.998103 0.011392
vt 0.985085 0.001201
vt 0.998050 0.011437
vt 0.999284 0.005472
vt 0.984154 0.001698
vt 0.998447 0.005496
vt 0.999938 0.005460
vt 0.998600 0.013388
vt 0.984185 0.001739
vt 0.998871 0.011018
vt 0.982104 0.001653
vt 0.999912 0.011481
vt 0.998947 0.011041
vt 0.998425 0.011115
vt 0.982303 0.001312
vt 0.999351 0.011154
vt 0.997998 0.013302
vt 0.982490 0.001021
vt 0.998893 0.011127
vt 0.984497 0.002170
vt 0.998507 0.013354
vt 0.984621 0.002364
vt 0.984728 0.000465
vt 0.998453 0.011222
vt 0.998077 0.011516
vt 0.985012 0.001192
vt 0.998737 0.005528
vt 0.984191 0.001695
vt 0.998434 0.005536
vt 0.999937 0.005498
vt 0.998587 0.013354
vt 0.984202 0.001712
vt 0.982158 0.001650
vt 0.999916 0.011545
vt 0.982304 0.001409
vt 0.999364 0.011248
vt 0.998022 0.013350
vt 0.982537 0.001026
s 0
f 150/251/1 152/254/1 138/233/1 136/231/1 133/227/1 137/232/1 134/229/1 132/226/1 135/230/1 144/242/1 143/240/1 139/235/1 151/252/1 149/250/1
f 132/226/2 134/229/2 29/54/2
f 135/230/3 30/55/3 126/217/3
f 4/4/4 51/89/4 52/90/4 7/9/4
f 50/88/5 51/89/5 4/4/5 10/14/5
f 7/9/6 52/90/6 44/77/6 13/20/6
f 11/15/7 54/92/7 53/91/7 14/21/7
f 13/19/8 44/76/8 45/78/8 15/23/8
f 123/213/9 125/215/9 36/64/9
f 49/87/10 50/88/10 10/14/10 17/28/10
f 11/15/11 18/29/11 55/93/11 54/92/11
f 45/79/12 46/80/12 20/32/12 15/24/12
f 61/105/13 21/34/13 14/21/13 53/91/13
f 49/86/14 17/27/14 22/38/14 48/85/14
f 19/31/15 11/16/15 14/22/15
f 21/35/16 61/104/16 60/102/16 24/41/16
f 48/84/17 22/37/17 25/45/17 47/83/17
f 18/29/18 26/46/18 56/95/18 55/93/18
f 18/30/19 11/16/19 19/31/19
f 23/39/20 24/42/20 60/103/20 59/100/20
f 46/81/21 47/82/21 25/44/21 20/33/21
f 26/47/22 27/49/22 57/97/22 56/94/22
f 18/30/23 19/31/23 26/48/23
f 19/31/24 21/36/24 24/43/24
f 28/53/25 23/40/25 59/101/25 58/98/25
f 28/52/26 58/99/26 57/96/26 27/50/26
f 26/48/27 19/31/27 27/51/27
f 19/31/28 23/40/28 28/53/28 27/51/28
f 19/31/29 14/22/29 21/36/29
f 19/31/30 24/43/30 23/40/30
f 30/55/31 29/54/31 33/59/31 34/60/31
f 126/217/32 30/55/32 34/60/32 35/61/32 127/219/32
f 127/218/33 35/62/33 36/63/33 125/216/33
f 145/243/1 146/245/1 148/248/1 140/236/1 142/238/1 144/242/1 135/230/1 126/217/1 127/219/1 125/216/1 123/213/1 131/225/1 129/221/1 128/220/1 130/223/1 124/214/1 138/233/1 152/253/1 141/237/1 147/247/1
f 40/71/34 32/58/34 31/57/34 39/69/34
f 32/58/35 40/71/35 41/72/35 33/59/35
f 34/60/36 33/59/36 41/72/36 42/73/36
f 35/61/37 34/60/37 42/73/37 43/74/37
f 35/62/38 43/75/38 62/106/38 36/63/38
f 38/67/39 37/66/39 12/17/39 5/6/39
f 39/70/40 38/68/40 5/5/40 6/7/40
f 2/2/41 40/71/41 39/69/41 6/8/41
f 40/71/42 2/2/42 1/1/42 41/72/42
f 42/73/43 41/72/43 1/1/43 3/3/43
f 43/74/44 42/73/44 3/3/44 9/12/44
f 6/7/45 5/5/45 45/78/45 44/76/45
f 46/80/46 45/79/46 5/6/46 12/17/46
f 47/82/47 46/81/47 12/18/47 16/26/47
f 8/11/48 48/84/48 47/83/48 16/25/48
f 9/13/49 49/86/49 48/85/49 8/10/49
f 9/12/50 3/3/50 50/88/50 49/87/50
f 3/3/51 1/1/51 51/89/51 50/88/51
f 51/89/52 1/1/52 2/2/52 52/90/52
f 52/90/53 2/2/53 6/8/53 44/77/53
f 61/104/54 13/19/54 15/23/54 60/102/54
f 15/24/55 20/32/55 59/100/55 60/103/55
f 58/98/56 59/101/56 20/33/56 25/44/56
f 22/37/57 57/96/57 58/99/57 25/45/57
f 17/27/58 56/94/58 57/97/58 22/38/58
f 17/28/59 10/14/59 55/93/59 56/95/59
f 10/14/60 4/4/60 54/92/60 55/93/60
f 54/92/61 4/4/61 7/9/61 53/91/61
f 53/91/62 7/9/62 13/20/62 61/105/62
f 43/75/63 9/13/63 8/10/63 62/106/63
f 124/214/64 37/66/64 38/67/64 138/233/64
f 133/227/65 136/231/65 31/56/65
f 130/223/66 128/220/66 37/65/66
f 66/111/67 69/116/67 112/195/67 111/194/67
f 110/193/68 72/121/68 66/111/68 111/194/68
f 69/116/69 75/127/69 104/182/69 112/195/69
f 73/122/70 76/128/70 113/196/70 114/197/70
f 75/126/71 77/130/71 105/183/71 104/181/71
f 140/236/72 96/169/72 142/238/72
f 109/192/73 79/135/73 72/121/73 110/193/73
f 73/122/74 114/197/74 115/198/74 80/136/74
f 105/184/75 77/131/75 82/139/75 106/185/75
f 121/210/76 113/196/76 76/128/76 83/141/76
f 109/191/77 108/190/77 84/145/77 79/134/77
f 81/138/78 76/129/78 73/123/78
f 83/142/79 86/148/79 120/207/79 121/209/79
f 108/189/80 107/188/80 87/152/80 84/144/80
f 80/136/81 115/198/81 116/200/81 88/153/81
f 80/137/82 81/138/82 73/123/82
f 85/146/83 119/205/83 120/208/83 86/149/83
f 106/186/84 82/140/84 87/151/84 107/187/84
f 88/154/85 116/199/85 117/202/85 89/156/85
f 80/137/86 88/155/86 81/138/86
f 81/138/87 86/150/87 83/143/87
f 90/160/88 118/203/88 119/206/88 85/147/88
f 90/159/89 89/157/89 117/201/89 118/204/89
f 88/155/90 89/158/90 81/138/90
f 81/138/91 89/158/91 90/160/91 85/147/91
f 81/138/87 83/143/87 76/129/87
f 81/138/92 85/147/92 86/150/92
f 143/240/93 94/165/93 93/164/93 139/235/93
f 144/241/94 95/166/94 94/165/94 143/240/94
f 144/242/95 142/239/95 96/168/95 95/167/95
f 100/176/96 99/174/96 91/162/96 92/163/96
f 92/163/97 93/164/97 101/177/97 100/176/97
f 94/165/98 102/178/98 101/177/98 93/164/98
f 95/166/99 103/179/99 102/178/99 94/165/99
f 95/167/100 96/168/100 122/211/100 103/180/100
f 98/172/101 67/113/101 74/124/101 97/171/101
f 99/175/102 68/114/102 67/112/102 98/173/102
f 64/109/103 68/115/103 99/174/103 100/176/103
f 100/176/104 101/177/104 63/108/104 64/109/104
f 102/178/105 65/110/105 63/108/105 101/177/105
f 103/179/106 71/119/106 65/110/106 102/178/106
f 68/114/107 104/181/107 105/183/107 67/112/107
f 106/185/108 74/124/108 67/113/108 105/184/108
f 107/187/109 78/133/109 74/125/109 106/186/109
f 70/118/110 78/132/110 107/188/110 108/189/110
f 71/120/111 70/117/111 108/190/111 109/191/111
f 71/119/112 109/192/112 110/193/112 65/110/112
f 65/110/113 110/193/113 111/194/113 63/108/113
f 111/194/114 112/195/114 64/109/114 63/108/114
f 112/195/115 104/182/115 68/115/115 64/109/115
f 121/209/116 120/207/116 77/130/116 75/126/116
f 77/131/117 120/208/117 119/205/117 82/139/117
f 118/203/118 87/151/118 82/140/118 119/206/118
f 84/144/119 87/152/119 118/204/119 117/201/119
f 79/134/120 84/145/120 117/202/120 116/199/120
f 79/135/121 116/200/121 115/198/121 72/121/121
f 72/121/122 115/198/122 114/197/122 66/111/122
f 114/197/123 113/196/123 69/116/123 66/111/123
f 113/196/124 121/210/124 75/127/124 69/116/124
f 103/180/125 122/211/125 70/117/125 71/120/125
f 141/237/126 152/253/126 98/172/126 97/171/126
f 150/251/127 149/249/127 91/161/127
f 145/243/128 147/246/128 97/170/128
f 91/161/129 99/175/129 98/173/129 152/254/129 150/251/129
f 92/163/130 91/162/130 149/250/130 151/252/130
f 122/212/131 148/248/131 146/244/131 78/132/131 70/118/131
f 97/170/132 74/125/132 78/133/132 146/245/132 145/243/132
f 97/171/133 147/247/133 141/237/133
f 96/169/134 140/236/134 148/248/134 122/212/134
f 93/164/135 92/163/135 151/252/135 139/235/135
f 31/56/136 136/231/136 138/234/136 38/68/136 39/70/136
f 33/59/137 29/54/137 134/229/137 137/232/137 32/58/137
f 32/58/138 137/232/138 133/228/138 31/57/138
f 29/54/139 30/55/139 135/230/139 132/226/139
f 62/107/140 8/11/140 16/25/140 129/221/140 131/225/140
f 37/65/141 128/220/141 129/222/141 16/26/141 12/18/141
f 37/66/142 124/214/142 130/224/142
f 36/64/143 62/107/143 131/225/143 123/213/143
