# Blender 3.4.1
# www.blender.org
mtllib 7.mtl
o Megaman_Zero_Helmet_-_Letter_Foam.008
v 0.000000 6.887488 4.851747
v -0.000000 3.689863 8.150714
v 0.000000 7.496683 2.516581
v 0.000000 7.311582 3.670142
v 0.000000 4.614334 7.545370
v -0.000000 5.471705 6.806266
v -0.000000 6.260525 5.898991
v -3.803165 5.131117 5.427776
v -3.619617 4.529601 6.257906
v -4.123710 5.354305 4.543815
v -3.965356 5.514668 4.553313
v -6.234114 2.395834 3.682339
v -6.334527 1.958032 3.869103
v -6.103114 2.019337 2.209039
v -6.175067 2.253888 3.000745
v -6.272283 1.375501 2.328959
v -6.356330 1.709641 3.099876
v -6.353959 0.698271 2.562004
v -6.447577 1.052778 3.361920
v -6.389045 1.406348 4.187350
v -1.060309 6.794331 4.827455
v -2.090875 6.527672 4.758281
v -3.063074 6.080797 4.646609
v -4.122841 5.628420 1.422827
v -2.243469 6.949966 1.426028
v -3.261646 6.344520 1.440509
v -4.089079 5.776069 2.441893
v -1.130536 7.371130 2.515320
v -2.219004 7.010534 2.511910
v -3.240226 6.449165 2.502489
v -4.008555 5.758580 3.509119
v -1.101830 7.199772 3.659735
v -2.167764 6.879147 3.630282
v -3.174766 6.365551 3.580641
v -4.335093 4.015666 5.998943
v -0.860991 3.653647 8.114382
v -3.439478 3.869618 6.977505
v -2.645725 4.184921 7.221206
v -1.804663 4.429314 7.408635
v -0.910282 4.566383 7.509929
v -2.789902 4.934314 6.484651
v -1.907443 5.241988 6.663784
v -0.963770 5.412205 6.769278
v -2.931121 5.617072 5.593699
v -2.005756 5.985467 5.749904
v -1.014884 6.189296 5.860299
v -4.219644 4.737052 5.284065
v -4.993180 3.168113 6.048028
v -5.460723 2.931883 5.581223
v -5.848981 2.651131 5.068283
v -6.184321 1.795048 4.877522
v -6.139988 2.323018 4.522356
v -4.212285 3.449737 6.632083
v -5.051710 3.557895 5.484109
v -5.441622 3.392295 4.982719
v -5.717299 3.151275 4.573746
v -5.948637 2.843878 4.187599
v -4.416876 3.399807 6.479578
v -4.557393 3.687953 6.046234
v -4.202842 3.304598 6.453479
v -4.305534 3.634705 6.036823
v -6.878169 9.149326 5.835886
v -6.664163 8.203156 2.969162
v -6.466842 7.664937 1.651997
v -6.778911 8.743807 4.471050
v -6.439472 2.333521 2.149680
v -6.514569 2.574409 2.938869
v -6.564198 2.710136 3.754658
v -6.871139 6.253451 4.670770
v -6.730157 4.400537 4.122879
v -6.949235 7.890628 5.286552
v -5.223021 7.319097 5.011725
v -4.440264 6.312007 4.692053
v -5.964000 8.184361 5.390779
v -4.632389 6.117922 4.662110
v -5.410963 7.118787 4.971964
v -6.314181 8.085854 5.404696
v -6.406990 4.366049 4.180798
v -6.567606 6.203673 4.686031
v -6.645261 7.960284 5.374475
v -4.509428 4.559459 5.920259
v -4.853336 4.230824 5.978066
v -5.211963 6.011716 5.708232
v -5.614488 5.794268 5.744952
v 0.000000 6.769747 4.796637
v 0.000000 3.625135 8.037973
v 0.000000 7.366982 2.507772
v 0.000000 7.185535 3.638324
v 0.000000 4.535862 7.441725
v 0.000000 5.379699 6.714425
v 0.000000 6.155051 5.822997
v -3.731142 5.044567 5.362802
v -3.550610 4.452286 6.179418
v -4.130092 5.293295 4.429198
v -3.926604 5.418966 4.474324
v -6.108858 2.408751 3.650027
v -6.207865 1.929835 3.861236
v -5.979823 2.060559 2.208761
v -6.050857 2.292237 3.001858
v -6.145612 1.359746 2.353578
v -6.228738 1.688678 3.113323
v -6.225533 0.696552 2.582099
v -6.317888 1.046115 3.367945
v -6.260851 1.391084 4.172079
v -1.037917 6.678155 4.773587
v -2.046781 6.416331 4.707696
v -3.001530 5.976172 4.600070
v -4.127090 5.502000 1.452829
v -2.188482 6.833175 1.441397
v -3.188937 6.238260 1.458461
v -4.098753 5.647067 2.454730
v -1.102867 7.244351 2.507490
v -2.167042 6.891486 2.506678
v -3.170117 6.339703 2.500814
v -4.030856 5.631119 3.496612
v -1.076672 7.075967 3.629088
v -2.119561 6.761632 3.602594
v -3.108639 6.256145 3.557029
v -4.295834 3.964370 5.886127
v -0.846523 3.589361 8.002319
v -3.375374 3.800506 6.887982
v -2.595756 4.112236 7.125708
v -1.771210 4.353400 7.308545
v -0.894372 4.488439 7.407111
v -2.735969 4.850598 6.401087
v -1.870647 5.153469 6.575975
v -0.945959 5.320918 6.678452
v -2.873658 5.522093 5.526045
v -1.965515 5.884639 5.678390
v -0.994966 6.084875 5.785470
v -4.233297 4.642847 5.195528
v -4.902831 3.104535 5.979507
v -5.359384 2.873336 5.524632
v -5.736669 2.600768 5.026456
v -6.062234 1.769020 4.841228
v -6.019568 2.282589 4.494708
v -4.102284 3.418818 6.570086
v -4.949575 3.540423 5.405602
v -5.333630 3.377480 4.911880
v -5.604653 3.137553 4.510322
v -5.832489 2.832746 4.130277
v -4.386701 3.307386 6.393279
v -4.508306 3.639153 5.936193
v -4.125180 3.239856 6.371765
v -4.236014 3.582851 5.939982
v -6.843639 9.056683 5.751478
v -6.611750 8.094730 3.018120
v -6.415796 7.557792 1.705046
v -6.730703 8.631672 4.515791
v -6.319322 2.383130 2.147927
v -6.395245 2.625987 2.940032
v -6.467079 2.760231 3.684242
v -6.771446 6.285801 4.593862
v -6.629080 4.427547 4.045718
v -6.849494 7.924024 5.210156
v -5.306495 7.283485 4.918646
v -4.519454 6.274489 4.596025
v -6.048933 8.151413 5.298039
v -4.687170 6.103446 4.545108
v -5.471348 7.111445 4.857074
v -6.322716 8.116380 5.278619
v -6.349446 4.399353 4.069086
v -6.511600 6.244379 4.576002
v -6.633868 7.997797 5.250528
v -4.565861 4.516631 5.811259
v -4.802179 4.239158 5.858846
v -5.266890 5.968014 5.598810
v -5.557496 5.802544 5.628404
v -6.388307 1.323577 4.242871
v -6.369144 0.193272 2.774126
v -3.321019 3.359017 7.394723
v -6.148146 1.832819 4.945256
v -4.114279 3.120355 6.954289
v -2.532282 3.508745 7.718608
v -6.450201 0.764267 3.504425
v -5.431456 2.524825 5.963517
v -6.183972 1.788570 4.881779
v -0.000000 3.568746 8.210615
v -4.932493 2.802011 6.406016
v -0.858983 3.616814 8.132818
v -1.191798 3.613298 8.073844
v -1.715123 3.602668 7.974469
v -4.312939 3.047878 6.827443
v -4.102777 2.975327 6.767315
v -6.251235 -0.257811 2.205999
v -5.850492 2.191606 5.461115
v -6.260105 1.299783 4.232840
v -6.240448 0.191486 2.792834
v -3.258061 3.284511 7.307992
v -5.962512 1.873046 5.027979
v -3.999630 3.071223 6.909049
v -2.483496 3.431227 7.625638
v -6.320436 0.753447 3.511544
v -5.329904 2.467842 5.905910
v -6.061287 1.751044 4.852964
v 0.000000 3.488179 8.105700
v -4.842487 2.738050 6.337437
v -0.843603 3.535405 8.029321
v -1.328385 3.530348 7.943502
v -1.682767 3.523183 7.876253
v -4.286983 2.968327 6.728093
v -4.024042 2.905895 6.689770
v -6.124615 -0.251693 2.234660
v -5.737873 2.143792 5.417257
v -4.122802 5.628067 1.421563
v -6.204926 1.160730 1.955640
v -1.413143 7.247777 1.416106
v -1.145972 7.343864 1.426028
v -6.335238 7.295175 0.934467
v -6.372845 2.142795 1.778003
v -2.243171 6.941608 1.386540
v -3.260411 6.331843 1.388870
v -6.360463 3.981016 1.476954
v -6.052696 1.864543 1.854574
v 0.000000 7.481949 1.513646
v -6.260511 0.400926 2.075217
v -4.126719 5.499096 1.442391
v -6.076429 1.141333 1.971200
v -1.568463 7.055575 1.432756
v -1.116231 7.218255 1.449544
v -6.277561 7.174328 0.959889
v -6.254086 2.196125 1.780667
v -2.188192 6.826712 1.410725
v -3.187785 6.227160 1.413073
v -6.264349 3.949948 1.491315
v -5.931318 1.911224 1.858584
v 0.000000 7.352711 1.534895
v -6.130834 0.394716 2.088722
v -6.249063 -0.190553 2.173570
v -6.120665 -0.130938 2.176129
v -6.113939 -0.278813 2.201090
v -6.245336 -0.272795 2.187451
vn -0.9507 0.1860 -0.2483
vn -0.9639 0.2497 -0.0919
vn -0.8164 0.4849 0.3135
vn -0.0833 0.8566 0.5092
vn -0.0748 0.7542 0.6524
vn -0.5832 0.5326 0.6133
vn -0.0666 0.6532 0.7542
vn -0.5458 0.4700 0.6937
vn -0.0598 0.5479 0.8344
vn -0.9514 0.2466 -0.1847
vn -0.9867 0.0744 -0.1442
vn -0.9926 0.1217 0.0041
vn -0.9947 -0.0224 -0.1000
vn 0.0946 -0.1615 -0.9823
vn -0.3005 0.9439 0.1369
vn -0.2698 0.9103 0.3140
vn -0.2387 0.8382 0.4904
vn -0.1616 0.4347 0.8860
vn -0.4679 0.8768 0.1107
vn -0.4372 0.8530 0.2850
vn -0.4048 0.7923 0.4564
vn -0.6239 0.7552 -0.2010
vn -0.6265 0.7756 -0.0774
vn -0.5591 0.7937 0.2399
vn -0.6889 0.6031 0.4021
vn -0.5062 0.7478 0.4296
vn -0.4786 0.6581 0.5813
vn -0.4545 0.5873 0.6697
vn -0.1053 0.9825 0.1537
vn -0.4959 0.8666 -0.0561
vn -0.0943 0.9382 0.3329
vn -0.6075 0.7904 0.0786
vn -0.1717 0.5405 0.8236
vn -0.3476 0.6157 0.7072
vn -0.1911 0.6448 0.7400
vn -0.3749 0.7025 0.6049
vn -0.2143 0.7414 0.6360
vn -0.7283 0.5411 0.4205
vn -0.9644 0.1978 0.1756
vn -0.9062 0.1970 0.3741
vn -0.8785 0.4362 0.1949
vn -0.9681 0.1313 0.2136
vn -0.9253 0.3547 0.1344
vn -0.6591 0.5543 0.5083
vn -0.6402 0.5694 0.5157
vn 0.3972 0.6979 0.5960
vn 0.2968 0.8107 0.5047
vn -0.9869 -0.1057 0.1217
vn -0.9852 -0.0204 -0.1702
vn -0.9926 0.0273 -0.1184
vn 0.6167 0.7401 -0.2681
vn 0.7414 0.6670 -0.0734
vn 0.6472 0.7425 -0.1727
vn 0.8625 0.4996 0.0810
vn -0.9951 -0.0877 -0.0459
vn -0.9897 0.1003 -0.1018
vn 0.6820 0.7157 -0.1509
vn 0.7897 0.6134 0.0012
vn -0.6781 -0.7001 0.2238
vn -0.6910 -0.7074 0.1485
vn -0.6849 -0.7238 0.0845
vn -0.9876 -0.0296 -0.1540
vn -0.1060 -0.2384 0.9654
vn -0.1737 -0.3857 0.9061
vn -0.1447 -0.3607 0.9214
vn -0.1487 -0.2826 0.9477
vn 0.0326 -0.1423 0.9893
vn 0.0759 -0.2441 0.9668
vn 0.1247 -0.3062 0.9438
vn 0.1259 -0.3147 0.9408
vn -0.0525 0.1310 0.9900
vn 0.0191 0.1420 0.9897
vn 0.0136 0.1525 0.9882
vn 0.7338 0.4627 0.4975
vn 0.7641 0.4436 0.4684
vn -0.7654 -0.2639 0.5869
vn -0.7218 -0.2566 0.6428
vn 0.0486 -0.3530 0.9343
vn -0.7481 -0.2225 0.6252
vn -0.7505 -0.2232 0.6220
vn -0.6847 -0.2892 0.6690
vn -0.7491 -0.2315 0.6207
vn 0.0589 0.1033 0.9929
vn 0.7680 0.4394 0.4659
vn 0.8207 0.3305 0.4661
vn -0.7658 -0.2439 0.5950
vn 0.7652 0.4389 0.4710
vn -0.9925 -0.0257 -0.1193
vn 0.7657 0.6414 -0.0473
vn 0.6717 0.7221 -0.1657
vn 0.6464 0.7323 -0.2142
vn 0.9585 -0.1615 0.2350
vn 0.9711 -0.2236 0.0831
vn 0.8202 -0.4731 -0.3216
vn 0.0833 -0.8565 -0.5094
vn 0.0748 -0.7541 -0.6525
vn 0.5743 -0.5394 -0.6159
vn 0.0666 -0.6531 -0.7543
vn 0.5340 -0.4773 -0.6979
vn 0.0599 -0.5478 -0.8345
vn 0.9601 -0.2187 0.1743
vn 0.9867 -0.0742 0.1446
vn 0.9926 -0.1213 -0.0040
vn 0.9947 0.0227 0.1002
vn 0.3006 -0.9439 -0.1369
vn 0.2698 -0.9103 -0.3141
vn 0.2385 -0.8381 -0.4905
vn 0.1614 -0.4347 -0.8860
vn 0.4681 -0.8767 -0.1106
vn 0.4374 -0.8529 -0.2849
vn 0.4051 -0.7922 -0.4564
vn 0.6031 -0.7697 0.2095
vn 0.6044 -0.7925 0.0816
vn 0.5395 -0.8033 -0.2521
vn 0.6190 -0.6518 -0.4382
vn 0.5042 -0.7481 -0.4314
vn 0.4785 -0.6579 -0.5815
vn 0.4545 -0.5873 -0.6697
vn 0.1053 -0.9825 -0.1538
vn 0.4962 -0.8664 0.0562
vn 0.0943 -0.9382 -0.3331
vn 0.5812 -0.8104 -0.0743
vn 0.1714 -0.5405 -0.8237
vn 0.3479 -0.6156 -0.7071
vn 0.1909 -0.6448 -0.7401
vn 0.3751 -0.7023 -0.6050
vn 0.2141 -0.7413 -0.6362
vn 0.7328 -0.5270 -0.4304
vn 0.9644 -0.1974 -0.1757
vn 0.9062 -0.1967 -0.3743
vn 0.8822 -0.4244 -0.2042
vn 0.9680 -0.1282 -0.2159
vn 0.9280 -0.3414 -0.1491
vn 0.6720 -0.5372 -0.5097
vn 0.6122 -0.5803 -0.5372
vn -0.2512 -0.7115 -0.6562
vn -0.2052 -0.8046 -0.5572
vn 0.9777 0.1105 -0.1787
vn 0.9855 0.0315 0.1666
vn 0.9942 -0.0137 0.1068
vn -0.6292 -0.7327 0.2592
vn -0.7396 -0.6682 0.0812
vn -0.6590 -0.7331 0.1683
vn -0.8238 -0.5659 -0.0350
vn 0.9935 0.0788 0.0817
vn 0.9922 -0.0580 0.1106
vn -0.7182 -0.6867 0.1122
vn -0.7866 -0.6173 0.0117
vn 0.6841 0.6961 -0.2179
vn 0.6985 0.7007 -0.1450
vn 0.6981 0.7132 -0.0634
vn 0.9896 0.0345 0.1399
vn 0.1141 0.2193 -0.9690
vn 0.0214 0.4310 -0.9021
vn 0.0200 0.3567 -0.9340
vn 0.0456 0.2772 -0.9597
vn 0.0909 0.2019 -0.9752
vn 0.0072 0.3052 -0.9523
vn -0.0114 0.3850 -0.9228
vn 0.0055 0.4517 -0.8922
vn 0.0590 -0.1301 -0.9897
vn -0.0240 -0.1425 -0.9895
vn -0.0162 -0.1530 -0.9881
vn -0.7595 -0.4441 -0.4753
vn -0.7589 -0.4457 -0.4748
vn 0.7669 0.2763 -0.5793
vn 0.7236 0.2575 -0.6404
vn -0.0759 0.4141 -0.9071
vn 0.7473 0.2222 -0.6262
vn 0.7158 0.2674 -0.6451
vn 0.7485 0.2316 -0.6213
vn -0.0156 -0.1422 -0.9897
vn -0.7526 -0.4485 -0.4821
vn -0.7520 -0.4349 -0.4953
vn 0.7672 0.2458 -0.5924
vn -0.7517 -0.4356 -0.4953
vn 0.9919 0.0375 0.1215
vn -0.7736 -0.6323 0.0407
vn -0.6696 -0.7190 0.1861
vn -0.6584 -0.7236 0.2071
vn 1.0000 -0.0000 -0.0000
vn 0.9672 0.0844 0.2394
vn 0.6448 -0.4560 -0.6134
vn 0.0563 -0.4431 -0.8947
vn 0.7291 -0.4272 -0.5347
vn 0.8235 -0.3631 -0.4358
vn 0.3180 -0.5185 -0.7937
vn 0.9753 0.1031 -0.1955
vn 0.9045 -0.2830 -0.3189
vn 0.4185 -0.5016 -0.7571
vn 0.9978 -0.0347 -0.0565
vn -0.9672 -0.0843 -0.2396
vn -0.6295 0.4665 0.6214
vn -0.0563 0.4430 0.8947
vn -0.7295 0.4268 0.5344
vn -0.8238 0.3631 0.4354
vn -0.3180 0.5186 0.7937
vn -0.9754 -0.1966 0.1002
vn -0.9045 0.2833 0.3186
vn -0.4189 0.5015 0.7570
vn -0.9978 0.0351 0.0563
vn -0.0991 -0.7892 0.6061
vn 0.9852 0.0440 0.1659
vn 0.5035 -0.8397 0.2034
vn 0.9892 0.0307 0.1432
vn 0.1143 -0.9933 0.0190
vn 0.3334 -0.9219 0.1974
vn 0.3263 -0.9447 0.0321
vn 0.9772 -0.0421 0.2079
vn -0.9851 -0.0440 -0.1661
vn -0.5032 0.8401 -0.2024
vn -0.9886 -0.0190 -0.1491
vn -0.1143 0.9933 -0.0191
vn -0.3330 0.9220 -0.1977
vn -0.3261 0.9448 -0.0321
vn -0.9772 0.0423 -0.2079
vt 0.993787 0.017962
vt 0.993616 0.014648
vt 0.993773 0.015923
vt 0.993752 0.016914
vt 0.993582 0.015476
vt 0.993541 0.016323
vt 0.993924 0.019841
vt 0.993852 0.018925
vt 0.996635 0.018680
vt 0.990867 0.015907
vt 0.996613 0.019490
vt 0.996908 0.017881
vt 0.990004 0.002175
vt 0.997517 0.010082
vt 0.996741 0.017861
vt 0.988593 0.016321
vt 0.989935 0.002351
vt 0.997679 0.019620
vt 0.993768 0.010280
vt 0.989063 0.008899
vt 0.991715 0.000374
vt 0.987514 0.012482
vt 0.998018 0.019577
vt 0.994099 0.010179
vt 0.997273 0.018484
vt 0.988608 0.007794
vt 0.997478 0.019127
vt 0.988847 0.008415
vt 0.997701 0.018311
vt 0.997849 0.018965
vt 0.998130 0.018204
vt 0.998278 0.018883
vt 0.994519 0.010135
vt 0.998428 0.019572
vt 0.994526 0.017917
vt 0.995262 0.017884
vt 0.995996 0.017865
vt 0.997015 0.015239
vt 0.986680 0.015155
vt 0.995416 0.015144
vt 0.996212 0.015208
vt 0.996916 0.016104
vt 0.987355 0.015441
vt 0.994560 0.015969
vt 0.995345 0.016024
vt 0.996132 0.016080
vt 0.996813 0.016998
vt 0.988016 0.015835
vt 0.994521 0.016916
vt 0.995287 0.016935
vt 0.996055 0.016965
vt 0.990236 0.015739
vt 0.997256 0.019364
vt 0.989688 0.002736
vt 0.992574 0.007554
vt 0.996199 0.010002
vt 0.993014 0.014623
vt 0.991089 0.015192
vt 0.991696 0.015290
vt 0.992315 0.015370
vt 0.992946 0.015431
vt 0.991517 0.016067
vt 0.995955 0.019588
vt 0.992184 0.016189
vt 0.995289 0.019683
vt 0.992862 0.016270
vt 0.994604 0.019770
vt 0.995950 0.018713
vt 0.995261 0.018775
vt 0.994559 0.018854
vt 0.997083 0.018643
vt 0.996840 0.010071
vt 0.994433 0.012417
vt 0.994354 0.011860
vt 0.994282 0.011308
vt 0.994615 0.010762
vt 0.994211 0.010767
vt 0.990484 0.015097
vt 0.989478 0.003396
vt 0.993967 0.012248
vt 0.987519 0.010564
vt 0.993834 0.011722
vt 0.987619 0.011082
vt 0.993783 0.011263
vt 0.987630 0.011518
vt 0.993770 0.010829
vt 0.987589 0.011941
vt 0.988913 0.007389
vt 0.994502 0.012978
vt 0.994142 0.012787
vt 0.988976 0.007840
vt 0.987362 0.010018
vt 0.992811 0.007653
vt 0.989087 0.007297
vt 0.989657 0.003402
vt 0.989150 0.007733
vt 0.989790 0.002988
vt 0.992668 0.007810
vt 0.993621 0.018420
vt 0.987360 0.000173
vt 0.990653 0.013518
vt 0.988643 0.013138
vt 0.991696 0.019194
vt 0.987647 0.013036
vt 0.990738 0.019527
vt 0.992754 0.018775
vt 0.989745 0.013348
vt 0.988333 0.007971
vt 0.989148 0.016347
vt 0.988566 0.008596
vt 0.989693 0.016099
vt 0.990172 0.015813
vt 0.988811 0.009154
vt 0.991484 0.000095
vt 0.991968 0.017388
vt 0.989234 0.000051
vt 0.990433 0.000053
vt 0.990983 0.016592
vt 0.992908 0.018027
vt 0.988146 0.000090
vt 0.988677 0.001323
vt 0.989491 0.014875
vt 0.988944 0.015650
vt 0.989377 0.001908
vt 0.990040 0.014207
vt 0.988043 0.000767
vt 0.989476 0.001759
vt 0.997686 0.010797
vt 0.988780 0.001175
vt 0.997793 0.011788
vt 0.992369 0.004141
vt 0.997830 0.012848
vt 0.988052 0.000539
vt 0.990460 0.000284
vt 0.988595 0.011735
vt 0.989277 0.000263
vt 0.989563 0.010943
vt 0.992593 0.004064
vt 0.990450 0.010052
vt 0.988106 0.000274
vt 0.992548 0.007101
vt 0.996413 0.010383
vt 0.992783 0.007160
vt 0.987786 0.010012
vt 0.992471 0.005911
vt 0.996984 0.011373
vt 0.992701 0.005878
vt 0.988889 0.010012
vt 0.993787 0.017962
vt 0.993616 0.014648
vt 0.993773 0.015923
vt 0.993752 0.016914
vt 0.993582 0.015476
vt 0.993924 0.019841
vt 0.993541 0.016323
vt 0.993852 0.018925
vt 0.996635 0.018680
vt 0.990867 0.015907
vt 0.996613 0.019490
vt 0.996908 0.017881
vt 0.990004 0.002175
vt 0.997517 0.010082
vt 0.996741 0.017861
vt 0.988593 0.016321
vt 0.989935 0.002351
vt 0.997679 0.019620
vt 0.993768 0.010280
vt 0.989063 0.008899
vt 0.991715 0.000374
vt 0.987514 0.012482
vt 0.998018 0.019577
vt 0.994099 0.010179
vt 0.997273 0.018484
vt 0.988608 0.007794
vt 0.997478 0.019127
vt 0.988847 0.008415
vt 0.997701 0.018311
vt 0.997849 0.018965
vt 0.998130 0.018204
vt 0.998278 0.018883
vt 0.994519 0.010135
vt 0.998428 0.019572
vt 0.994526 0.017917
vt 0.995262 0.017884
vt 0.995996 0.017865
vt 0.997015 0.015239
vt 0.986680 0.015155
vt 0.995416 0.015144
vt 0.996212 0.015208
vt 0.996916 0.016104
vt 0.987355 0.015441
vt 0.994560 0.015969
vt 0.995345 0.016024
vt 0.996132 0.016080
vt 0.996813 0.016998
vt 0.988016 0.015835
vt 0.994521 0.016916
vt 0.995287 0.016935
vt 0.996055 0.016965
vt 0.990236 0.015739
vt 0.997256 0.019364
vt 0.989688 0.002736
vt 0.992574 0.007554
vt 0.996199 0.010002
vt 0.993014 0.014623
vt 0.991089 0.015192
vt 0.991696 0.015290
vt 0.992315 0.015370
vt 0.992946 0.015431
vt 0.991517 0.016067
vt 0.995955 0.019588
vt 0.992184 0.016189
vt 0.995289 0.019683
vt 0.992862 0.016270
vt 0.994604 0.019770
vt 0.995950 0.018713
vt 0.995261 0.018775
vt 0.994559 0.018854
vt 0.997083 0.018643
vt 0.996840 0.010071
vt 0.994433 0.012417
vt 0.994354 0.011860
vt 0.994282 0.011308
vt 0.994615 0.010762
vt 0.994211 0.010767
vt 0.990484 0.015097
vt 0.989478 0.003396
vt 0.993967 0.012248
vt 0.987519 0.010564
vt 0.993834 0.011722
vt 0.987619 0.011082
vt 0.993783 0.011263
vt 0.987630 0.011518
vt 0.993770 0.010829
vt 0.987589 0.011941
vt 0.988913 0.007389
vt 0.994502 0.012978
vt 0.994142 0.012787
vt 0.988976 0.007840
vt 0.987362 0.010018
vt 0.992811 0.007653
vt 0.989087 0.007297
vt 0.989657 0.003402
vt 0.989150 0.007733
vt 0.989790 0.002988
vt 0.992668 0.007810
vt 0.993621 0.018420
vt 0.987360 0.000173
vt 0.990653 0.013518
vt 0.988643 0.013138
vt 0.991696 0.019194
vt 0.987647 0.013036
vt 0.990738 0.019527
vt 0.992754 0.018775
vt 0.989745 0.013348
vt 0.988333 0.007971
vt 0.989148 0.016347
vt 0.988566 0.008596
vt 0.989693 0.016099
vt 0.990172 0.015813
vt 0.988811 0.009154
vt 0.991484 0.000095
vt 0.991968 0.017388
vt 0.989234 0.000051
vt 0.990433 0.000053
vt 0.990983 0.016592
vt 0.992908 0.018027
vt 0.988146 0.000090
vt 0.988677 0.001323
vt 0.989491 0.014875
vt 0.988944 0.015650
vt 0.989377 0.001908
vt 0.990040 0.014207
vt 0.988043 0.000767
vt 0.989476 0.001759
vt 0.997686 0.010797
vt 0.988780 0.001175
vt 0.997793 0.011788
vt 0.992369 0.004141
vt 0.997830 0.012848
vt 0.988052 0.000539
vt 0.990460 0.000284
vt 0.988595 0.011735
vt 0.989277 0.000263
vt 0.989563 0.010943
vt 0.992593 0.004064
vt 0.990450 0.010052
vt 0.988106 0.000274
vt 0.992548 0.007101
vt 0.996413 0.010383
vt 0.992783 0.007160
vt 0.987786 0.010012
vt 0.992471 0.005911
vt 0.996984 0.011373
vt 0.992701 0.005878
vt 0.988889 0.010012
vt 0.998492 0.019575
vt 0.994587 0.010138
vt 0.998464 0.018143
vt 0.991207 0.014710
vt 0.994625 0.010828
vt 0.989406 0.003745
vt 0.990590 0.014758
vt 0.991809 0.014676
vt 0.998477 0.018862
vt 0.994707 0.011940
vt 0.994620 0.010762
vt 0.993617 0.014546
vt 0.994757 0.012510
vt 0.993016 0.014593
vt 0.992780 0.014610
vt 0.992408 0.014636
vt 0.994817 0.013097
vt 0.988871 0.007011
vt 0.989053 0.006947
vt 0.989589 0.003745
vt 0.998454 0.017574
vt 0.994663 0.011366
vt 0.994595 0.010138
vt 0.998500 0.019576
vt 0.998467 0.018142
vt 0.991210 0.014698
vt 0.994642 0.010950
vt 0.990597 0.014735
vt 0.989401 0.003768
vt 0.991811 0.014662
vt 0.998482 0.018862
vt 0.994715 0.011942
vt 0.994629 0.010763
vt 0.993617 0.014532
vt 0.994764 0.012512
vt 0.993016 0.014578
vt 0.992667 0.014603
vt 0.992410 0.014621
vt 0.988872 0.007016
vt 0.994813 0.013095
vt 0.989587 0.003757
vt 0.989052 0.006936
vt 0.998457 0.017573
vt 0.994672 0.011367
vt 0.997015 0.015238
vt 0.986679 0.015155
vt 0.997654 0.017970
vt 0.994814 0.015084
vt 0.994620 0.015076
vt 0.990192 0.019666
vt 0.987088 0.013023
vt 0.988259 0.007641
vt 0.988862 0.016420
vt 0.995420 0.015112
vt 0.996217 0.015165
vt 0.989334 0.017579
vt 0.997204 0.018173
vt 0.988522 0.007494
vt 0.993821 0.015069
vt 0.998078 0.017753
vt 0.997016 0.015230
vt 0.986673 0.015153
vt 0.997652 0.017957
vt 0.994956 0.015098
vt 0.994620 0.015084
vt 0.990164 0.019673
vt 0.987060 0.013022
vt 0.988260 0.007646
vt 0.988866 0.016419
vt 0.995419 0.015118
vt 0.996216 0.015170
vt 0.989324 0.017565
vt 0.997205 0.018179
vt 0.988524 0.007499
vt 0.993820 0.015078
vt 0.998076 0.017740
vt 0.998407 0.017579
vt 0.998373 0.017583
vt 0.998456 0.017538
vt 0.998453 0.017555
s 0
f 214/353/1 206/343/1 16/29/1 14/25/1
f 12/18/2 15/27/2 17/30/2 13/23/2
f 55/82/3 56/84/3 50/75/3 49/74/3
f 1/1/4 21/35/4 46/70/4 7/8/4
f 7/8/5 46/70/5 43/67/5 6/7/5
f 53/78/6 37/58/6 9/10/6 35/52/6
f 6/6/7 43/66/7 40/61/7 5/5/7
f 173/303/8 171/300/8 37/58/8 53/78/8
f 36/57/9 2/2/9 5/5/9 40/61/9
f 17/30/10 15/27/10 14/25/10 16/29/10
f 17/30/11 16/29/11 18/31/11 19/32/11
f 13/23/12 17/30/12 19/32/12 20/34/12
f 170/299/13 175/305/13 19/32/13 18/31/13
f 223/366/14 224/367/14 217/358/14 221/362/14 225/368/14 222/364/14 226/369/14 218/359/14 228/372/14 230/374/14 231/375/14 232/376/14 229/373/14 216/356/14 206/343/14 214/354/14 210/349/14 213/352/14 209/347/14 205/341/14 212/351/14 211/350/14 207/344/14 208/345/14 215/355/14 227/371/14 220/361/14 219/360/14
f 33/50/15 32/49/15 28/44/15 29/45/15
f 22/36/16 21/35/16 32/49/16 33/50/16
f 45/69/17 46/70/17 21/35/17 22/36/17
f 181/311/18 180/310/18 36/57/18
f 29/45/19 30/46/19 34/51/19 33/50/19
f 33/50/20 34/51/20 23/37/20 22/36/20
f 44/68/21 45/69/21 22/36/21 23/37/21
f 212/351/22 205/341/22 24/38/22 26/41/22
f 26/41/23 24/38/23 27/42/23 30/46/23
f 34/51/24 31/47/24 11/15/24 23/37/24
f 11/15/25 10/12/25 47/71/25 8/9/25
f 23/37/26 11/15/26 8/9/26 44/68/26
f 44/68/27 8/9/27 9/11/27 41/63/27
f 41/62/28 9/10/28 37/58/28 38/59/28
f 3/3/29 28/44/29 32/49/29 4/4/29
f 30/46/30 29/45/30 25/40/30 26/41/30
f 4/4/31 32/49/31 21/35/31 1/1/31
f 30/46/32 27/42/32 31/47/32 34/51/32
f 181/311/33 36/57/33 40/61/33 39/60/33 182/312/33
f 42/64/34 41/62/34 38/59/34 39/60/34
f 39/60/35 40/61/35 43/66/35 42/64/35
f 45/69/36 44/68/36 41/63/36 42/65/36
f 42/65/37 43/67/37 46/70/37 45/69/37
f 54/80/38 55/82/38 49/74/38 48/73/38
f 20/33/39 51/76/39 52/77/39 13/24/39
f 172/301/40 51/76/40 177/307/40
f 56/84/41 57/86/41 52/77/41 50/75/41
f 169/298/42 177/307/42 51/76/42 20/33/42
f 12/19/43 13/24/43 52/77/43 57/86/43
f 48/73/44 58/89/44 59/90/44 54/80/44
f 35/53/45 9/11/45 8/9/45 47/71/45
f 183/314/46 184/315/46 60/94/46 58/88/46
f 58/88/47 60/94/47 61/96/47 59/91/47
f 53/79/48 35/54/48 61/97/48 60/95/48
f 213/352/49 64/105/49 209/346/49
f 69/115/50 71/119/50 65/106/50 63/103/50
f 209/347/51 64/104/51 24/39/51 205/342/51
f 27/43/52 74/125/52 72/122/52
f 64/104/53 63/102/53 27/43/53 24/39/53
f 73/123/54 11/16/54 31/48/54
f 70/118/55 67/111/55 68/112/55
f 65/106/56 71/119/56 62/99/56
f 27/43/57 62/101/57 74/125/57
f 73/123/58 31/48/58 72/122/58
f 210/348/59 214/354/59 14/26/59 66/108/59
f 66/108/60 14/26/60 15/28/60 67/110/60
f 67/110/61 15/28/61 12/20/61 68/113/61
f 63/103/62 70/118/62 69/115/62
f 68/114/63 12/21/63 78/134/63 70/117/63
f 71/120/64 80/140/64 62/100/64
f 71/120/65 69/116/65 79/136/65 80/140/65
f 79/136/66 69/116/66 70/117/66 78/134/66
f 10/13/67 11/17/67 73/124/67 75/127/67
f 76/129/68 75/127/68 73/124/68 72/121/68
f 76/129/69 72/121/69 74/126/69 77/133/69
f 62/100/70 77/133/70 74/126/70
f 77/131/71 80/138/71 84/147/71 83/145/71
f 82/143/72 59/93/72 35/55/72 81/141/72
f 81/141/73 83/145/73 84/147/73 82/143/73
f 77/132/74 83/146/74 76/130/74
f 75/128/75 76/130/75 83/146/75 47/72/75
f 84/148/76 80/139/76 79/137/76
f 55/83/77 54/81/77 82/144/77 84/148/77
f 77/133/78 62/100/78 80/140/78
f 78/135/79 57/87/79 56/85/79
f 78/135/80 12/22/80 57/87/80
f 82/144/81 54/81/81 59/92/81
f 55/83/82 79/137/82 78/135/82 56/85/82
f 35/55/83 59/93/83 61/98/83
f 75/128/84 47/72/84 10/14/84
f 35/56/85 47/72/85 81/142/85
f 79/137/86 55/83/86 84/148/86
f 47/72/87 83/146/87 81/142/87
f 66/109/88 67/111/88 70/118/88 63/103/88
f 27/43/89 72/122/89 31/48/89
f 65/107/90 62/101/90 27/43/90
f 65/107/91 27/43/91 63/102/91
f 226/369/92 98/173/92 100/177/92 218/359/92
f 96/166/93 97/171/93 101/178/93 99/175/93
f 139/230/94 133/222/94 134/223/94 140/232/94
f 85/149/95 91/156/95 130/218/95 105/183/95
f 91/156/96 90/154/96 127/215/96 130/218/96
f 137/226/97 119/200/97 93/158/97 121/206/97
f 90/155/98 89/153/98 124/209/98 127/214/98
f 191/324/99 137/226/99 121/206/99 189/322/99
f 120/205/100 124/209/100 89/153/100 86/150/100
f 101/178/101 100/177/101 98/173/101 99/175/101
f 101/178/102 103/180/102 102/179/102 100/177/102
f 97/171/103 104/182/103 103/180/103 101/178/103
f 188/321/104 102/179/104 103/180/104 193/327/104
f 117/198/105 113/193/105 112/192/105 116/197/105
f 106/184/106 117/198/106 116/197/106 105/183/106
f 129/217/107 106/184/107 105/183/107 130/218/107
f 198/332/108 199/333/108 120/205/108
f 113/193/109 117/198/109 118/199/109 114/194/109
f 117/198/110 106/184/110 107/185/110 118/199/110
f 128/216/111 107/185/111 106/184/111 129/217/111
f 224/367/112 110/189/112 108/186/112 217/357/112
f 110/189/113 114/194/113 111/190/113 108/186/113
f 118/199/114 107/185/114 95/163/114 115/195/114
f 95/163/115 92/157/115 131/219/115 94/160/115
f 107/185/116 128/216/116 92/157/116 95/163/116
f 128/216/117 125/211/117 93/159/117 92/157/117
f 125/210/118 122/207/118 121/206/118 93/158/118
f 87/151/119 88/152/119 116/197/119 112/192/119
f 114/194/120 110/189/120 109/188/120 113/193/120
f 88/152/121 85/149/121 105/183/121 116/197/121
f 114/194/122 118/199/122 115/195/122 111/190/122
f 200/334/123 123/208/123 124/209/123 120/205/123 199/333/123
f 126/212/124 123/208/124 122/207/124 125/210/124
f 123/208/125 126/212/125 127/214/125 124/209/125
f 129/217/126 126/213/126 125/211/126 128/216/126
f 126/213/127 129/217/127 130/218/127 127/215/127
f 138/228/128 132/221/128 133/222/128 139/230/128
f 104/181/129 97/172/129 136/225/129 135/224/129
f 190/323/130 195/329/130 135/224/130
f 140/232/131 134/223/131 136/225/131 141/234/131
f 187/319/132 104/181/132 135/224/132 195/329/132
f 96/167/133 141/234/133 136/225/133 97/172/133
f 132/221/134 138/228/134 143/238/134 142/237/134
f 119/201/135 131/219/135 92/157/135 93/159/135
f 201/335/136 142/236/136 144/242/136 202/338/136
f 142/236/137 143/239/137 145/244/137 144/242/137
f 137/227/138 144/243/138 145/245/138 119/202/138
f 225/368/139 221/362/139 148/253/139
f 153/263/140 147/251/140 149/254/140 155/267/140
f 221/363/141 217/358/141 108/187/141 148/252/141
f 111/191/142 156/270/142 158/273/142
f 148/252/143 108/187/143 111/191/143 147/250/143
f 157/271/144 115/196/144 95/164/144
f 154/266/145 152/260/145 151/259/145
f 149/254/146 146/247/146 155/267/146
f 111/191/147 158/273/147 146/249/147
f 157/271/148 156/270/148 115/196/148
f 222/364/149 150/256/149 98/174/149 226/370/149
f 150/256/150 151/258/150 99/176/150 98/174/150
f 151/258/151 152/261/151 96/168/151 99/176/151
f 147/251/152 153/263/152 154/266/152
f 152/262/153 154/265/153 162/282/153 96/169/153
f 155/268/154 146/248/154 164/288/154
f 155/268/155 164/288/155 163/284/155 153/264/155
f 163/284/156 162/282/156 154/265/156 153/264/156
f 94/161/157 159/275/157 157/272/157 95/165/157
f 160/277/158 156/269/158 157/272/158 159/275/158
f 160/277/159 161/281/159 158/274/159 156/269/159
f 146/248/160 158/274/160 161/281/160
f 161/279/161 167/293/161 168/295/161 164/286/161
f 166/291/162 165/289/162 119/203/162 143/241/162
f 165/289/163 166/291/163 168/295/163 167/293/163
f 161/280/164 160/278/164 167/294/164
f 159/276/165 131/220/165 167/294/165 160/278/165
f 168/296/166 163/285/166 164/287/166
f 139/231/167 168/296/167 166/292/167 138/229/167
f 161/281/168 164/288/168 146/248/168
f 162/283/169 140/233/169 141/235/169
f 162/283/169 141/235/169 96/170/169
f 166/292/170 143/240/170 138/229/170
f 139/231/171 140/233/171 162/283/171 163/285/171
f 119/203/172 145/246/172 143/241/172
f 159/276/173 94/162/173 131/220/173
f 119/204/174 165/290/174 131/220/174
f 163/285/175 168/296/175 139/231/175
f 131/220/176 165/290/176 167/294/176
f 150/257/177 147/251/177 154/266/177 151/259/177
f 111/191/178 115/196/178 156/270/178
f 149/255/179 111/191/179 146/249/179
f 149/255/180 147/250/180 111/191/180
f 227/371/181 215/355/181 3/3/181 4/4/181 1/1/181 85/149/181 88/152/181 87/151/181
f 178/308/181 196/330/181 86/150/181 89/153/181 90/155/181 91/156/181 85/149/181 1/1/181 7/8/181 6/7/181 5/5/181 2/2/181
f 231/375/182 230/374/182 203/339/182
f 142/237/183 201/336/183 197/331/183 132/221/183
f 86/150/184 196/330/184 198/332/184 120/205/184
f 132/221/185 197/331/185 194/328/185 133/222/185
f 133/222/186 194/328/186 204/340/186 134/223/186
f 123/208/187 200/334/187 192/326/187 122/207/187
f 137/227/188 191/325/188 202/337/188 144/243/188
f 135/224/189 136/225/189 134/223/189 204/340/189 190/323/189
f 122/207/190 192/326/190 189/322/190 121/206/190
f 104/182/191 187/320/191 193/327/191 103/180/191
f 229/373/192 232/376/192 185/317/192
f 58/89/193 48/73/193 179/309/193 183/313/193
f 2/2/194 36/57/194 180/310/194 178/308/194
f 48/73/195 49/74/195 176/306/195 179/309/195
f 49/74/196 50/75/196 186/318/196 176/306/196
f 39/60/197 38/59/197 174/304/197 182/312/197
f 53/79/198 60/95/198 184/316/198 173/302/198
f 51/76/199 172/301/199 186/318/199 50/75/199 52/77/199
f 38/59/200 37/58/200 171/300/200 174/304/200
f 20/34/201 19/32/201 175/305/201 169/297/201
f 175/305/202 170/299/202 185/317/202 232/376/202 231/375/202 203/339/202 188/321/202 193/327/202 187/320/202 195/329/202 190/323/202 204/340/202 194/328/202 197/331/202 201/336/202 202/338/202 191/325/202 189/322/202 192/326/202 200/334/202 199/333/202 198/332/202 196/330/202 178/308/202 180/310/202 181/311/202 182/312/202 174/304/202 171/300/202 173/303/202 184/316/202 183/314/202 179/309/202 176/306/202 186/318/202 172/301/202 177/307/202 169/298/202
f 102/179/203 188/321/203 203/339/203 230/374/203 228/372/203
f 110/189/204 224/367/204 223/366/204 109/188/204
f 150/257/205 222/365/205 225/368/205 148/253/205 147/251/205
f 112/192/206 220/361/206 227/371/206 87/151/206
f 109/188/207 223/366/207 219/360/207
f 113/193/208 109/188/208 219/360/208 220/361/208 112/192/208
f 102/179/209 228/372/209 218/359/209 100/177/209
f 18/31/210 216/356/210 229/373/210 185/317/210 170/299/210
f 26/41/211 25/40/211 211/350/211 212/351/211
f 66/109/212 63/103/212 64/105/212 213/352/212 210/349/212
f 28/44/213 3/3/213 215/355/213 208/345/213
f 25/40/214 207/344/214 211/350/214
f 29/45/215 28/44/215 208/345/215 207/344/215 25/40/215
f 18/31/216 16/29/216 206/343/216 216/356/216
